<svg width="100%" height="100%">
  
  <pattern id="coffee-cup" 
           x="5" 
           y="5" 
           width="60" 
           height="60" patternUnits="userSpaceOnUse" patternContentUnits="userSpaceOnUse">
    <path d="M2.85,18.77l.32,2.66a26.59,26.59,0,0,0,4.8.39,26.8,26.8,0,0,0,4.36-.39l.32-2.66" style="fill:none;stroke:#ff7367;stroke-linecap:round;stroke-linejoin:round;stroke-width:0.4035321859703156px"/>
    <path d="M1.22,7.84C3.38,7.94,5.7,8,8.16,8c2.23,0,4.33-.1,6.31-.21v.06L13.14,18.49h0A31.07,31.07,0,0,1,8,19a31.68,31.68,0,0,1-5.65-.46L1,7.84" style="fill:none;stroke:#ff7367;stroke-linecap:round;stroke-linejoin:round;stroke-width:0.4035321859703156px"/>
    <line x1="1.7" y1="7.64" x2="1.31" y2="4.46" style="fill:none;stroke:#ff7367;stroke-linecap:round;stroke-miterlimit:10;stroke-width:0.4035321859703156px"/>
    <line x1="13.81" y1="7.64" x2="14.2" y2="4.46" style="fill:none;stroke:#ff7367;stroke-linecap:round;stroke-miterlimit:10;stroke-width:0.4035321859703156px"/>
    <polyline points="0.72 2.19 14.9 2.19 14.9 2.31 15.36 4.43 15.25 4.47 0.2 4.43 0.65 2.31" style="fill:none;stroke:#ff7367;stroke-linecap:round;stroke-linejoin:round;stroke-width:0.4035321859703156px"/>
    <polyline points="13.81 2.02 13.44 0.29 13.44 0.2 1.93 0.2 1.87 0.29 1.5 2.02" style="fill:none;stroke:#ff7367;stroke-linecap:round;stroke-linejoin:round;stroke-width:0.4035321859703156px"/>

  </pattern>
  
  <rect id="rect" x="0" y="0" width="100%" height="100%" fill="url(#coffee-cup)" />
  
</svg>