<svg xmlns="http://www.w3.org/2000/svg" viewBox="0 0 3831.15 508.35"><path d="M0,175.19V144.63c13.67,12.75,33.72,21.52,56.31,21.52,21.25,0,41.18-10,41.18-26.83,0-36.26-95.65-23.9-95.65-85C1.84,22.58,27.23,1.06,64,1.06c18.07-.4,37.47,4.25,51.82,13.68V43.69C101.87,33.34,84.33,26,66.66,26c-21.38,0-38.25,10-38.25,26.3,0,36.78,96.7,23.91,96.7,85.27,0,33.34-27.9,54.45-65.21,54.45C32.65,192.58,12.6,184.75,0,175.19Z"/><path d="M189.39,3.45h65.07c41.32,0,67.75,24.44,67.75,58.71s-25.64,62.42-70,62.42H216.62v64.81H189.39Zm64.28,96.3c24.43,0,40.92-15.41,40.92-36.27,0-22.44-17.54-35.32-40.92-35.32h-37V99.75Z"/><path d="M382.25,3.45H503.52V28.28H409.2v53.4h79.16v25.37H409.2v57.24h98.16v25.1H382.25Z"/><path d="M556.34,96.43C556.34,44.62,594.07,0,652.25,0c17.67,0,38.91,4.11,52.86,13V41.7c-10.36-8.5-28.43-15.41-49.67-15.41-46.35,0-71.85,32-71.85,69.47,0,38.38,26.69,70.93,73.43,70.93a92.2,92.2,0,0,0,48.09-13.42V181c-13.67,8.77-36.91,12.36-53.4,12.36C595.26,193.38,556.34,149,556.34,96.43Z"/><path d="M770.34,3.45h27.37V189.39H770.34Z"/><path d="M930.05,3.45H961.4l77.18,185.94H1009.1L991.28,145H900L882.1,189.39H852.89Zm52.22,116.61L945.73,32.14l-36.66,87.92Z"/><path d="M1097.83,3.45h27.22V163.63h91.11v25.76H1097.83Z"/><path d="M1268.63,3.45H1296V189.39h-27.37Z"/><path d="M1408.15,29.34h-57.37V3.45h141.86V29.34h-57.25v160h-27.24Z"/><path d="M1605,114.62,1532.73,3.45h33.6l52.33,84.34,52.2-84.34h33.6l-72.24,111.17v74.77H1605Z"/><path d="M1838.81,96.43c0-51.81,37.72-96.43,95.9-96.43,17.68,0,38.92,4.11,52.87,13V41.7c-10.37-8.5-28.44-15.41-49.68-15.41-46.35,0-71.85,32-71.85,69.47,0,38.38,26.69,70.93,73.44,70.93a92.23,92.23,0,0,0,48.09-13.42V181c-13.67,8.77-36.92,12.36-53.4,12.36C1877.72,193.38,1838.81,149,1838.81,96.43Z"/><path d="M2042.15,96.29c0-53.12,42.5-96.16,94.57-96.16s94.58,43.3,94.58,96.16c0,53.4-42.5,96.42-94.58,96.42S2042.15,149.82,2042.15,96.29Zm161.25,0c0-38.78-29.35-69.73-66.68-69.73s-66.67,31.21-66.67,69.73c0,38.91,29.36,70,66.67,70S2203.4,134.94,2203.4,96.29Z"/><path d="M2293.9,3.45h124.71V29.34h-97.88V88.05h81.42v25.77h-81.42v75.57H2293.9Z"/><path d="M2478.39,3.45h124.72V29.34h-97.89V88.05h81.42v25.77h-81.42v75.57h-26.83Z"/><path d="M2662.87,3.45h121.27V28.28h-94.32v53.4H2769v25.37h-79.16v57.24H2788v25.1H2662.87Z"/><path d="M2850.28,3.45h121.27V28.28h-94.32v53.4h79.16v25.37h-79.16v57.24h98.16v25.1H2850.28Z"/><path d="M3039.12,155.93h31.74l-22,59h-15.14Z"/><path d="M8,318.42H35.34V504.36H8Z"/><path d="M97.81,411.39c0-51.8,37.73-96.42,95.91-96.42,17.67,0,38.91,4.11,52.86,13v28.69c-10.36-8.5-28.41-15.41-49.67-15.41-46.35,0-71.85,32-71.85,69.47,0,38.38,26.69,70.93,73.43,70.93a92.29,92.29,0,0,0,48.09-13.42V496c-13.67,8.77-36.93,12.36-53.4,12.36C136.73,508.35,97.81,464,97.81,411.39Z"/><path d="M311.81,318.42H433.08v24.83H338.76v53.4h79.16V422H338.76v57.25h98.16v25.1H311.81Z"/><path d="M480.48,398.24h94.3v25h-94.3Z"/><path d="M634.36,411.39c0-51.8,37.73-96.42,95.91-96.42,17.67,0,38.91,4.11,52.86,13v28.69c-10.36-8.5-28.41-15.41-49.67-15.41-46.35,0-71.85,32-71.85,69.47,0,38.38,26.69,70.93,73.43,70.93a92.32,92.32,0,0,0,48.09-13.42V496c-13.67,8.77-36.93,12.36-53.4,12.36C673.28,508.35,634.36,464,634.36,411.39Z"/><path d="M848.36,318.42h67.73c39.85,0,66.42,24,66.42,56.45,0,24.57-16.75,46.61-41.71,55.64l52.86,73.85H960.73l-49.28-70H875.31v70H848.36ZM915.16,411c23.38,0,40-13.81,40-34.67,0-21.38-17.39-33.07-39.59-33.07H875.31V411Z"/><path d="M1050.65,318.42h121.27v24.83H1077.6v53.4h79.16V422H1077.6v57.25h98.16v25.1H1050.65Z"/><path d="M1301.27,318.42h31.35l77.18,185.94h-29.49L1362.5,460h-91.25l-17.93,44.36h-29.21ZM1353.48,435l-36.54-87.92L1280.29,435Z"/><path d="M1469.06,318.42h44.09L1570,467l55.38-148.62h44.23V504.36h-26.69V344.58l-11.55,32.28-50.08,127.5h-24.17l-49.95-127.5-11.28-31.21V504.36h-26.83Z"/><path d="M1825.79,453.36c0-18.46,10.5-33.87,26.57-43.29a53.59,53.59,0,0,1-20.19-42.25c0-28.15,25.1-51.52,58.18-51.52,12.76,0,30.55,3.58,43.83,13l-16.87,16.87a56.3,56.3,0,0,0-25.64-6.51c-20.72,0-34.4,13.14-34.4,28.69,0,17.39,14,31.74,32.4,31.74H1924V376.46h25V400.1h23.38v23.11h-23.38v25.63c0,34.14-25.9,58.05-60.16,58.05C1853.43,506.89,1825.79,484.57,1825.79,453.36Zm98.16-4.52V423.21h-33.47c-23.24,0-39.72,12.75-39.72,30,0,18.59,16.34,30.81,37.72,30.81C1909.21,484,1924,469.7,1924,448.84Z"/><path d="M2119.53,490.16V459.6c13.67,12.75,33.72,21.52,56.31,21.52,21.24,0,41.17-10,41.17-26.83,0-36.26-95.64-23.9-95.64-85,0-31.74,25.38-53.26,62.16-53.26,18.07-.4,37.47,4.25,51.81,13.68v29c-14-10.35-31.48-17.67-49.16-17.67-21.38,0-38.24,10-38.24,26.31,0,36.78,96.7,23.9,96.7,85.27,0,33.34-27.9,54.45-65.21,54.45C2152.18,507.55,2132.13,499.72,2119.53,490.16Z"/><path d="M2308.92,318.42h27.62l101.21,143.31-.14-143.31h26.44V504.36h-27.9l-100.8-142.91V504.36h-26.43Z"/><path d="M2596.47,318.42h31.35L2705,504.36h-29.48L2657.7,460h-91.25l-17.93,44.36h-29.21ZM2648.68,435l-36.54-87.92L2575.48,435Z"/><path d="M2741.93,411.39c0-51.8,37.73-96.42,95.9-96.42,17.68,0,38.92,4.11,52.87,13v28.69c-10.36-8.5-28.43-15.41-49.68-15.41-46.34,0-71.84,32-71.84,69.47,0,38.38,26.69,70.93,73.43,70.93a92.32,92.32,0,0,0,48.09-13.42V496c-13.67,8.77-36.92,12.36-53.4,12.36C2780.85,508.35,2741.93,464,2741.93,411.39Z"/><path d="M2955.91,318.42h27.23v89.65l77.43-89.65,34.12-.13-69.84,78.89,76.36,107.18h-34.67l-62-87.79L2983.14,441v63.35h-27.23Z"/><path d="M3252.44,318.42h76.25c32.4,0,56.57,19.52,56.57,49.4A45.59,45.59,0,0,1,3363,407.54c18.07,8.23,29,24.3,29,43.83,0,28.69-22,53-63.35,53h-76.37Zm74.11,79.29c18.21,0,32-10.49,32-28.69,0-19-16.35-27-31.61-27h-48.88v55.65Zm-2.91,83c23.1,0,41.31-9.3,41.31-29.89,0-17.13-12.48-30.14-35.21-30.14h-51.66v60Z"/><path d="M3518.08,318.42h31.35l77.17,185.94h-29.48L3579.31,460h-91.25l-17.93,44.36h-29.21ZM3570.29,435l-36.54-87.92L3497.09,435Z"/><path d="M3685.85,318.42h67.73c39.85,0,66.42,24,66.42,56.45,0,24.57-16.75,46.61-41.71,55.64l52.86,73.85h-32.93l-49.28-70H3712.8v70h-27Zm66.8,92.57c23.38,0,40-13.81,40-34.67,0-21.38-17.39-33.07-39.59-33.07H3712.8V411Z"/></svg>