<svg xmlns="http://www.w3.org/2000/svg" viewBox="0 0 4919.41 4046.06"><text/><path d="M251.89,3038.44c-10.67-8.67-21.52-15.94-30.52-25.05-68.72-69.63-49.49-171,39.88-211.93,1.73-.8,3.33-1.87,6.71-3.78-22.9-34.89-34.63-73.46-19.53-113.14,8.81-23.17,23.69-46.66,42.07-63,45.59-40.59,99.88-37.45,167.8,4.55,5.66-10,10.57-20.51,17.09-29.9,46.23-66.62,136.86-74.92,195.46-17,82.24,81.24,163.63,163.33,245.37,245.07q32.88,32.86,65.77,65.73c4.3,4.27,9,8.12,16.41,14.74-7.55-31.59-14.64-58.94-20.58-86.53C962,2744.7,1002.19,2679.59,1073.1,2663c67.89-15.86,134.57,25.08,151.4,95.86,26.85,113,79.69,213.28,143.12,309.28,43.75,66.23,85.49,133.82,126.86,201.58,76.34,125,57,286.79-46.22,390.94q-96.83,97.7-194.56,194.49c-126.24,124.85-324.94,126.2-451.65,1-164-162-326.29-325.79-489.33-488.8-34.7-34.71-68.23-70.7-104.37-103.84-81.64-74.87-45.8-189.08,34.53-218C244.55,3045,245.83,3043.31,251.89,3038.44Zm1220,396.44c.46-47.88-12.62-91.91-37.7-132.33-34-54.85-67.58-110.05-103.13-163.92-75.71-114.73-144.75-232.34-174.73-368.75-2.06-9.36-9.1-18.68-16.13-25.69-17.46-17.41-45.08-20.52-66.39-9.24-22.92,12.12-36.18,34.82-29.8,61.51,11.07,46.33,23.88,92.4,38.75,137.65,19.76,60.09,47.8,115.69,99.22,156.08a56,56,0,0,1,11.7,12.78c9.76,14.59,7.47,32.92-4.93,44-12.93,11.58-30.26,12.25-44.33,1.39-4.06-3.13-7.62-7-11.27-10.6L629,2633.79c-29.68-29.67-65.26-32.39-90.42-7s-22.56,59.41,6.79,88.81q195.78,196,391.58,392c17.69,17.73,18.81,38.32,3.84,52.72-15.42,14.82-34.6,13-52.87-5.08-16.5-16.38-32.87-32.89-49.3-49.33q-211.57-211.64-423.2-423.2c-27.91-27.87-63-29.07-87.63-3.94-23.65,24.1-22,59.57,4.57,86.15q183.41,183.75,367,367.3,52.73,52.77,105.4,105.57c18.4,18.52,19.81,39.07,4.12,54.15-14.74,14.17-34.07,12-52.85-6.09-2.79-2.68-5.55-5.41-8.29-8.15q-102-102.08-204.08-204.17c-63.92-63.93-127.66-128.06-191.89-191.69-34.53-34.21-85.73-23.55-99.79,20.35-8.82,27.54,2.62,48.43,21.88,67.56Q414.06,3109.06,553.6,3249q61.67,61.65,123.11,123.52c14.76,14.93,15.59,35.13,3.06,48.59-13.59,14.6-33.62,15-50.12.79-3.42-2.94-6.58-6.19-9.77-9.39Q477.44,3270,335,3127.46c-26.83-26.83-61.86-29.18-86-5.89-25.32,24.36-24.44,60.18,2.56,87.67,21.72,22.11,43.88,43.79,65.8,65.72q265,265.17,530.12,530.19c100.58,100,255,101.32,355.68,3.64,67.2-65.21,133.17-131.72,198.59-198.71C1449,3561.71,1471.5,3502.47,1471.91,3434.88Z"/><path d="M1172.83,2352.06c243,14.19,448.12,177.84,504.49,406,9.67,39.12,12.17,80.19,15.79,120.56,2.21,24.73-12.44,40.42-33.52,41.22-21.68.82-36.52-14.9-36.77-40.54C1620.48,2643.07,1433,2454,1205.55,2427c-19.18-2.28-38.56-3-57.87-3.87-24-1.15-40.16-15.27-40.27-35.74s15.95-34.69,40.27-35.33C1156.06,2351.87,1164.44,2352.06,1172.83,2352.06Z"/><path d="M508,4045.21c-211.6-8.74-402.91-153.17-475-358.52A588.68,588.68,0,0,1,0,3506.6c-.79-28.88,11.93-46.44,34.32-47,22.12-.6,36.12,16.63,36.6,45.06C74.48,3712,205.54,3893.72,398.8,3953.69c41.87,13,87.19,15.53,131.16,20.92,29.72,3.64,47.74,29.07,32.62,52.36-5.49,8.47-17.52,14.07-27.73,17.67C526.81,4047.47,517,4045.21,508,4045.21Z"/><path d="M1163,2528.32c170.08,5,315.92,121.92,351.62,282.9,4.7,21.23,6,43.44,6.7,65.27.73,22-13.81,36.46-33.76,36.79-20.23.33-35.7-13.54-35.69-35.14,0-143.91-122.75-271.75-293.3-279.86-6.44-.3-13,.27-19.32-.81-17.76-3-29.53-17.92-29-35.71.58-18,13.09-31.52,31.42-33.31C1148.72,2527.76,1155.88,2528.33,1163,2528.32Z"/><path d="M176.16,3514.31c-1.2-34.95,9.73-51.48,34.3-51.88,23.55-.38,34.54,14.72,35.71,49.07,4.48,132,91,248.77,210.12,281.81,21.52,6,44.3,8,66.66,10.14,23.64,2.21,37.95,14.3,38.09,35.12.15,21.51-14.94,35.87-39.45,35-133.89-4.55-230.39-70.45-296.46-183.92C193.72,3635.75,178.24,3575.21,176.16,3514.31Z"/><path d="M0,15H123V369h418.8V15h123V855h-123V487.2H123V855H0Z"/><path d="M988.8,15h547.81V127.2h-426V368.4h357.61V483H1110.6V741.61H1554V855H988.8Z"/><path d="M1834.8,15h123V738.61h411.61V855H1834.8Z"/><path d="M2605.8,15h123V738.61h411.61V855H2605.8Z"/><path d="M3202.82,434.4c0-240,192-434.4,427.2-434.4s427.2,195.6,427.2,434.4c0,241.21-192,435.61-427.2,435.61S3202.82,676.21,3202.82,434.4Zm728.4,0c0-175.2-132.6-315-301.2-315s-301.2,141-301.2,315c0,175.81,132.6,316.21,301.2,316.21S3931.22,609,3931.22,434.4Z"/><path d="M0,1185H123v354h418.8V1185h123v840h-123v-367.8H123V2025H0Z"/><path d="M946.8,1604.4c0-240,192-434.4,427.21-434.4s427.2,195.6,427.2,434.4c0,241.21-192,435.61-427.2,435.61S946.8,1846.21,946.8,1604.4Zm728.41,0c0-175.2-132.6-315-301.2-315s-301.21,141-301.21,315c0,175.81,132.61,316.21,301.21,316.21S1675.21,1779,1675.21,1604.4Z"/><path d="M1935.62,1185h132.6l201.6,674.41,208.8-675h144.6L2832,1858.21,3033.63,1185h132.6l-270,840H2769.62l-219-680.41-219,680.41h-126Z"/><path d="M3596.41,1302h-259.2V1185H3978v117H3719.41v723h-123Z"/><path d="M4254.61,1185h123v354h418.8V1185h123v840h-123v-367.8h-418.8V2025h-123Z"/></svg>