<svg xmlns="http://www.w3.org/2000/svg" viewBox="0 0 3340.67 3486.88"><path d="M2413.54,900.24q0-12-.37-23.83V865.23h-.42C2395,463.35,2072.87,143.14,1678.1,143.14S961.22,463.35,943.45,865.23h-1.14V2449.42H2413.17V924.06Q2413.53,912.2,2413.54,900.24Z" style="fill:none;stroke:#000;stroke-miterlimit:10;stroke-width:40px"/><path d="M1446.08,3050.63q0,4,.12,8v3.76h.13c5.64,135.19,108,242.91,233.47,242.91s227.82-107.72,233.47-242.91h.36V2529.49H1446.2v513.12Q1446.08,3046.6,1446.08,3050.63Z" style="fill:none;stroke:#000;stroke-miterlimit:10;stroke-width:40px"/><line x1="1446.2" y1="2686.14" x2="1596.17" y2="2536.17" style="fill:none;stroke:#000;stroke-miterlimit:10;stroke-width:30px"/><line x1="1446.2" y1="2801.96" x2="1719.34" y2="2528.82" style="fill:none;stroke:#000;stroke-miterlimit:10;stroke-width:30px"/><line x1="1446.2" y1="2908.82" x2="1826.2" y2="2528.82" style="fill:none;stroke:#000;stroke-miterlimit:10;stroke-width:30px"/><line x1="1439.52" y1="3035.93" x2="1913.63" y2="2561.82" style="fill:none;stroke:#000;stroke-miterlimit:10;stroke-width:30px"/><line x1="1448.08" y1="3148.5" x2="1922.19" y2="2674.39" style="fill:none;stroke:#000;stroke-miterlimit:10;stroke-width:30px"/><line x1="1503.39" y1="3217.68" x2="1922.19" y2="2798.88" style="fill:none;stroke:#000;stroke-miterlimit:10;stroke-width:30px"/><line x1="1561.81" y1="3282.69" x2="1913.63" y2="2930.86" style="fill:none;stroke:#000;stroke-miterlimit:10;stroke-width:30px"/><line x1="1654.85" y1="3308.9" x2="1916.2" y2="3047.56" style="fill:none;stroke:#000;stroke-miterlimit:10;stroke-width:30px"/><polyline points="10 237.53 10 10 237.53 10" style="fill:none;stroke:#000;stroke-linecap:round;stroke-linejoin:round;stroke-width:20px"/><polyline points="3330.67 238.41 3330.67 10.89 3103.14 10.89" style="fill:none;stroke:#000;stroke-linecap:round;stroke-linejoin:round;stroke-width:20px"/><polyline points="238.04 3474.87 10.51 3474.87 10.51 3247.34" style="fill:none;stroke:#000;stroke-linecap:round;stroke-linejoin:round;stroke-width:20px"/><polyline points="3330.67 3249.35 3330.67 3476.88 3103.14 3476.88" style="fill:none;stroke:#000;stroke-linecap:round;stroke-linejoin:round;stroke-width:20px"/><path d="M1390.74,687.62V664.28h23c.77,2.74.8,20.38,0,23.34Z"/><path d="M1546.76,731.79h-23.32V708.86c2.63-.76,20.2-.81,23.32,0Z"/><path d="M1390.71,731.76V708.54h23.54c0,7.75,0,15.37,0,23.22Z"/><path d="M1390.75,776V752.83H1414V776Z"/><path d="M1414.08,797.09v23.12h-23.29V797.09Z"/><path d="M1369.78,885.55v23.17H1346.4c-.12-7.73,0-15.34-.05-23.17Z"/><path d="M1458.33,974v23.22c-7.75.13-15.37,0-22.92.06-.77-2.52-1-18.5-.31-23.28Z"/><path d="M1435,885.52h23.31v23.13c-7.7.45-15.4.07-23.31.22Z"/><path d="M1458.28,776H1435V753.3c2.32-.88,19.44-1.08,23.3-.23Z"/><path d="M1302.34,664.24h23.13v23.28h-23.13Z"/><path d="M1502.54,929.82v23h-23.37v-23Z"/><path d="M1479.17,864.61V841.18c7.8-.17,15.49-.08,23.37-.07v23.5C1494.75,864.65,1487.05,864.65,1479.17,864.61Z"/><path d="M1502.55,752.65V776h-23c-.66-2.35-.81-18.93-.12-23.26C1486.93,752.47,1494.55,752.57,1502.55,752.65Z"/><path d="M1546.37,997.17h-22.56c-.74-2.43-.91-18.56-.26-23.16h22.85C1547.15,976.6,1547.17,994.33,1546.37,997.17Z"/><path d="M1546.77,752.65V776h-23c-.66-2.33-.81-18.91-.13-23.25C1531.15,752.46,1538.76,752.58,1546.77,752.65Z"/><path d="M1237.06,731.81H1213.9V708.53h23.16Z"/><path d="M1567.66,996.92V974h23.28v22.7C1588.74,997.44,1572.09,997.66,1567.66,996.92Z"/><path d="M1567.62,953.07V929.61c7.73-.11,15.35-.05,22.91,0,.76,2.47,1,18.26.29,23.39C1583.27,953.18,1575.65,953,1567.62,953.07Z"/><path d="M1590.92,864.43h-23.25V841.31h23.25Z"/><path d="M1591,797.08v23.13h-23.29V797.08Z"/><path d="M1567.68,752.63c7.76-.09,15.37-.07,23.23,0V776h-23.23Z"/><path d="M1169.61,731.78v-23.3c7.73-.37,15.35-.13,23.18-.18v23.48Z"/><path d="M1611.91,997.07V973.91h22.9c.7,2.48.84,19,.17,23.16Z"/><path d="M1612.08,885.49h23.05v22.77c-2.25.73-16.52,1-22.81.38C1611.54,906.37,1611.33,890.07,1612.08,885.49Z"/><path d="M1611.92,864.42v-23.1h23.21v23.1Z"/><path d="M1036.94,731.74V708.55h23.19v23.19Z"/><path d="M1700.48,687.52V664.07c7.7,0,15.3,0,23.11,0v23.46Z"/><path d="M1081.26,708.52h23.14v22.9c-2.41.7-18.9.85-23.14.19Z"/><path d="M1369.57,776h-23V752.82h22.69C1370.18,755,1370.44,771.7,1369.57,776Z"/><path d="M1679.58,731.81h-22.93c-.87-2.54-1-19.93-.13-23.32h22.93C1679.73,716.18,1679.53,723.79,1679.58,731.81Z"/><path d="M1148.6,885.34v23.29h-22.75c-.75-2.24-1-17-.31-23.19C1133.07,885.21,1140.67,885.37,1148.6,885.34Z"/><path d="M1125.45,929.72h23.29c0,7.69,0,15.29,0,23.12h-23.3Z"/><path d="M1125.41,997V974h23.15v22.68C1146.31,997.44,1131.05,997.68,1125.41,997Z"/><path d="M1723.49,776h-23V752.81h22.78C1723.92,755.19,1724.11,771.19,1723.49,776Z"/><path d="M1723.69,796.84v23c-2.31.75-17.41,1-22.84.37-.76-2.36-.95-18.64-.21-23.13C1708.17,796.62,1715.77,797,1723.69,796.84Z"/><path d="M1081.21,775.86v-23.2c7.77-.13,15.36-.14,23.15,0v23C1102,776.32,1086,776.51,1081.21,775.86Z"/><path d="M1081.19,820.22V797.06c7.72-.46,15.32-.1,23.14-.22v23.38Z"/><path d="M1104.36,841.12v23.32h-22.74c-.73-2.32-.94-18.2-.26-23.17C1088.9,840.91,1096.5,841.14,1104.36,841.12Z"/><path d="M1104.36,885.34v23.32h-22.74c-.73-2.31-.95-18.16-.26-23.19C1088.9,885.19,1096.5,885.37,1104.36,885.34Z"/><path d="M1723.61,908.69h-23.24c-.29-7.71-.08-15.3-.13-23.13h23.37Z"/><path d="M1081.22,952.85V930.12c2.37-.69,18.33-.88,23.09-.25v23Z"/><path d="M1081.2,997.28V974H1104c.71,2.22,1,17.17.3,23.17C1096.73,997.46,1089.13,997.25,1081.2,997.28Z"/><path d="M1656.39,752.77h23V776h-22.7C1655.83,773.68,1655.59,757.56,1656.39,752.77Z"/><path d="M1679.42,841.14v23.28H1656.2V841.21C1663.86,841,1671.47,841.11,1679.42,841.14Z"/><path d="M1679.39,885.56v22.72c-2.36.69-18.28.88-22.83.28-.74-2.46-.88-19.22-.14-23Z"/><path d="M1656.21,997.11V974H1679c.67,2.35.85,18.52.18,23.28C1671.6,997.29,1663.91,997.47,1656.21,997.11Z"/><path d="M1148.56,820.24h-23.13c-.36-7.67-.12-15.27-.17-23.34,7.91-.1,15.5,0,23.3,0Z"/><path d="M1037,775.64V752.83h22.76c.71,2.3.94,17.52.35,22.85C1057.34,776.42,1039.65,776.41,1037,775.64Z"/><path d="M1125.44,775.85v-23h23.21c.24,7.61.06,15.22.11,22.77C1146.21,776.32,1130,776.49,1125.44,775.85Z"/><path d="M1192.74,908.75H1170.1c-.77-2.33-1-17.14-.4-22.85,2.34-.7,18.43-.89,23-.23Z"/><path d="M1169.77,752.77h23V776h-22.67C1169.33,773.76,1169.09,758.72,1169.77,752.77Z"/><path d="M1237,929.9v23h-22.76c-.72-2.22-1-17-.36-22.75C1216.26,929.43,1232.4,929.26,1237,929.9Z"/><path d="M1237.05,841.09v23.33h-23.18V841.3C1221.49,840.86,1229.09,841.18,1237.05,841.09Z"/><path d="M1213.93,797.08H1237v22.79c-2.36.67-18.34.85-23.09.23Z"/><path d="M1281.4,864.45h-23.31V841.28c7.62-.4,15.22-.11,23.26-.18C1281.56,849,1281.48,856.6,1281.4,864.45Z"/><path d="M1037,820.1V797.42c2.77-.72,19.7-.81,23.17-.12v22.55C1057.87,820.55,1042.33,820.76,1037,820.1Z"/><path d="M1257.91,797h23.52c.06,7.77.09,15.37,0,23.18H1258C1257.81,812.65,1257.94,805.05,1257.91,797Z"/><path d="M1258.11,776V752.8h23.14c.45,7.69.17,15.3.17,23.16Z"/><path d="M1302.23,952.82V930.2c2.33-.78,17.32-1,22.85-.4.78,2.31,1,18.51.26,23Z"/><path d="M1325.51,841.32v23.29c-7.68,0-15.29,0-23.15,0v-23.3Z"/><path d="M1325.52,752.8V776h-23.18V752.8Z"/><path d="M1060.1,864.43H1037V841.7c2.41-.74,18.66-.93,23.12-.26Z"/><path d="M1037,952.75v-23h23.18c0,7.65,0,15.17,0,22.69C1057.84,953.2,1042.28,953.42,1037,952.75Z"/><path d="M1036.89,997.05V974.39c2.39-.75,17.38-1,23.37-.34.15,7.55,0,15.15.06,23Z"/><path d="M2086,651.31h23.34v23c-2.74.78-20.39.8-23.34,0Z"/><path d="M2041.8,807.34V784h22.93c.76,2.62.81,20.19,0,23.32Z"/><path d="M2041.84,651.28h23.22v23.54c-7.75,0-15.38,0-23.22,0Z"/><path d="M1997.6,651.32h23.17V674.6H1997.6Z"/><path d="M1976.51,674.65h-23.13V651.37h23.13Z"/><path d="M1888.05,630.35h-23.17V607c7.72-.13,15.34-.05,23.17-.06Z"/><path d="M1799.57,718.91h-23.21c-.14-7.75,0-15.37-.06-22.92,2.52-.78,18.49-1,23.27-.32Z"/><path d="M1888.08,695.55v23.32H1865c-.45-7.71-.07-15.41-.22-23.32Z"/><path d="M1997.58,718.86V695.55h22.72c.88,2.33,1.07,19.44.23,23.31Z"/><path d="M2109.35,562.91V586h-23.28V562.91Z"/><path d="M1843.78,763.12h-23V739.74h23Z"/><path d="M1909,739.74h23.44c.16,7.8.08,15.49.06,23.37H1909C1909,755.33,1909,747.63,1909,739.74Z"/><path d="M2020.94,763.13h-23.31v-23c2.35-.67,18.94-.81,23.26-.13C2021.13,747.51,2021,755.12,2020.94,763.13Z"/><path d="M1776.42,807V784.38c2.43-.73,18.57-.91,23.16-.26V807C1797,807.72,1779.27,807.74,1776.42,807Z"/><path d="M2021,807.34h-23.31v-23c2.33-.66,18.91-.81,23.25-.12C2021.14,791.72,2021,799.33,2021,807.34Z"/><path d="M1776.68,828.24h23v23.27h-22.7C1776.16,849.31,1775.93,832.66,1776.68,828.24Z"/><path d="M1820.53,828.19H1844c.12,7.74,0,15.35,0,22.91-2.48.76-18.27,1-23.4.29C1820.42,843.84,1820.57,836.23,1820.53,828.19Z"/><path d="M1909.16,851.5V828.25h23.12V851.5Z"/><path d="M1976.51,851.55h-23.13v-23.3h23.13Z"/><path d="M2021,828.26c.1,7.75.08,15.37,0,23.23h-23.36V828.26Z"/><path d="M1776.53,872.49h23.15v22.9c-2.48.69-19,.83-23.15.17Z"/><path d="M1888.11,872.66v23.05h-22.77c-.74-2.25-1-16.53-.38-22.82C1867.23,872.11,1883.53,871.9,1888.11,872.66Z"/><path d="M1909.17,872.49h23.11v23.22h-23.11Z"/><path d="M2086.07,961.05h23.46c0,7.7,0,15.3,0,23.12h-23.47Z"/><path d="M1997.57,630.14v-23h23.2v22.69C2018.61,630.76,2001.89,631,1997.57,630.14Z"/><path d="M2041.79,940.15V917.23c2.53-.88,19.92-1,23.31-.14V940C2057.41,940.31,2049.81,940.11,2041.79,940.15Z"/><path d="M1997.58,984.06v-23h23.21v22.77C2018.41,984.5,2002.4,984.68,1997.58,984.06Z"/><path d="M1976.75,984.27h-23c-.76-2.31-1-17.41-.37-22.85,2.35-.76,18.64-.95,23.12-.21C1977,968.75,1976.65,976.35,1976.75,984.27Z"/><path d="M1864.91,984.18V960.94c7.7-.29,15.3-.08,23.12-.13v23.37Z"/><path d="M2020.83,917v23H1997.6v-22.7C1999.92,916.4,2016,916.17,2020.83,917Z"/><path d="M1932.45,940h-23.27V916.77h23.21C1932.62,924.43,1932.49,932,1932.45,940Z"/><path d="M1888,940h-22.72c-.69-2.37-.88-18.29-.28-22.84,2.47-.74,19.23-.87,23-.13Z"/><path d="M1776.48,916.78h23.15v22.83c-2.34.68-18.51.85-23.27.19C1776.3,932.17,1776.13,924.49,1776.48,916.78Z"/><path d="M1909.15,542v-23.3h23.16c.41,7.62.12,15.22.19,23.25C1924.6,542.14,1917,542.05,1909.15,542Z"/><path d="M1976.57,518.49V542c-7.78.07-15.37.1-23.18,0v-23.4C1960.94,518.38,1968.55,518.51,1976.57,518.49Z"/><path d="M1997.64,518.68h23.16v23.14c-7.7.45-15.31.17-23.16.17Z"/><path d="M1820.78,562.8h22.61c.79,2.33,1,17.33.4,22.86-2.31.78-18.51,1-23,.26Z"/><path d="M1932.28,586.08H1909c0-7.68,0-15.29,0-23.14h23.3Z"/><path d="M2020.79,586.1h-23.15V562.91h23.15Z"/><path d="M1867.28,474v23.46c-7.69,0-15.3,0-23.11,0V474Z"/><path d="M1888.19,429.69h22.92c.87,2.53,1,19.92.13,23.31h-22.93C1888,445.31,1888.23,437.7,1888.19,429.69Z"/><path d="M1844.27,385.48h23v23.2h-22.77C1843.84,406.3,1843.65,390.3,1844.27,385.48Z"/><path d="M1844.07,364.65v-23c2.31-.75,17.41-1,22.85-.37.75,2.36.94,18.65.2,23.13C1859.59,364.87,1852,364.54,1844.07,364.65Z"/><path d="M1911.37,408.72h-23V385.49h22.7C1911.94,387.82,1912.17,403.94,1911.37,408.72Z"/><path d="M1481.78,510.18h-23.34v-23c2.74-.77,20.39-.8,23.34,0Z"/><path d="M1526,354.16v23.32H1503c-.76-2.63-.81-20.2,0-23.32Z"/><path d="M1525.92,510.21H1502.7V486.67c7.76,0,15.38,0,23.22,0Z"/><path d="M1570.16,510.17H1547V486.9h23.16Z"/><path d="M1591.25,486.84h23.13v23.29h-23.13Z"/><path d="M1679.71,531.14h23.17v23.38c-7.72.12-15.33,0-23.17.05Z"/><path d="M1768.19,442.59h23.21c.14,7.75,0,15.37.06,22.92-2.52.77-18.49,1-23.27.31Z"/><path d="M1679.68,465.94V442.63h23.13c.46,7.7.08,15.4.22,23.31Z"/><path d="M1570.18,442.63v23.31h-22.72c-.88-2.32-1.07-19.44-.22-23.31Z"/><path d="M1458.41,598.58V575.45h23.28v23.13Z"/><path d="M1724,398.38h23v23.37h-23Z"/><path d="M1658.78,421.75h-23.44c-.16-7.8-.07-15.49-.06-23.37h23.5C1658.82,406.17,1658.81,413.87,1658.78,421.75Z"/><path d="M1546.82,398.36h23.31v23c-2.35.66-18.94.8-23.26.12C1546.63,414,1546.74,406.37,1546.82,398.36Z"/><path d="M1791.34,354.55v22.56c-2.43.74-18.57.91-23.16.26V354.52C1770.76,353.77,1788.49,353.75,1791.34,354.55Z"/><path d="M1546.82,354.15h23.3v23c-2.33.66-18.9.81-23.25.13C1546.62,369.77,1546.74,362.16,1546.82,354.15Z"/><path d="M1570.2,531.35v23H1547V531.67C1549.15,530.74,1565.87,530.48,1570.2,531.35Z"/><path d="M1658.61,619.52v23.31h-23.16c-.41-7.63-.12-15.22-.19-23.26C1643.17,619.36,1650.76,619.44,1658.61,619.52Z"/><path d="M1591.19,643V619.49c7.78-.06,15.38-.09,23.18,0v23.41C1606.82,643.11,1599.21,643,1591.19,643Z"/><path d="M1570.12,642.81H1547V619.67c7.7-.45,15.31-.17,23.16-.17Z"/><path d="M1747,598.69h-22.62c-.79-2.33-1-17.32-.4-22.85,2.31-.78,18.51-1,23-.26Z"/><path d="M1635.49,575.41h23.29c0,7.68,0,15.29,0,23.15h-23.29Z"/><path d="M1547,575.4h23.15v23.18H1547Z"/><path d="M2263.27,850.23h23.34v23c-2.74.78-20.39.8-23.34,0Z"/><path d="M2219.13,850.2h23.22v23.55c-7.75,0-15.37,0-23.22,0Z"/><path d="M2174.89,850.24h23.17v23.28h-23.17Z"/><path d="M2286.65,761.83V785h-23.28V761.83Z"/><path d="M2219.07,696.56V673.4h23.29v23.16Z"/><path d="M2219.1,629.11h23.31c.37,7.72.12,15.35.17,23.17H2219.1Z"/><path d="M2174.86,829.06v-23h23.2v22.69C2195.9,829.68,2179.18,829.94,2174.86,829.06Z"/><path d="M2198.11,629.27v23h-23.2V629.57C2177.13,628.83,2192.17,628.59,2198.11,629.27Z"/><path d="M2174.93,717.61h23.16v23.14c-7.7.44-15.31.17-23.16.16Z"/><path d="M2198.08,785h-23.15V761.83h23.15Z"/><path d="M1235.31,508.25V484.91h23c.77,2.74.8,20.39,0,23.34Z"/><path d="M1235.28,552.39V529.17h23.54c0,7.75,0,15.37,0,23.22Z"/><path d="M1235.32,596.63V573.46h23.27v23.17Z"/><path d="M1258.65,617.72v23.13h-23.28V617.72Z"/><path d="M1302.86,596.65h-23.31V573.93c2.33-.88,19.44-1.08,23.31-.23Z"/><path d="M1214.14,596.66h-23v-23.2h22.69C1214.75,575.62,1215,592.34,1214.14,596.66Z"/><path d="M1303,419.22V396.08h23.28v23.14Z"/><path d="M2359.1,2377.52H996.76V1015.18H2359.1ZM2008.48,1059.57c-.75,4.59-.52,304.74.21,307.09h306.66V1059.57Zm-660,.18a4.76,4.76,0,0,0-1.13-.34q-151.66,0-303.33,0a16.44,16.44,0,0,0-2,.2c-.1,0-.19.11-.27.18a1.09,1.09,0,0,0-.18.22v306.71h306.88Zm-306.74,966.64c-.72,5.09-.48,304.71.19,307h306.41c.72-4.95.47-304.59-.24-307Zm878.7,131.24c7.36.68,216.57.38,219-.29V1938.62h-219ZM1139.53,1509.1v23.21h23.34c-.11-7.87.21-15.53-.22-23.21Zm726.24,23.28v-23.23h-22.9c-.73,3.67-.6,20.8.16,23.23Zm.07,679.95h-23.2v23.33c7.88-.08,15.53.21,23.2-.19Zm-747.15-723.89V1465.2h-23.35c.09,7.84-.17,15.49.19,23.24Zm791,0v-23.19h-23.36c.17,7.86-.25,15.51.25,23.19ZM1822,1576.26c0-7.94.24-15.51-.13-23.15h-23.2v23.15Zm87.72.07v-23c-3.79-.76-20.83-.61-23.33.22,0,7.51-.24,15.09.15,22.78ZM1865.8,2168.2c-8,0-15.53-.11-23.14,0v23.3h23.14Zm20.75-87.72v22.82c3.16.77,20.61.71,23.14,0v-22.79Zm-20.76,23.1v-23.29c-7.84.06-15.49-.19-23.36.18.07,7.93-.21,15.48.17,23.11Zm-111.07,0h23.16v-23.07h-23.16ZM1734,2124.49c-5.37-.6-20.8-.39-23.35.33,0,7.51-.06,15.1,0,23,8-.15,15.62.21,23.31-.24Zm20.76-.14v23.44c7.83-.1,15.47.23,23.41-.22-.14-8,.18-15.52-.21-23.22Zm67.08,23.2v-23.13h-23.14v23.13Zm87.89.09V2124.4h-23.35c.1,7.83-.25,15.47.21,23.24Zm-131.83,43.94v-23.24H1755c-.69,3.7-.57,20.74.16,23.24Zm196.64-23.26v23.17h23.06v-23.17Zm-196.55,44h-23.4c0,7.87-.11,15.52.08,23.11,6.34.62,20.87.38,23.32-.36Zm87.83-548.18v-23.31c-7.84,0-15.49-.16-23.31.1-.11,8-.06,15.59-.06,23.21Zm-67.16,0h23.2v-23.32c-7.87.14-15.51-.24-23.2.24Zm-592-23.29c-7.79,0-15.44,0-23.22,0v23.52c7.86-.07,15.5.19,23.22-.18Zm791-219.55h-22.86c-.8,3.46-.67,20.79.14,23.16,5.53.63,20.47.37,22.72-.4Zm0,175.79h-22.82c-.82,3.62-.68,20.81.15,23.16h22.67Zm-43.86-.2c-8,0-15.51,0-23.2,0V1620c4,.71,20.86.55,23.2-.19Zm-111.09.14v23.4c7.86,0,15.51.17,23.35-.15-.08-8,.22-15.55-.19-23.25Zm-20.73.09h-23.22v23.33c7.84-.09,15.49.18,23.22-.19Zm-550.57,0v23.16h23.11V1597Zm-20.87,23.22v-23.18h-23.31c.07,7.88-.21,15.52.2,23.18ZM1118.7,1596.8c-7.93.13-15.5-.19-23.14.21v23.21h23.14Zm-67.26.25c0,7.87-.12,15.51.08,23.2H1075c0-7.79.08-15.43-.08-23.2Zm946.23-44.18c-7.94.07-15.51-.16-23.14.16v23.42c7.85,0,15.43,0,23.14,0Zm-44.05,23.42v-23.17h-22.88c-.79,4.11-.59,21,.24,23.17Zm-23.16,659.16h23.41c-.08-7.86.18-15.5-.19-23.1-5.71-.62-20.78-.4-23.22.35Zm-219.59,20.75v23.16h22.86c.8-4.27.59-20.89-.26-23.16Zm0-679.93h22.83c.77-3.25.69-20.65-.07-23.15h-22.76Zm-416.35-23.38c-7.93.06-15.48-.21-23.11.17v23.19h23.11Zm-175.61,23.41c.09-8,.13-15.53,0-23.2h-23.12c-.7,4.1-.53,20.89.21,23.2Zm855.66-44h23V1509.2h-23Zm-219.8,790.61c2.21.76,18.46,1,22.93.32.72-3,.65-20.44-.11-23h-22.82Zm67.11-790.51v-23c-4-.74-20.91-.56-23.16.2-.54,6.14-.32,20.36.39,22.83Zm-23.1,767.81v23.12h23.13V2300.2Zm-703-791.09c-.71,4.06-.55,20.91.17,23.2,5.41.57,20.39.34,22.74-.35v-22.85Zm-43.7,0c-.84,2.31-.93,20.15,0,23.38,7.49-.06,15,.18,22.71-.16v-23.22Zm922.19-44c.12,7.94-.21,15.61.21,23.28h23.32c0-7.87.18-15.53-.15-23.28ZM1866,2323.32c-.06-7.88.18-15.44-.16-23.12h-23.22v23.12Zm-23.41-834.72c8,0,15.53.08,23.21-.09V1465c-7.87.06-15.52-.14-23.21.14Zm-548.17-.19v-23.17h-22.86c-.81,4.25-.6,20.92.25,23.17Zm527.43-43.92v-23c-4.1-.69-20.87-.52-23.35.26,0,7.49-.09,15,.07,22.76Zm-615.21-23.16h-23.18v23.34c7.88-.18,15.52.27,23.18-.27Zm43.88,67.11v-23.23h-23.36c.12,7.84-.25,15.49.23,23.23Zm-67.3-23.24c0,8-.06,15.53.06,23.15h23.32V1465.2Zm594.7-20.73v-23.35c-7.85,0-15.5-.15-23.31.08,0,8-.19,15.56.1,23.27Zm-43.75-.06c-.08-8,.21-15.55-.19-23.08-6.17-.61-20.86-.38-23.2.34v22.74Zm196.42,855.77c-.64,5.77-.4,20.85.29,23.1h22.78v-23.1Zm-878.91-879v23.42c7.83,0,15.4.08,23.21-.06.12-8.07.18-15.65,0-23.36Zm0,219.83v23H1075c0-7.82.07-15.39,0-23Zm1054.77-219.79v23.15h22.94v-23.15Zm110.81,23.2v-23.14H2194.3v23.14Zm20.9-.21c4,.67,20.61.53,23-.14v-22.65c-4.05-.62-20.51-.49-23,.17Zm66.95.23v-23c-4.28-.63-20.55-.48-22.91.17v22.86Zm-615,0c0-7.88.13-15.44-.1-23.13H1666.9v23.13Zm-67.38-23.19c.08,8-.19,15.54.17,23.19h22.72c.8-3.34.7-20.63-.11-23.19Zm-307.09,0c-.86,3.34-.76,20.61.2,23.37,7.44-.1,15,.25,22.71-.23,0-8,.05-15.53,0-23.14Zm702.82,902.05h23.06v-23.13h-23.06Zm-592.22-858.08h-23v23.12h23Zm20.75-.06c0,8-.06,15.55,0,23,4.93.69,20.85.5,23.08-.19v-22.85Zm88,23c4.41.66,20.68.5,23-.17v-22.68c-4.24-.63-20.56-.49-23,.2Zm131.87-23v23.15h23v-23.15Zm-108.77-87.71c-4.61-.67-20.74-.49-23.06.21v22.73h23.06Zm372.41-44.12v22.81c4,.83,20.85.63,23.13-.24v-22.57Zm-64.71,23v-23.21c-7.85.06-15.5-.17-23.19.16v23Zm219.84,132c-.06-7.86.19-15.51-.17-23.18h-22.76c-.78,3.71-.63,20.77.18,23.18Zm20.86-23.21c-.61,5-.41,20.73.24,23.11,4.43.62,20.36.44,22.6-.26v-22.85Zm87.78,23.22h23.16c0-7.85.16-15.5-.12-23.19h-23Zm66.91,0v-23.16h-23v23.16Zm-506.46-132.29c3.28.84,20.57.75,23.36-.16-.06-7.45.24-15-.19-22.73-8,0-15.54-.09-23.17.08ZM1646,2300c-8,0-15.5-.13-23,.1v23.13c4.71.63,20.61.44,23-.27Zm-43.94.4c-4-.68-20.66-.54-23,.13v22.68c4.31.61,20.54.46,23-.21Zm-263.72-768V1509.3c-4.37-.65-20.59-.48-22.89.2-.65,3.81-.48,20.29.28,22.86Zm152.85-23.25v23.07c4.48.65,20.59.48,22.88-.2v-22.87Zm87.82,23.18h23v-23.11h-23Zm87.86,0h23v-23.13h-23Zm-152.69,768.09c-3.74-.67-20.54-.56-23,.11v22.78h23Zm-87.92-.19h-22.75c-.77,3.64-.62,20.75.18,23.13h22.57Zm504-1010.78c0,7.83-.08,15.39.08,23h23.24v-23ZM2194.21,1532c2.83.79,20.45.77,23,0V1509.3c-4.49-.65-20.59-.49-23,.23Zm-372.52-219.43c.69-4.78.5-20.77-.18-23h-23c0,7.8-.1,15.35.09,23Zm460.46,966.83h23v-23.13h-23ZM1403.31,1553v23.39c7.81,0,15.37.08,22.93,0V1553Zm66.83,23.25v-23.08c-4.71-.65-20.61-.46-22.87.24-.55,4.48-.37,20.3.3,22.84Zm220,0c.05-8,.14-15.53,0-23-4.69-.7-20.86-.52-23.12.16v22.85Zm527.13,679.91h-22.89v23.23h22.89Zm-198.74,23.18h23v-23.13h-23Zm-108.75-1034c-7.82,0-15.47-.06-23.21,0v22.84c3.26.75,20.56.68,23.21-.09Zm-43.92.23H1842.6v22.62c3.18.75,20.49.7,23.23-.07Zm-131.88,23v-23H1711c-.64,3.8-.53,20.48.14,23Zm372.5,307.54c4.73.65,20.66.47,22.9-.21v-22.86h-22.9Zm198.66.17V1552.9c-7.81,0-15.37-.07-22.93,0v23.37Zm-726.27,679.94c.06,7.87-.21,15.53.16,23.15h23v-23.15Zm-87.76,23c4.81.67,20.74.48,23-.2v-23c-7.79,0-15.34-.09-23,.09Zm-20.94.18v-23.23h-22.62c-.74,3.17-.69,20.49.06,23.23Zm483.54-1077.79h-23.13v22.94h23.13ZM1315.29,1620c4.25.66,20.69.52,23.06-.13V1597.2c-4.14-.68-20.57-.51-23.06.25Zm44,.21h22.75c.69-3.54.59-20.66-.12-23.19h-22.63Zm44-23.2v23.14h23V1597Zm44.18,0c-.74,3.58-.61,20.74.15,23.18h22.74c0-7.83.08-15.47,0-23.18Zm43.71,0v23.14h22.93V1597Zm87.82,23.18h23v-23.14h-23Zm66.94-23.35c-7.92.08-15.46-.26-23.18.21,0,8-.09,15.54.08,23.15h23.1Zm21,.22v23.1h23v-23.1Zm242.88-395.4h-23.06c-.65,4.39-.49,20.55.19,22.88h22.87Zm-111.17,22.72c4.33.75,21,.55,23.25-.22v-22.74c-7.87.07-15.52-.19-23.25.18ZM1734,1201.66H1710.8v22.91H1734Zm571.18,1010.6H2282c.09,7.83-.17,15.49.16,23.22h23Zm-263.59-615.21h-23v23.12h23Zm43.92,0h-22.73c-.78,3.56-.64,20.73.16,23.15h22.57Zm219.82,23.16c.12-7.82.17-15.45,0-23.37-8,.06-15.56-.24-23.28.19,0,8,0,15.55,0,23.18Zm-44,592.24c-4.66-.67-20.74-.5-23,.18v22.7c4.66.65,20.6.46,23-.27ZM1953.83,1180.72c.05-7.88,0-15.43,0-23h-23.56c.06,7.79-.1,15.34.12,23ZM1359.33,1664c5.59.66,20.77.44,23.06-.3V1641h-23.06Zm43.88.29c7.93,0,15.48.1,23-.07v-23.43c-7.78,0-15.33-.11-23,.06Zm44-.37c4,.65,20.56.51,23-.17V1641h-23Zm87.85.38c7.77,0,15.34.08,23.15-.08,0-8,.11-15.58-.07-23.25h-23.08ZM1602,1641h-23v23.09h23Zm527.34,594.49v-23.08c-4.68-.66-20.61-.47-23.13.31,0,7.49-.06,15.06,0,22.77Zm-66.85-.19c4.72.67,20.68.48,22.91-.2v-22.85H2062.5Zm-21-571.17V1641h-22.74c-.83,3.48-.69,20.68.17,23.12Zm21-23.16v23.1h22.94V1641Zm43.89,23.17h23V1641h-23Zm43.8-23.17c0,7.93-.15,15.51.12,23.14h23V1641Zm88.07,23c3.92.64,20.51.51,23-.17V1641h-23Zm43.92-23v22.94c3.8.64,20.49.53,22.92-.12.62-4.49.41-20.4-.34-22.82Zm-1207.39,44h-23.12v23h23.12Zm152.61,0v23.21c7.86,0,15.51.16,23.13-.09V1685Zm44,0v23h23.1v-23Zm462.6-592.22V1070c-3.91-.78-20.84-.59-23.12.22v22.56Zm64.92-23.08c-.66,4.53-.5,20.74.16,23h23c0-7.79.09-15.34-.08-23ZM1666.92,2212.25v23.06c4.27.64,20.58.48,23.17-.27.07-7.49.18-15.06-.06-22.79Zm-65,23.25v-23.06c-4.41-.65-20.6-.49-22.89.18v22.88Zm-154.81-.2c4.71.67,20.75.49,23-.19v-22.69c-4.68-.66-20.61-.47-23,.27Zm814-43.74v-23c-4.37-.64-20.59-.49-22.89.17v22.88Zm-439.31-483.49V1685H1798.7v23.06Zm87.86,0v-23h-23.11v23Zm20.84-23v23.22c7.82,0,15.47.18,23.12-.15V1685Zm263.58,483.32c0,7.84-.15,15.49.09,23.2H2217c.71-3.54.59-20.71-.14-23.2Zm-43.84,23c4.62.67,20.71.5,23-.18v-22.69c-4.5-.64-20.59-.47-23,.25Zm-483.4.16h22.77c.85-3.68.68-20.79-.2-23.17h-22.57Zm-21,0v-23.38c-7.81,0-15.37,0-22.93,0v23.39Zm-571.3-439.5c.72-5,.49-20.76-.27-23-4.55-.64-20.3-.42-22.64.3-.61,4.74-.41,20.36.31,22.7Zm20.94-23.08v23.2c7.84,0,15.49.14,23.17-.12V1729Zm66.92,23.09c.66-4.2.52-20.64-.15-23h-23c0,7.82,0,15.38,0,23Zm132-23.08h-22.85c-.82,3.38-.68,20.69.14,23,6.34.55,20.32.32,22.71-.38ZM1602,2191.55v-23.16h-23v23.16Zm-175.75,0v-23c-4-.62-20.5-.5-22.94.15v22.88Zm834.93-43.93v-23.15h-22.92v23.15Zm-615.23-23.08c-5.37-.68-20.76-.46-23.18.34.08,7.5-.19,15.07.17,22.72h23ZM1754.88,1729c-.67,5.29-.46,20.75.33,23.19,7.5-.09,15.07.19,22.72-.18v-23Zm67-.22c-8,0-15.52-.07-23,0-.68,4.31-.55,20.75.11,23.14h22.89Zm43.86,23.2v-23h-23.1v23ZM1579,2147.55h23v-23.1h-23Zm-21-23.09H1535.1v23.09H1558Zm-111-.07c0,7.82-.06,15.46,0,23,5,.72,20.88.52,23.08-.2v-22.82Zm-20.92,23.2c.7-4.71.48-21-.25-23.15h-22.59v23.15Zm-330.39-374.72c-.66,4.58-.5,20.7.16,23h22.7c.65-4.49.48-20.6-.26-23Zm67,.12h-23c-.65,4.48-.49,20.58.18,22.9h22.87Zm43.72,23c.64-4.12.51-20.61-.14-23h-22.8v23Zm88-.06v-23h-23.13v23ZM1734,1113.51c-8,.17-15.6-.24-23.11.24v22.93H1734Zm571.14,990.14V2080.3c-7.8,0-15.35,0-22.93,0v23.34Zm-43.9-23.17h-23v23.13h23Zm-87.9,23.12v-22.94c-4.07-.65-20.54-.52-23,.18v22.76ZM1821.9,1113.78h-23c-.63,4-.5,20.52.14,22.91h22.9Zm20.69,22.91h23.05c.64-4.26.49-20.55-.18-22.91h-22.87ZM1734.12,1796c0-7.85.22-15.41-.14-23h-23.11v23Zm87.76-23h-23.16v23h23.16Zm-747.14,43.93h-23.1v23h23.1Zm64.75,23h23.15v-23h-23.15Zm770.42-703.07c0-7.89,0-15.44,0-23h-23.54c0,7.8,0,15.35,0,23Zm-286.5,943.61c-.78,2.18-1,18.05-.34,23.19h22.61c.79-3.46.66-20.68-.17-23.19Zm-109.23.08h-23v22.91c3.58.69,20.51.58,23-.15Zm-67,23.36c7.9-.15,15.47.24,23-.24.63-6.6.39-20.84-.34-23.09h-22.63Zm351.49-286.95v22.89h23.22V1816.9Zm67.17,0h-23c-.63,4.1-.5,20.51.15,22.9h22.89Zm20.73-.05v23.2c7.85-.13,15.5.19,23.17-.2v-23Zm67.12.29c-3.34-.73-20.55-.65-23.36.16.07,7.45-.26,15,.21,22.74,8-.1,15.52.18,23.15-.18Zm43.92-.28h-23.08v23.18c7.84,0,15.43.08,23.08-.09Zm-594.32,263.59v22.86c3.29.8,20.65.68,23-.14.55-6.06.33-20.32-.36-22.72Zm550.39-966.72h-23.14v23h23.14Zm-43.76,945.9c0-7.94.08-15.49,0-23.07h-23.13c-.66,4-.52,20.56.21,23.07Zm-155.14-23.12v23.08h23.13v-23.08Zm-703.18-152.7h23.15v-23h-23.15Zm43.93-.07h23.38c0-7.78.11-15.34-.06-22.91h-23.32Zm131.82,0h23.14v-22.94h-23.14Zm659.24,108.84v23h23.12v-23ZM1822,2015.69c.16-7.92.08-15.48.08-23h-23.19c-.64,4-.51,20.5.18,23Zm-44-23.06H1754.8v23h23.13Zm108.61-21.26c3.25.77,20.57.69,23.21-.09v-22.77c-7.82,0-15.47-.06-23.21,0Zm-43.74-22.77c-.66,4.34-.51,20.66.16,23h22.66c.64-4.09.51-20.53-.17-23Zm-615.64,0c0,7.9-.11,15.45.09,23h23.12c.63-4.35.48-20.58-.21-23Zm527.58-65.08c3.36.71,20.55.63,23.19-.11v-22.8c-7.83.1-15.47-.19-23.19.19Zm43.93.2h23.21v-22.84h-23.21Zm43.95-22.9v22.73c3.64.71,20.74.58,23.18-.15v-22.58Zm66.94,23c.66-4.53.5-20.68-.17-23h-22.68c-.65,4.41-.49,20.56.23,23Zm-770,64.83v22.94h23.08V1948.7Zm-43.94,0v23h23.09v-23Zm-20.87,23v-23h-23v23Zm-23.2-44h23.23v-22.81c-4.14-.69-20.86-.5-23.23.25Zm44.21-23.07c-.64,4.21-.51,20.61.14,23h23c0-7.79.11-15.35-.06-23Zm66.93.07h-23.15v23h23.15Zm20.75,0v22.72c3.5.73,20.69.62,23.19-.14v-22.58Zm87.94,23h22.91c.66-4,.53-20.55-.15-23h-22.76Zm726.25.08v-23h-23.07v23Zm-67.3-23.11c0,7.87-.1,15.42.1,23h23.21v-23Zm-219.5,0v23h23.13v-23Zm67.14.08H1754.8v22.93h23.14Zm108.63,0v22.8c4.18.74,20.91.54,23.14-.23v-22.57Zm-196.66-527.36h-23v23.06h23Zm44,330.72V1685h-23.08v23.06Zm-23.1,328.44v23.07h22.84c.84-3.62.67-20.8-.18-23.07Zm439.44-108.62c7.69,0,15.31,0,23,0v-23.05c-5-.62-20.61-.42-23,.29Zm67-23.34c-7.86,0-15.41-.07-22.91,0-.66,6.19-.42,20.85.31,23.1h22.6Zm-659.23-723.9v-23h-22.83c-.61,4.45-.44,20.55.22,23Zm724,703.09H2305c.68-4,.53-20.48-.17-22.87-4.8-.61-20.36-.4-22.74.34Zm-219.62,0h23v-23.15c-7.78,0-15.33,0-23,0Zm-20.9-23h-22.82c-.71,3.67-.59,20.36.12,22.84,4.28.61,20.32.43,22.7-.26Zm-351.62,0H1667c-.63,4.72-.44,20.62.24,22.92h22.67Zm-374.43,87.77c-.76,4.82-.52,20.71.31,23h22.56v-23Zm87.74,23.24c7.93-.09,15.48.25,23-.21v-23h-23Zm110.91-23.39c-7.85,0-15.4-.09-22.9.07-.65,5.82-.41,20.85.31,23.1h22.59Zm20.92,23.36c7.87,0,15.42.26,22.91-.17.68-5.79.43-20.79-.32-23h-22.59Zm67-23c-5.11-.63-20.73-.44-23,.24v22.6h23Zm21.06-.13c-.61,4.29-.46,20.57.23,23.18,7.5,0,15.05.21,22.62-.13v-23Zm22.86-87.82h-23v22.84c5,.63,20.62.42,23-.28Zm-87.71,23c0-7.86.07-15.4,0-23.17-8,0-15.59-.14-23.1.09v23.08Zm615,87.9c.65-5.24.44-20.74-.26-23h-22.56v23Zm21,.18c7.9-.1,15.45.23,23-.22v-23h-23Zm66.91-.11V1948.5c-7.8,0-15.35,0-22.85,0-.64,6-.41,20.9.33,23.28Zm-770-791.24c5.17.64,20.71.43,23-.26v-22.57h-23Zm-64.82,812.08h-23v22.8c3.9.71,20.45.57,23-.18Zm64.86,0v23.2c7.74.1,15.28.08,23.15,0,0-8,0-15.57,0-23.22Zm66.79,23.08c.7-5.69.46-20.79-.3-23h-22.52v23Zm87.87,0c.75-5.34.49-20.82-.31-23H1623v23ZM1514.14,1861c-4.41-.63-20.58-.47-22.93.18-.62,5.25-.39,20.38.33,22.63h22.6Zm-154.83,22.8h23v-22.84c-4.64-.62-20.61-.43-23,.25Zm-43.77-23c-.76,4.2-.57,20.57.29,23.18,7.46-.08,15,.22,22.55-.18v-23Zm834.86,131.72v23.33c7.78-.09,15.32.21,23.12-.19-.05-8,.12-15.5-.1-23.14Zm-703.16-834.85v22.93h22.84c.61-4.72.43-20.58-.24-22.93Zm-44.13,0c0,7.85-.23,15.39.13,22.88,5.45.66,20.76.44,23-.27v-22.61Zm23.16,902v-23.05h-23.2c0,7.79-.1,15.36.06,23.05Zm131.83-23c-5.46-.66-20.8-.44-23,.28v22.85c7.75,0,15.29.15,23-.07Zm87.89,0c-5.43-.67-20.82-.45-23,.27v22.41c3.49.75,20.3.64,23-.14Zm416.27-131.94c.06,7.85-.21,15.4.19,23.2,7.94-.06,15.49.17,23-.14v-23.06Zm199-87.71c-4.77-.66-20.69-.47-23,.24v22.57h23Zm-67,22.83h23v-23.16c-7.79,0-15.34-.17-23,.15Zm-20.91,196.82c-5.24-.66-20.74-.45-23,.26v22.85c7.75.08,15.29.1,23,0Zm-.08-196.71V1816.7c-7.79,0-15.34-.1-22.82,0-.69,5.94-.44,20.89.34,23.21Zm-66.74-23.12c-.69,5.11-.46,20.74.28,23h22.55v-23ZM1602,1817c-4.94-.68-20.72-.47-23,.25v22.56h23Zm-111.09-.16c.06,7.88-.1,15.43.11,23h23v-23Zm-43.68,0V1840c7.82,0,15.37.09,22.93-.06v-23.1Zm-87.79,0c-.72,4.46-.52,20.64.23,23,5.44.61,20.39.38,22.6-.35v-22.61Zm219.57-43.9v23.15c7.79,0,15.35.05,22.84,0,.71-5.6.46-20.88-.3-23.14Zm-44,23h23.18c0-7.77.17-15.32-.17-23.19-7.88.08-15.43-.14-23,.13Zm-64.94,0v-23.17c-7.79,0-15.35-.25-22.93.17v23ZM1646,1904.86c-5.66-.66-20.8-.43-23,.27v22.55h23Zm-286.93-131.95c.17,7.9-.27,15.45.25,22.94,6.14.66,20.8.41,23-.31v-22.63Zm-43.55,0c-.78,4.66-.55,20.71.27,23h22.57v-23Zm966.63-21h23.18c0-7.8.27-15.36-.19-22.94h-23Zm-88.05-23c.06,8-.14,15.53.11,23h23v-23Zm-87.9,0c.1,7.92-.18,15.47.17,23h23v-23Zm-43.74,0v23h22.95v-23Zm-395.22,0c-.76,2.69-.76,20.28,0,23,5.49.6,20.41.37,22.69-.36V1729ZM1667,1113.7c-.67,5.64-.44,20.82.28,23h22.84c0-7.75.13-15.3-.06-23Zm-21-.17c-8,.1-15.52-.24-23,.22v22.93h23Zm-44,23.19v-23.16c-7.8,0-15.35-.21-22.85.15-.63,5.39-.42,20.75.26,23Zm-43.88-23.14c-7.89,0-15.44-.18-23,.09v23h23ZM1622.86,1752h23.33c-.15-7.79.25-15.34-.23-22.83-5.22-.75-20.75-.5-23.1.34Zm-64.84.14v-23.31c-7.79,0-15.34-.12-22.81.08-.67,5.65-.45,20.87.3,23.23Zm-131.75-22.9c-3.78-.69-20.44-.56-23.22.22.15,7.46-.26,15,.23,22.59h23ZM2282,1685c0,8-.14,15.58.09,23h23.3c-.1-7.78.2-15.34-.19-23Zm-87.58,0c-.68,5.85-.44,20.84.29,23.06h22.52V1685Zm-703.26-548.07c7.85,0,15.4.09,22.9-.08.65-5.94.41-20.84-.3-23.07h-22.6Zm-43.78-23.2c-.67,4.75-.47,20.69.24,23h22.57v-23Zm-21.15,23v-22.89c-5-.66-20.62-.44-22.94.3v22.59Zm724.11,571.35h23v-23.26c-7.75,0-15.29-.14-23,.08Zm-20.94,0v-22.84c-3.73-.73-20.4-.59-22.85.14-.64,4.24-.45,20.32.28,22.7ZM1447,1904.74c0,7.82-.18,15.37.17,23.15,7.91,0,15.46.16,23-.08v-23.07Zm243.13-196.67c0-7.84.14-15.39-.11-22.86-4.93-.8-20.86-.57-23.15.27v22.59Zm-88.17,0v-22.82c-3.75-.73-20.4-.6-22.87.13-.59,4.54-.41,20.35.27,22.69Zm-43.89-22.87c-4.54-.76-20.67-.54-23,.24-.62,5.62-.37,20.4.36,22.6h22.6Zm-87.92,23v-22.92c-3.8-.72-20.41-.58-23.16.25.1,7.46-.21,15,.19,22.67Zm-131.8-.07V1684.8c-7.78,0-15.34-.13-22.8.09-.82,4.57-.61,20.76.22,23.18ZM1690,1069.63c-7.91-.08-15.46-.06-22.93,0-.67,4.46-.52,20.79.12,23.15,5.42.6,20.42.37,22.81-.39ZM1623,1180.82c7.82,0,15.37,0,23.22,0-.1-8,.26-15.59-.22-23.15h-23Zm67.08-23.09h-23c-.63,4.53-.46,20.59.2,22.9,5.9.61,20.42.35,22.8-.43Zm-154.92,43.88v23.17c7.77,0,15.32.14,22.81-.12.67-4.93.47-20.73-.24-23.05Zm131.76,0v23h22.81c.73-3.48.64-20.25-.12-23Zm-175.26,43.88c-.82,2.3-1,19.44-.19,23H1514c.63-4.73.44-20.6-.26-23Zm110.61,23.1c-.1-7.91.23-15.46-.21-23h-23v23Zm43.58,0c.71-4.65.51-20.7-.24-23-5.86-.62-20.39-.38-22.58.36v22.62Zm-22.71-198.79c-.65,5-.46,20.69.22,23h22.61v-23Zm-44,219.71v23.22c7.8-.11,15.35.25,22.94-.23v-23Zm43.88,23h23.22c-.05-7.8.13-15.34-.1-22.82-5-.66-20.79-.48-23.12.21Zm67,0v-23H1667c-.62,4.35-.46,20.58.2,23Zm-263.47,44c0-8,.14-15.56-.09-23h-23.29c.07,7.77-.16,15.33.14,23Zm87.69-23H1491c0,7.79,0,15.35,0,22.83,5,.77,20.83.54,23.15-.27Zm64.88,22.8c3.93.72,20.48.57,23.2-.25-.12-7.46.28-15-.22-22.58h-23Zm87.9-22.84v23.2c7.77.1,15.32.13,23.24,0,0-8,.16-15.58-.14-23.19Zm-65-240.52V1069.6c-7.81,0-15.35-.15-22.84.1-.66,6-.42,20.87.32,23.18Zm-87.87,0v-23.3c-7.8.07-15.34-.24-22.83.19-.67,5.84-.43,20.79.34,23.11Zm-67-23.14c0,8-.17,15.5.12,23h23v-23Zm-43.79,22.91c5,.64,20.71.45,23-.23v-22.6h-23Zm.18,680.24c-.7,4.84-.49,20.72.26,23h22.56v-23Z" style="fill:#fff"/><path d="M2008.48,1059.57h306.87v307.09H2008.69C2008,1364.31,2007.73,1064.16,2008.48,1059.57ZM2053,1321.91h217.63v-217.6H2053Z"/><path d="M1348.45,1059.75v306.93H1041.57V1060a1.09,1.09,0,0,1,.18-.22c.08-.07.17-.17.27-.18a16.44,16.44,0,0,1,2-.2q151.66,0,303.33,0A4.76,4.76,0,0,1,1348.45,1059.75Zm-262.34,44.54V1321.7a4.54,4.54,0,0,0,1.13.36q106.92,0,213.85.06a22.59,22.59,0,0,0,2.3-.21.54.54,0,0,0,.27-.16,2.84,2.84,0,0,0,.24-.29V1104.29Z"/><path d="M1041.71,2026.39h306.36c.71,2.39,1,302,.24,307H1041.9C1041.23,2331.1,1041,2031.48,1041.71,2026.39Zm44.4,262.2c3.87.79,215.43.61,217.76-.14.66-5.6.37-215-.31-217.38H1086.11Z"/><path d="M1920.41,2157.63v-219h219v218.72C2137,2158,1927.77,2158.31,1920.41,2157.63Zm187.25-31.75V1970.42H1952.23v155.46Z"/><path d="M1139.53,1509.1h23.12c.43,7.68.11,15.34.22,23.21h-23.34Z"/><path d="M1865.77,1532.38H1843c-.76-2.43-.89-19.56-.16-23.23h22.9Z"/><path d="M1865.84,2212.33v23.14c-7.67.4-15.32.11-23.2.19v-23.33Z"/><path d="M1118.69,1488.44h-23.16c-.36-7.75-.1-15.4-.19-23.24h23.35Z"/><path d="M1909.69,1488.42h-23.11c-.5-7.68-.08-15.33-.25-23.19h23.36Z"/><path d="M1822,1576.26h-23.33v-23.15h23.2C1822.25,1560.75,1822,1568.32,1822,1576.26Z"/><path d="M1909.73,1576.33h-23.18c-.39-7.69-.14-15.27-.15-22.78,2.5-.83,19.54-1,23.33-.22Z"/><path d="M1865.8,2168.2v23.32h-23.14v-23.3C1850.27,2168.09,1857.85,2168.15,1865.8,2168.2Z"/><path d="M1886.55,2080.48h23.14v22.79c-2.53.74-20,.8-23.14,0Z"/><path d="M1865.79,2103.58H1842.6c-.38-7.63-.1-15.18-.17-23.11,7.87-.37,15.52-.12,23.36-.18Z"/><path d="M1754.72,2103.58v-23.07h23.16v23.07Z"/><path d="M1734,2124.49v23.09c-7.69.45-15.26.09-23.31.24-.1-7.9,0-15.49,0-23C1713.18,2124.1,1728.61,2123.89,1734,2124.49Z"/><path d="M1754.74,2124.35h23.2c.39,7.7.07,15.27.21,23.22-7.94.45-15.58.12-23.41.22Z"/><path d="M1821.82,2147.55h-23.14v-23.13h23.14Z"/><path d="M1909.71,2147.64h-23.14c-.46-7.77-.11-15.41-.21-23.24h23.35Z"/><path d="M1777.88,2191.58h-22.74c-.73-2.5-.85-19.54-.16-23.24h22.9Z"/><path d="M1974.52,2168.32h23.06v23.17h-23.06Z"/><path d="M1778,2212.3v22.75c-2.45.74-17,1-23.32.36-.19-7.59-.06-15.24-.08-23.11Z"/><path d="M1865.8,1664.12h-23.37c0-7.62,0-15.19.06-23.21,7.82-.26,15.47-.09,23.31-.1Z"/><path d="M1798.64,1664.09V1641c7.69-.48,15.33-.1,23.2-.24v23.32Z"/><path d="M1206.65,1640.8v23.34c-7.72.37-15.36.11-23.22.18V1640.8C1191.21,1640.77,1198.86,1640.77,1206.65,1640.8Z"/><path d="M1997.62,1421.25V1444c-2.25.77-17.19,1-22.72.4-.81-2.37-.94-19.7-.14-23.16Z"/><path d="M1997.59,1597v23.16h-22.67c-.83-2.35-1-19.54-.15-23.16Z"/><path d="M1953.73,1596.84v23c-2.34.74-19.25.9-23.2.19v-23.14C1938.22,1596.81,1945.78,1596.81,1953.73,1596.84Z"/><path d="M1842.64,1597h23.16c.41,7.7.11,15.26.19,23.25-7.84.32-15.49.11-23.35.15Z"/><path d="M1821.91,1597.07v23.14c-7.73.37-15.38.1-23.22.19v-23.33Z"/><path d="M1271.34,1597h23.11v23.16h-23.11Z"/><path d="M1250.47,1620.24h-23.11c-.41-7.66-.13-15.3-.2-23.18h23.31Z"/><path d="M1118.7,1596.8v23.42h-23.14V1597C1103.2,1596.61,1110.77,1596.93,1118.7,1596.8Z"/><path d="M1051.44,1597.05h23.45c.16,7.77,0,15.41.08,23.2h-23.45C1051.32,1612.56,1051.45,1604.92,1051.44,1597.05Z"/><path d="M1997.67,1552.87v23.56c-7.71,0-15.29,0-23.14,0V1553C1982.16,1552.71,1989.73,1552.94,1997.67,1552.87Z"/><path d="M1953.62,1576.29H1931c-.83-2.22-1-19.06-.24-23.17h22.88Z"/><path d="M1930.46,2235.45V2212.7c2.44-.75,17.51-1,23.22-.35.37,7.6.11,15.24.19,23.1Z"/><path d="M1710.87,2256.2h22.6c.85,2.27,1.06,18.89.26,23.16h-22.86Z"/><path d="M1710.82,1576.27v-23.15h22.76c.76,2.5.84,19.9.07,23.15Z"/><path d="M1294.47,1552.89v23.36h-23.11v-23.19C1279,1552.68,1286.54,1553,1294.47,1552.89Z"/><path d="M1118.86,1576.3H1096c-.74-2.31-.91-19.1-.21-23.2h23.12C1119,1560.77,1119,1568.34,1118.86,1576.3Z"/><path d="M1974.52,1532.29V1509.2h23v23.09Z"/><path d="M1754.72,2322.9v-22.69h22.82c.76,2.57.83,20.05.11,23C1773.18,2323.88,1756.93,2323.66,1754.72,2322.9Z"/><path d="M1821.83,1532.39h-22.77c-.71-2.47-.93-16.69-.39-22.83,2.25-.76,19.11-.94,23.16-.2Z"/><path d="M1798.73,2300.2h23.13v23.12h-23.13Z"/><path d="M1095.76,1509.11h22.91V1532c-2.35.69-17.33.92-22.74.35C1095.21,1530,1095.05,1513.17,1095.76,1509.11Z"/><path d="M1052.06,1509.14h22.67v23.22c-7.67.34-15.22.1-22.71.16C1051.13,1529.29,1051.22,1511.45,1052.06,1509.14Z"/><path d="M1974.25,1465.11h23.38c.33,7.75.1,15.41.15,23.28h-23.32C1974,1480.72,1974.37,1473.05,1974.25,1465.11Z"/><path d="M1866,2323.32h-23.38V2300.2h23.22C1866.17,2307.88,1865.93,2315.44,1866,2323.32Z"/><path d="M1842.58,1488.6v-23.45c7.69-.28,15.34-.08,23.21-.14v23.5C1858.11,1488.68,1850.54,1488.55,1842.58,1488.6Z"/><path d="M1294.41,1488.41H1271.8c-.85-2.25-1.06-18.92-.25-23.17h22.86Z"/><path d="M1821.84,1444.49h-23.28c-.16-7.71,0-15.27-.07-22.76,2.48-.78,19.25-1,23.35-.26Z"/><path d="M1206.63,1421.33v23.07c-7.66.54-15.3.09-23.18.27v-23.34Z"/><path d="M1250.51,1488.44h-23.13c-.48-7.74-.11-15.39-.23-23.23h23.36Z"/><path d="M1183.21,1465.2h23.38v23.15h-23.32C1183.15,1480.73,1183.25,1473.16,1183.21,1465.2Z"/><path d="M1777.91,1444.47H1754.7c-.29-7.71-.11-15.27-.1-23.27,7.81-.23,15.46-.1,23.31-.08Z"/><path d="M1734.16,1444.41h-23.39v-22.74c2.34-.72,17-1,23.2-.34C1734.37,1428.86,1734.08,1436.44,1734.16,1444.41Z"/><path d="M1930.58,2300.18h23.07v23.1h-22.78C1930.18,2321,1929.94,2306,1930.58,2300.18Z"/><path d="M1051.67,1421.21h23.19c.2,7.71.14,15.29,0,23.36-7.81.14-15.38.06-23.21.06Z"/><path d="M1051.67,1641h23.24c.12,7.64,0,15.21,0,23h-23.29Z"/><path d="M2106.44,1421.25h22.94v23.15h-22.94Z"/><path d="M2217.25,1444.45H2194.3v-23.14h22.95Z"/><path d="M2238.15,1444.24v-22.62c2.51-.66,19-.79,23-.17v22.65C2258.76,1444.77,2242.14,1444.91,2238.15,1444.24Z"/><path d="M2305.1,1444.47h-22.91v-22.86c2.36-.65,18.63-.8,22.91-.17Z"/><path d="M1690.14,1444.45H1666.9v-23.13H1690C1690.27,1429,1690.13,1436.57,1690.14,1444.45Z"/><path d="M1622.76,1421.26h22.78c.81,2.56.91,19.85.11,23.19h-22.72C1622.57,1436.8,1622.84,1429.24,1622.76,1421.26Z"/><path d="M1315.67,1421.27h22.88c.08,7.61,0,15.18,0,23.14-7.72.48-15.27.13-22.71.23C1314.91,1441.88,1314.81,1424.61,1315.67,1421.27Z"/><path d="M2018.49,2323.32v-23.13h23.06v23.13Z"/><path d="M1426.27,1465.24v23.12h-23v-23.12Z"/><path d="M1447,1465.18h23.12V1488c-2.23.69-18.15.88-23.08.19C1447,1480.73,1447,1473.16,1447,1465.18Z"/><path d="M1535,1488.22v-22.65c2.45-.69,18.77-.83,23-.2v22.68C1555.69,1488.72,1539.42,1488.88,1535,1488.22Z"/><path d="M1666.88,1465.22h23v23.15h-23Z"/><path d="M1558.11,1377.51v22.94h-23.06v-22.73C1537.37,1377,1553.5,1376.84,1558.11,1377.51Z"/><path d="M1930.52,1333.39h23.13V1356c-2.28.87-19.16,1.07-23.13.24Z"/><path d="M1865.81,1356.43h-23.19v-23c7.69-.33,15.34-.1,23.19-.16Z"/><path d="M2085.65,1488.39H2062.9c-.81-2.41-1-19.47-.18-23.18h22.76C2085.84,1472.88,2085.59,1480.53,2085.65,1488.39Z"/><path d="M2106.51,1465.18h22.84V1488c-2.24.7-18.17.88-22.6.26C2106.1,1485.91,2105.9,1470.23,2106.51,1465.18Z"/><path d="M2194.29,1488.4v-23.19h23c.28,7.69.07,15.34.12,23.19Z"/><path d="M2261.2,1488.4h-23v-23.16h23Z"/><path d="M1754.74,1356.11V1333.3c7.63-.17,15.2,0,23.17-.08.43,7.73.13,15.28.19,22.73C1775.31,1356.86,1758,1357,1754.74,1356.11Z"/><path d="M1646,2300v23c-2.4.71-18.3.9-23,.27v-23.13C1630.51,2299.85,1638.06,2300,1646,2300Z"/><path d="M1602.07,2300.38V2323c-2.47.67-18.7.82-23,.21v-22.68C1581.41,2299.84,1598,2299.7,1602.07,2300.38Z"/><path d="M1338.35,1532.36h-22.61c-.76-2.57-.93-19-.28-22.86,2.3-.68,18.52-.85,22.89-.2Z"/><path d="M1491.2,1509.11h22.88V1532c-2.29.68-18.4.85-22.88.2Z"/><path d="M1579,1532.29v-23.11h23v23.11Z"/><path d="M1666.88,1532.3v-23.13h23v23.13Z"/><path d="M1514.19,2300.39v22.89h-23V2300.5C1493.65,2299.83,1510.45,2299.72,1514.19,2300.39Z"/><path d="M1426.27,2300.2v23.13H1403.7c-.8-2.38-1-19.49-.18-23.13Z"/><path d="M1930.3,1289.42h23.32v23h-23.24C1930.22,1304.81,1930.33,1297.25,1930.3,1289.42Z"/><path d="M2194.21,1532v-22.44c2.42-.72,18.52-.88,23-.23V1532C2214.66,1532.74,2197,1532.76,2194.21,1532Z"/><path d="M1821.69,1312.54h-23.11c-.19-7.66,0-15.21-.09-23h23C1822.19,1291.77,1822.38,1307.76,1821.69,1312.54Z"/><path d="M2282.15,2279.37v-23.13h23v23.13Z"/><path d="M1403.31,1553h22.93v23.36c-7.56.11-15.12.06-22.93,0Z"/><path d="M1470.14,1576.29h-22.57c-.67-2.54-.85-18.36-.3-22.84,2.26-.7,18.16-.89,22.87-.24Z"/><path d="M1690.11,1576.28h-23.17v-22.85c2.26-.68,18.43-.86,23.12-.16C1690.25,1560.75,1690.16,1568.31,1690.11,1576.28Z"/><path d="M2217.24,2256.19v23.23h-22.89v-23.23Z"/><path d="M2018.5,2279.37v-23.13h23v23.13Z"/><path d="M1909.75,1245.37v22.77c-2.65.77-20,.84-23.21.09v-22.84C1894.28,1245.31,1901.93,1245.35,1909.75,1245.37Z"/><path d="M1865.83,1245.6v22.55c-2.74.77-20,.82-23.23.07V1245.6Z"/><path d="M1734,1268.58h-22.79c-.67-2.55-.78-19.23-.14-23H1734Z"/><path d="M2106.45,1576.12v-23.07h22.9v22.86C2127.11,1576.59,2111.18,1576.77,2106.45,1576.12Z"/><path d="M2305.11,1576.29h-22.93v-23.37c7.56-.09,15.12,0,22.93,0Z"/><path d="M1578.84,2256.23H1602v23.15h-23C1578.63,2271.76,1578.9,2264.1,1578.84,2256.23Z"/><path d="M1491.08,2279.24V2256.1c7.65-.18,15.2,0,23-.09v23C1511.82,2279.72,1495.89,2279.91,1491.08,2279.24Z"/><path d="M1470.14,2279.42h-22.56c-.75-2.74-.8-20.06-.06-23.23h22.62Z"/><path d="M1953.68,1201.63v22.94h-23.13v-22.94Z"/><path d="M1315.29,1620v-22.55c2.49-.76,18.92-.93,23.06-.25v22.67C1336,1620.52,1319.54,1620.66,1315.29,1620Z"/><path d="M1359.33,1620.21V1597H1382c.71,2.53.81,19.65.12,23.19Z"/><path d="M1403.29,1597h23v23.14h-23Z"/><path d="M1447.47,1597h22.85c.12,7.71.06,15.35,0,23.18h-22.74C1446.86,1617.76,1446.73,1600.6,1447.47,1597Z"/><path d="M1491.18,1597h22.93v23.14h-22.93Z"/><path d="M1579,1620.19v-23.14h23v23.14Z"/><path d="M1645.94,1596.84v23.36h-23.1c-.17-7.61,0-15.18-.08-23.15C1630.48,1596.58,1638,1596.92,1645.94,1596.84Z"/><path d="M1666.89,1597.06h23v23.1h-23Z"/><path d="M1909.77,1201.66v22.88H1886.9c-.68-2.33-.84-18.49-.19-22.88Z"/><path d="M1798.6,1224.38V1201.6c7.73-.37,15.38-.11,23.25-.18v22.74C1819.6,1224.93,1802.93,1225.13,1798.6,1224.38Z"/><path d="M1734,1201.66v22.91H1710.8v-22.91Z"/><path d="M2305.13,2212.26v23.22h-23c-.33-7.73-.07-15.39-.16-23.22Z"/><path d="M2041.54,1597.05v23.12h-23v-23.12Z"/><path d="M2085.46,1597.05v23.15h-22.57c-.8-2.42-.94-19.59-.16-23.15Z"/><path d="M2305.28,1620.21H2282c0-7.63,0-15.2,0-23.18,7.72-.43,15.26-.13,23.28-.19C2305.45,1604.76,2305.4,1612.39,2305.28,1620.21Z"/><path d="M2261.27,2212.45v22.61c-2.4.73-18.34.92-23,.27v-22.7C2240.53,2212,2256.61,2211.78,2261.27,2212.45Z"/><path d="M1953.83,1180.72h-23.42c-.22-7.67-.06-15.22-.12-23h23.56C1953.87,1165.29,1953.88,1172.84,1953.83,1180.72Z"/><path d="M1359.33,1664v-23h23.06v22.7C1380.1,1664.46,1364.92,1664.68,1359.33,1664Z"/><path d="M1403.21,1664.31v-23.44c7.68-.17,15.23-.07,23-.06v23.43C1418.69,1664.41,1411.14,1664.3,1403.21,1664.31Z"/><path d="M1447.24,1663.94V1641h23v22.76C1467.8,1664.45,1451.28,1664.59,1447.24,1663.94Z"/><path d="M1535.09,1664.32V1641h23.08c.18,7.67.08,15.25.07,23.25C1550.43,1664.4,1542.86,1664.29,1535.09,1664.32Z"/><path d="M1602,1641v23.09h-23V1641Z"/><path d="M2129.35,2235.5h-23.1c-.09-7.71,0-15.28,0-22.77,2.52-.78,18.45-1,23.13-.31Z"/><path d="M2062.5,2235.31v-23h22.91v22.85C2083.18,2235.79,2067.22,2236,2062.5,2235.31Z"/><path d="M2041.53,1664.14H2019c-.86-2.44-1-19.64-.17-23.12h22.74Z"/><path d="M2062.48,1641h22.94v23.1h-22.94Z"/><path d="M2106.37,1664.15V1641h23v23.12Z"/><path d="M2150.17,1641h23.16v23.14h-23C2150,1656.49,2150.21,1648.91,2150.17,1641Z"/><path d="M2238.24,1663.94V1641h23v22.74C2258.75,1664.45,2242.16,1664.58,2238.24,1663.94Z"/><path d="M2282.16,1641h22.58c.75,2.42,1,18.33.34,22.82-2.43.65-19.12.76-22.92.12Z"/><path d="M1074.77,1685v23h-23.12v-23Z"/><path d="M1227.38,1685h23.13v23.12c-7.62.25-15.27.1-23.13.09Z"/><path d="M1271.34,1685h23.1v23h-23.1Z"/><path d="M1733.94,1092.8h-23.12v-22.56c2.28-.81,19.21-1,23.12-.22Z"/><path d="M1798.86,1069.72H1822c.17,7.69,0,15.24.08,23h-23C1798.36,1090.46,1798.2,1074.25,1798.86,1069.72Z"/><path d="M1666.92,2212.25H1690c.24,7.73.13,15.3.06,22.79-2.59.75-18.9.91-23.17.27Z"/><path d="M1602,2235.5h-22.89v-22.88c2.29-.67,18.48-.83,22.89-.18Z"/><path d="M1447.14,2235.3v-22.61c2.39-.74,18.32-.93,23-.27v22.69C1467.89,2235.79,1451.85,2236,1447.14,2235.3Z"/><path d="M2261.15,2191.56h-22.89v-22.88c2.3-.66,18.52-.81,22.89-.17Z"/><path d="M1821.84,1708.07H1798.7V1685h23.14Z"/><path d="M1909.7,1708.06h-23.11v-23h23.11Z"/><path d="M1930.54,1685h23.12v23.07c-7.65.33-15.3.11-23.12.15Z"/><path d="M2194.12,2168.34h22.76c.73,2.49.85,19.66.14,23.2h-22.81C2194,2183.83,2194.14,2176.18,2194.12,2168.34Z"/><path d="M2150.28,2191.36v-22.62c2.41-.72,18.5-.89,23-.25v22.69C2171,2191.86,2154.9,2192,2150.28,2191.36Z"/><path d="M1666.88,2191.52v-23.17h22.57c.88,2.38,1,19.49.2,23.17Z"/><path d="M1645.91,2191.56H1623v-23.39c7.56,0,15.12,0,22.93,0Z"/><path d="M1074.61,1752.06H1052c-.72-2.34-.92-18-.31-22.7,2.34-.72,18.09-.94,22.64-.3C1075.1,1731.3,1075.33,1747.07,1074.61,1752.06Z"/><path d="M1095.55,1729h23.17v23.08c-7.68.26-15.33.07-23.17.12Z"/><path d="M1162.47,1752.07h-23.16c0-7.67,0-15.23,0-23h23C1163,1731.43,1163.13,1747.87,1162.47,1752.07Z"/><path d="M1294.47,1729v22.63c-2.39.7-16.37.93-22.71.38-.82-2.32-1-19.63-.14-23Z"/><path d="M1602,2191.55h-23v-23.16h23Z"/><path d="M1426.24,2191.55H1403.3v-22.88c2.44-.65,19-.77,22.94-.15Z"/><path d="M2261.17,2147.62h-22.92v-23.15h22.92Z"/><path d="M1645.94,2124.54v23.06h-23c-.36-7.65-.09-15.22-.17-22.72C1625.18,2124.08,1640.57,2123.86,1645.94,2124.54Z"/><path d="M1754.88,1729h23v23c-7.65.37-15.22.09-22.72.18C1754.42,1749.75,1754.21,1734.29,1754.88,1729Z"/><path d="M1821.9,1728.78V1752H1799c-.66-2.39-.79-18.83-.11-23.14C1806.38,1728.71,1814,1728.77,1821.9,1728.78Z"/><path d="M1865.76,1752h-23.1v-23h23.1Z"/><path d="M1579,2147.55v-23.1h23v23.1Z"/><path d="M1558,2124.46v23.09H1535.1v-23.09Z"/><path d="M1447,2124.39h23.1v22.82c-2.2.72-18.09.92-23.08.2C1447,2139.85,1447,2132.21,1447,2124.39Z"/><path d="M1426.11,2147.59h-22.84v-23.15h22.59C1426.59,2126.61,1426.81,2142.88,1426.11,2147.59Z"/><path d="M1095.72,1772.87h22.6c.74,2.42.91,18.53.26,23h-22.7C1095.22,1793.57,1095.06,1777.45,1095.72,1772.87Z"/><path d="M1162.69,1773v22.9h-22.87c-.67-2.32-.83-18.42-.18-22.9Z"/><path d="M1206.41,1796h-22.94v-23h22.8C1206.92,1775.4,1207.05,1791.89,1206.41,1796Z"/><path d="M1294.46,1796h-23.13v-23h23.13Z"/><path d="M1734,1113.51v23.17h-23.11v-22.93C1718.37,1113.27,1726,1113.68,1734,1113.51Z"/><path d="M2305.11,2103.65h-22.93v-23.34c7.58,0,15.13,0,22.93,0Z"/><path d="M2261.21,2080.48v23.13h-23v-23.13Z"/><path d="M2173.31,2103.6h-23v-22.76c2.47-.7,18.94-.83,23-.18Z"/><path d="M1821.9,1113.78v22.91H1799c-.64-2.39-.77-18.91-.14-22.91Z"/><path d="M1842.59,1136.69v-22.91h22.87c.67,2.36.82,18.65.18,22.91Z"/><path d="M1734.12,1796h-23.25v-23H1734C1734.34,1780.58,1734.12,1788.14,1734.12,1796Z"/><path d="M1821.88,1773v23h-23.16v-23Z"/><path d="M1074.74,1816.88v23h-23.1v-23Z"/><path d="M1139.49,1839.87v-23h23.15v23Z"/><path d="M1909.91,1136.8h-23.53c0-7.67,0-15.22,0-23h23.54C1910,1121.36,1909.93,1128.91,1909.91,1136.8Z"/><path d="M1623.41,2080.41h22.1c.83,2.51,1,19.73.17,23.19h-22.61C1622.37,2098.46,1622.63,2082.59,1623.41,2080.41Z"/><path d="M1514.18,2080.49v22.76c-2.51.73-19.44.84-23,.15v-22.91Z"/><path d="M1447.17,2103.85v-23.33h22.63c.73,2.25,1,16.49.34,23.09C1462.64,2104.09,1455.07,2103.7,1447.17,2103.85Z"/><path d="M1798.66,1816.9h23.22v22.89h-23.22Z"/><path d="M1865.83,1816.92v22.9h-22.89c-.65-2.39-.78-18.8-.15-22.9Z"/><path d="M1886.56,1816.87h23.17v23c-7.67.39-15.32.07-23.17.2Z"/><path d="M1953.68,1817.16v22.72c-7.63.36-15.2.08-23.15.18-.47-7.75-.14-15.29-.21-22.74C1933.13,1816.51,1950.34,1816.43,1953.68,1817.16Z"/><path d="M1997.6,1816.88V1840c-7.65.17-15.24,0-23.08.09v-23.18Z"/><path d="M1403.28,2080.47h22.62c.69,2.4.91,16.66.36,22.72-2.33.82-19.69.94-23,.14Z"/><path d="M1953.67,1113.75v23h-23.14v-23Z"/><path d="M1909.91,2059.65h-23c-.73-2.51-.87-19.06-.21-23.07h23.13C1910,2044.16,1909.91,2051.71,1909.91,2059.65Z"/><path d="M1754.77,2036.53h23.13v23.08h-23.13Z"/><path d="M1051.59,1883.83v-23h23.15v23Z"/><path d="M1095.52,1883.76v-22.91h23.32c.17,7.57.07,15.13.06,22.91Z"/><path d="M1227.34,1883.77v-22.94h23.14v22.94Z"/><path d="M1886.58,1992.61h23.12v23h-23.12Z"/><path d="M1822,2015.69H1799c-.69-2.55-.82-19-.18-23h23.19C1822.05,2000.21,1822.13,2007.77,1822,2015.69Z"/><path d="M1777.93,1992.63v23H1754.8v-23Z"/><path d="M1886.54,1971.37v-22.84c7.74-.08,15.39,0,23.21,0v22.77C1907.11,1972.06,1889.79,1972.14,1886.54,1971.37Z"/><path d="M1842.8,1948.6h22.65c.68,2.5.81,18.94.17,23H1843C1842.29,1969.26,1842.14,1952.94,1842.8,1948.6Z"/><path d="M1227.16,1948.6h23c.69,2.44.84,18.67.21,23h-23.12C1227.05,1964.05,1227.19,1956.5,1227.16,1948.6Z"/><path d="M1754.74,1883.52V1860.8c7.72-.38,15.36-.09,23.19-.19v22.8C1775.29,1884.15,1758.1,1884.23,1754.74,1883.52Z"/><path d="M1798.67,1883.72v-22.84h23.21v22.84Z"/><path d="M1842.62,1860.82h23.18v22.58c-2.44.73-19.54.86-23.18.15Z"/><path d="M1909.56,1883.87h-22.62c-.72-2.45-.88-18.6-.23-23h22.68C1910.06,1863.19,1910.22,1879.34,1909.56,1883.87Z"/><path d="M1139.53,1948.7h23.08v22.94h-23.08Z"/><path d="M1095.59,1948.69h23.09v23h-23.09Z"/><path d="M1074.72,1971.73h-23v-23h23Z"/><path d="M1051.52,1927.74v-22.56c2.37-.75,19.09-.94,23.23-.25v22.81Z"/><path d="M1095.73,1904.67h23.11c.17,7.67.07,15.23.06,23h-23C1095.22,1925.28,1095.09,1908.88,1095.73,1904.67Z"/><path d="M1162.66,1904.74v23h-23.15v-23Z"/><path d="M1183.41,1904.75h23.19v22.58c-2.5.76-19.69.87-23.19.14Z"/><path d="M1271.35,1927.71v-23h22.76c.68,2.47.81,19.06.15,23Z"/><path d="M1997.6,1927.79h-23.07v-23h23.07Z"/><path d="M1930.3,1904.68h23.31v23H1930.4C1930.2,1920.1,1930.34,1912.55,1930.3,1904.68Z"/><path d="M1710.8,1904.69h23.13v23H1710.8Z"/><path d="M1777.94,1904.77v22.93H1754.8v-22.93Z"/><path d="M1886.57,1904.73h23.14v22.57c-2.23.77-19,1-23.14.23Z"/><path d="M1689.91,1377.37v23.06h-23v-23.06Z"/><path d="M1733.92,1708.09h-23.08V1685h23.08Z"/><path d="M1710.82,2036.53h22.66c.85,2.27,1,19.45.18,23.07h-22.84Z"/><path d="M2150.26,1927.91v-22.77c2.4-.71,18-.91,23-.29v23.05C2165.57,1928,2158,1927.94,2150.26,1927.91Z"/><path d="M2217.28,1904.57v23.14h-22.6c-.73-2.25-1-16.91-.31-23.1C2201.87,1904.5,2209.42,1904.57,2217.28,1904.57Z"/><path d="M1558.05,1180.67h-22.61c-.66-2.4-.83-18.5-.22-23h22.83Z"/><path d="M2282.06,1883.76v-22.53c2.38-.74,17.94-1,22.74-.34.7,2.39.85,18.84.17,22.87Z"/><path d="M2062.44,1883.79v-23.15c7.66,0,15.21,0,23,0v23.15Z"/><path d="M2041.54,1860.84v22.58c-2.38.69-18.42.87-22.7.26-.71-2.48-.83-19.17-.12-22.84Z"/><path d="M1689.92,1860.87v22.92h-22.67c-.68-2.3-.87-18.2-.24-22.92Z"/><path d="M1315.49,1948.64h22.87v23H1315.8C1315,1969.35,1314.73,1953.46,1315.49,1948.64Z"/><path d="M1403.23,1971.88v-23.17h23v23C1418.71,1972.13,1411.16,1971.79,1403.23,1971.88Z"/><path d="M1514.14,1948.49v23.17h-22.59c-.72-2.25-1-17.28-.31-23.1C1498.74,1948.4,1506.29,1948.52,1514.14,1948.49Z"/><path d="M1535.06,1971.85V1948.7h22.59c.75,2.19,1,17.19.32,23C1550.48,1972.11,1542.93,1971.82,1535.06,1971.85Z"/><path d="M1602,1948.8v22.84h-23V1949C1581.31,1948.36,1596.93,1948.17,1602,1948.8Z"/><path d="M1623.1,1948.67H1646v23c-7.57.34-15.12.12-22.62.13C1622.64,1969.24,1622.49,1953,1623.1,1948.67Z"/><path d="M1646,1860.85v22.56c-2.33.7-17.9.91-23,.28v-22.84Z"/><path d="M1558.25,1883.81H1535.1v-23.08c7.51-.23,15.06-.07,23.1-.09C1558.32,1868.41,1558.25,1876,1558.25,1883.81Z"/><path d="M2173.21,1971.71h-22.82v-23H2173C2173.65,1951,2173.86,1966.47,2173.21,1971.71Z"/><path d="M2194.25,1971.89v-23.18h23v23C2209.7,1972.12,2202.15,1971.79,2194.25,1971.89Z"/><path d="M2261.16,1971.78h-22.52c-.74-2.38-1-17.33-.33-23.28,7.5,0,15.05,0,22.85,0Z"/><path d="M1491.12,1180.54v-22.83h23v22.57C1511.83,1181,1496.29,1181.18,1491.12,1180.54Z"/><path d="M1426.3,1992.62v22.62c-2.54.75-19.09.89-23,.18v-22.8Z"/><path d="M1491.16,1992.59h23.12c.08,7.65,0,15.2,0,23.22-7.87.06-15.41.08-23.15,0Z"/><path d="M1558,2015.67h-22.82v-23h22.52C1558.41,1994.88,1558.65,2010,1558,2015.67Z"/><path d="M1645.82,2015.67H1623v-23h22.51C1646.31,1994.85,1646.57,2010.33,1645.82,2015.67Z"/><path d="M1514.14,1861v22.81h-22.6c-.72-2.25-1-17.38-.33-22.63C1493.56,1860.5,1509.73,1860.34,1514.14,1861Z"/><path d="M1359.31,1883.77v-22.59c2.36-.68,18.33-.87,23-.25v22.84Z"/><path d="M1315.54,1860.8h22.84v23c-7.53.4-15.09.1-22.55.18C1315,1881.37,1314.78,1865,1315.54,1860.8Z"/><path d="M2150.4,1992.52h23c.22,7.64,0,15.19.1,23.14-7.8.4-15.34.1-23.12.19Z"/><path d="M1447.24,1157.67h22.6c.67,2.35.85,18.21.24,22.93h-22.84Z"/><path d="M1403.11,1157.66h23.15v22.61c-2.26.71-17.57.93-23,.27C1402.88,1173.05,1403.09,1165.51,1403.11,1157.66Z"/><path d="M1426.27,2059.63h-23.14c-.16-7.69,0-15.26-.06-23.05h23.2Z"/><path d="M1558.1,2036.66v23.06c-7.71.22-15.25.11-23,.07v-22.85C1537.3,2036.22,1552.64,2036,1558.1,2036.66Z"/><path d="M1646,2036.67v22.54c-2.72.78-19.53.89-23,.14v-22.41C1625.17,2036.22,1640.56,2036,1646,2036.67Z"/><path d="M2062.26,1904.73h23.19v23.06c-7.51.31-15.06.08-23,.14C2062.05,1920.13,2062.32,1912.58,2062.26,1904.73Z"/><path d="M2261.23,1817v22.81h-23v-22.57C2240.54,1816.55,2256.46,1816.36,2261.23,1817Z"/><path d="M2194.27,1839.85v-23c7.62-.32,15.17-.11,23-.15v23.16Z"/><path d="M2173.36,2036.67v23.1c-7.71.11-15.25.09-23,0,0-7.88,0-15.36,0-22.85C2152.62,2036.22,2168.12,2036,2173.36,2036.67Z"/><path d="M2173.28,1840H2150.8c-.78-2.32-1-17.27-.34-23.21,7.48-.15,15-.06,22.82,0Z"/><path d="M2106.54,1816.84h22.83v23h-22.55C2106.08,1837.58,2105.85,1822,2106.54,1816.84Z"/><path d="M1602,1817v22.81h-23v-22.56C1581.32,1816.55,1597.1,1816.34,1602,1817Z"/><path d="M1491,1816.86h23.15v23h-23C1490.85,1832.29,1491,1824.74,1491,1816.86Z"/><path d="M1447.27,1816.88h22.93V1840c-7.56.15-15.11,0-22.93.06Z"/><path d="M1359.48,1816.85h22.83v22.61c-2.21.73-17.16,1-22.6.35C1359,1837.49,1358.76,1821.31,1359.48,1816.85Z"/><path d="M1579.05,1773h22.54c.76,2.26,1,17.54.3,23.14-7.49.06-15.05,0-22.84,0Z"/><path d="M1535.08,1795.91v-23.06c7.58-.27,15.13,0,23-.13.34,7.87.12,15.42.17,23.19Z"/><path d="M1470.14,1795.93h-22.93v-23c7.58-.42,15.14-.14,22.93-.17Z"/><path d="M1646,1904.86v22.82h-23v-22.55C1625.2,1904.43,1640.34,1904.2,1646,1904.86Z"/><path d="M1359.07,1772.91h23.23v22.63c-2.18.72-16.84,1-23,.31C1358.8,1788.36,1359.24,1780.81,1359.07,1772.91Z"/><path d="M1315.52,1772.9h22.84v23h-22.57C1315,1793.61,1314.74,1777.56,1315.52,1772.9Z"/><path d="M2282.15,1751.93V1729h23c.46,7.58.15,15.14.19,22.94Z"/><path d="M2194.1,1728.94h23.12v23h-23C2194,1744.47,2194.16,1736.91,2194.1,1728.94Z"/><path d="M2106.2,1729h23.18v23h-23C2106,1744.42,2106.3,1736.87,2106.2,1729Z"/><path d="M2062.46,1729h22.95v23h-22.95Z"/><path d="M1667.24,1729h22.67v22.61c-2.28.73-17.2,1-22.69.36C1666.48,1749.26,1666.48,1731.67,1667.24,1729Z"/><path d="M1667,1113.7h23.06c.19,7.71.09,15.26.06,23h-22.84C1666.56,1134.52,1666.33,1119.34,1667,1113.7Z"/><path d="M1646,1113.53v23.15h-23v-22.93C1630.48,1113.29,1638,1113.63,1646,1113.53Z"/><path d="M1602,1136.72h-22.59c-.68-2.26-.89-17.62-.26-23,7.5-.36,15.05-.12,22.85-.15Z"/><path d="M1558.09,1113.58v23.12h-23v-23C1542.65,1113.4,1550.2,1113.56,1558.09,1113.58Z"/><path d="M1622.86,1752v-22.49c2.35-.84,17.88-1.09,23.1-.34.48,7.49.08,15,.23,22.83Z"/><path d="M1558,1752.09h-22.51c-.75-2.36-1-17.58-.3-23.23,7.47-.2,15-.07,22.81-.08Z"/><path d="M1426.27,1729.19V1752h-23c-.49-7.58-.08-15.13-.23-22.59C1405.83,1728.63,1422.49,1728.5,1426.27,1729.19Z"/><path d="M2282,1685h23.2c.39,7.71.09,15.27.19,23h-23.3C2281.84,1700.56,2282,1693,2282,1685Z"/><path d="M2194.4,1685h22.81V1708h-22.52C2194,1705.82,2193.72,1690.83,2194.4,1685Z"/><path d="M1491.14,1136.91v-23.15h22.6c.71,2.23,1,17.13.3,23.07C1506.54,1137,1499,1136.88,1491.14,1136.91Z"/><path d="M1447.36,1113.71h22.81v23H1447.6C1446.89,1134.4,1446.69,1118.46,1447.36,1113.71Z"/><path d="M1426.21,1136.73h-22.94v-22.59c2.32-.74,17.9-1,22.94-.3Z"/><path d="M2150.32,1708.08V1684.9c7.7-.22,15.24-.1,23-.08v23.26Z"/><path d="M2129.38,1708.07h-22.57c-.73-2.38-.92-18.46-.28-22.7,2.45-.73,19.12-.87,22.85-.14Z"/><path d="M1447,1904.74h23.17v23.07c-7.54.24-15.09.1-23,.08C1446.84,1920.11,1447.07,1912.56,1447,1904.74Z"/><path d="M1690.15,1708.07h-23.26v-22.59c2.29-.84,18.22-1.07,23.15-.27C1690.29,1692.68,1690.11,1700.23,1690.15,1708.07Z"/><path d="M1602,1708.06h-22.6c-.68-2.34-.86-18.15-.27-22.69,2.47-.73,19.12-.86,22.87-.13Z"/><path d="M1558.09,1685.19V1708h-22.6c-.73-2.2-1-17-.36-22.6C1537.42,1684.65,1553.55,1684.43,1558.09,1685.19Z"/><path d="M1470.17,1708.14h-23c-.4-7.66-.09-15.21-.19-22.67,2.75-.83,19.36-1,23.16-.25Z"/><path d="M1338.37,1708.07h-22.58c-.83-2.42-1-18.61-.22-23.18,7.46-.22,15-.07,22.8-.09Z"/><path d="M1690,1069.63v22.73c-2.39.76-17.39,1-22.81.39-.64-2.36-.79-18.69-.12-23.15C1674.56,1069.57,1682.11,1069.55,1690,1069.63Z"/><path d="M1623,1180.82v-23.14h23c.48,7.56.12,15.11.22,23.15C1638.32,1180.86,1630.77,1180.86,1623,1180.82Z"/><path d="M1690,1157.73v22.47c-2.38.78-16.9,1-22.8.43-.66-2.31-.83-18.37-.2-22.9Z"/><path d="M1535.11,1201.61h22.57c.71,2.32.91,18.12.24,23.05-7.49.26-15,.08-22.81.12Z"/><path d="M1666.87,1201.58h22.69c.76,2.74.85,19.51.12,23h-22.81Z"/><path d="M1491.61,1245.46h22.13c.7,2.41.89,18.28.26,23h-22.58C1490.65,1264.9,1490.79,1247.76,1491.61,1245.46Z"/><path d="M1602.22,1268.56H1579v-23h23C1602.45,1253.1,1602.12,1260.65,1602.22,1268.56Z"/><path d="M1645.8,1268.56H1623v-22.62c2.19-.74,16.72-1,22.58-.36C1646.31,1247.86,1646.51,1263.91,1645.8,1268.56Z"/><path d="M1623.09,1069.77h22.83v23h-22.61C1622.63,1090.46,1622.44,1074.76,1623.09,1069.77Z"/><path d="M1579.07,1289.48H1602v23c-7.59.48-15.14.12-22.94.23Z"/><path d="M1623,1312.45v-22.61c2.33-.69,18.08-.87,23.12-.21.23,7.48,0,15,.1,22.82Z"/><path d="M1689.91,1312.49h-22.68c-.66-2.4-.82-18.63-.2-23h22.88Z"/><path d="M1426.44,1356.48H1403.2c-.3-7.71-.07-15.27-.14-23h23.29C1426.58,1340.92,1426.41,1348.47,1426.44,1356.48Z"/><path d="M1514.13,1333.44V1356c-2.32.81-18.18,1-23.15.27,0-7.48,0-15,0-22.83Z"/><path d="M1579,1356.24v-22.83h23c.5,7.57.1,15.12.22,22.58C1599.49,1356.81,1582.94,1357,1579,1356.24Z"/><path d="M1666.91,1333.4H1690c.3,7.61.1,15.16.14,23.19-7.92.14-15.47.11-23.24,0Z"/><path d="M1602,1092.88h-22.52c-.74-2.31-1-17.15-.32-23.18,7.49-.25,15-.09,22.84-.1Z"/><path d="M1514.08,1092.89h-22.49c-.77-2.32-1-17.27-.34-23.11,7.49-.43,15-.12,22.83-.19Z"/><path d="M1447,1069.75h23.13v23h-23C1446.86,1085.25,1447.06,1077.7,1447,1069.75Z"/><path d="M1403.24,1092.66v-22.83h23c0,7.65,0,15.13,0,22.61C1424,1093.11,1408.26,1093.3,1403.24,1092.66Z"/><path d="M1403.42,1772.9h22.82v23h-22.56C1402.93,1793.62,1402.72,1777.74,1403.42,1772.9Z"/><path d="M2053,1321.91v-217.6h217.63v217.6Zm109-43.41a65.4,65.4,0,1,0-65.55-65.22A65.46,65.46,0,0,0,2162,1278.5Z" style="fill:#fff"/><path d="M1086.11,1104.29H1303.9v217.17a2.84,2.84,0,0,1-.24.29.54.54,0,0,1-.27.16,22.59,22.59,0,0,1-2.3.21q-106.93,0-213.85-.06a4.54,4.54,0,0,1-1.13-.36Zm174.24,108.76a65.33,65.33,0,1,0-65.27,65.45A65.34,65.34,0,0,0,1260.35,1213.05Z" style="fill:#fff"/><path d="M1086.11,2288.59V2071.07h217.45c.68,2.42,1,211.78.31,217.38C1301.54,2289.2,1090,2289.38,1086.11,2288.59Zm109-174a65.33,65.33,0,1,0,65.29,65.38A65.18,65.18,0,0,0,1195.06,2114.6Z" style="fill:#fff"/><path d="M2107.66,2125.88H1952.23V1970.42h155.43Zm-56-77.74a21.68,21.68,0,1,0-21.82,21.63A21.67,21.67,0,0,0,2051.69,2048.14Z" style="fill:#fff"/><path d="M2162,1278.5a65.4,65.4,0,1,1,65.24-65.56A65.42,65.42,0,0,1,2162,1278.5Z"/><path d="M1260.35,1213.05a65.33,65.33,0,1,1-65.4-65.35A65.31,65.31,0,0,1,1260.35,1213.05Z"/><path d="M1195.06,2114.6a65.33,65.33,0,1,1-65.37,65.29A65.21,65.21,0,0,1,1195.06,2114.6Z"/><path d="M2051.69,2048.14a21.68,21.68,0,1,1-21.72-21.75A21.64,21.64,0,0,1,2051.69,2048.14Z"/></svg>