<svg xmlns="http://www.w3.org/2000/svg" xmlns:xlink="http://www.w3.org/1999/xlink" viewBox="0 0 521.23 521.23"><defs><clipPath id="a"><circle cx="260.86" cy="260.87" r="247.7" style="fill:none"/></clipPath></defs><path d="M260.62,517.25A256.63,256.63,0,0,1,79.15,79.15,256.64,256.64,0,0,1,442.09,442.09,255,255,0,0,1,260.62,517.25Z" style="fill:#fafafa"/><path d="M260.62,8C400.15,8,513.27,121.08,513.27,260.62S400.15,513.27,260.62,513.27,8,400.15,8,260.62,121.08,8,260.62,8m0-8A260.68,260.68,0,0,0,159.17,500.75,260.68,260.68,0,0,0,362.06,20.48,259,259,0,0,0,260.62,0Z" style="fill:#939597"/><g style="clip-path:url(#a)"><path d="M141.86,272.85c0,21.72-14.18,37-34.54,37-9.36,0-18.26-4.53-22.63-11.32V308H68.4V202.4H84.69v44.8c4.37-6.79,13.73-11.31,23.68-11.31C128.44,235.89,141.86,250.67,141.86,272.85Zm-16.44,0c0-13.13-8.45-22.33-20.52-22.33-12.37,0-20.81,9-20.81,22.33s8.44,22.32,20.81,22.32C117,295.17,125.42,286,125.42,272.85Z" style="fill:#ff7367"/><path d="M155.44,281.9V237.7h16.45v40.13c0,11.31,3.62,17.95,14.33,17.95,12.52,0,17-8.3,17-18.41V237.7h16.45V308H203.26v-9.81c-4.22,7.54-11.61,11.62-21.72,11.62C166.15,309.81,155.44,300.75,155.44,281.9Z" style="fill:#ff7367"/><path d="M239.32,237.7h16.44v9.8c4.38-7.54,12.52-11.61,22.93-11.61,16.9,0,25.65,9.5,25.65,27.91V308H287.89V271.34c0-14.94-3.92-21.42-15.38-21.42-10.71,0-16.75,7.09-16.75,19.46V308H239.32Z" style="fill:#ff7367"/><path d="M322.44,281.9V237.7h16.44v40.13c0,11.31,3.62,17.95,14.34,17.95,12.52,0,17-8.3,17-18.41V237.7H386.7V308H370.26v-9.81c-4.22,7.54-11.61,11.62-21.72,11.62C333.15,309.81,322.44,300.75,322.44,281.9Z" style="fill:#ff7367"/><path d="M401,286.42h16.44c0,6,5.88,10.26,14.33,10.26,6.19,0,10.11-3.32,10.11-8.3,0-3.92-1.66-6.33-9.2-8.29l-14-3.77c-9.81-2.72-15.39-9.81-15.39-19.76,0-11.92,11.31-20.67,27-20.67,17.2,0,27.76,8.3,27.76,21.87H441.92c0-5.88-4.53-9.35-12.22-9.35-5.88,0-10.11,3-10.11,7.24,0,3.77,2.26,6.34,8.75,8.15l14,4.07c10,2.87,16.29,10.11,16.29,20.06,0,13.73-10.71,21.88-27.75,21.88C413.71,309.81,401,299.85,401,286.42Z" style="fill:#ff7367"/><path d="M341.15,218.43l30-8.09L374,223l-33.48,3.58Q340.86,222.5,341.15,218.43Z" style="fill:#ff7367"/><path d="M369.72,389.32a57,57,0,0,1,3.17,4.86,13.64,13.64,0,0,1,0,12.77,52.34,52.34,0,0,0-4.75,18.11c-.73,8.38.16,16.49,3.89,24.08.17.34.35.68.59,1.13a7.81,7.81,0,0,1,8.49-1.19c2.92,1.32,4.47,3.87,5.31,6.94a3.73,3.73,0,0,0,1.59-4.38c-2.68-8.78-8.49-14-17.19-16l-.37-.07c-.56-.16-1.45,0-1.29-1s1-.68,1.63-.58a22.41,22.41,0,0,1,8.74,3.36,23.52,23.52,0,0,1,9.51,12.07,2.66,2.66,0,0,0,.71,1.14c.54-1.64,1.05-3.28,1.62-4.91a8.34,8.34,0,0,0-.36-6c-3.06-7.82-8.63-12.53-16.64-14.28-.24-.05-.55,0-.73-.14a12.14,12.14,0,0,1-1-1c.41-.2.83-.59,1.21-.56a16,16,0,0,1,3.07.64,23.32,23.32,0,0,1,15.3,13.92,2.34,2.34,0,0,0,.56.84c.3-3.73,1.31-7.42-.82-11.05-3.71-6.32-8.81-10.66-15.77-12.62-.61-.17-1.39-.29-1.15-1.18s1-.6,1.58-.43a26.86,26.86,0,0,1,15.11,10.8c.25.37.51.73.88,1.25a20.94,20.94,0,0,0-14-19.71,6.57,6.57,0,0,1-1.41-.51c-.41-.28-1-.79-1-1.13.11-.84.83-.64,1.4-.46a26.62,26.62,0,0,1,8,4.13,2.35,2.35,0,0,0,1.2.55c-1.16-1.9-2.3-3.8-3.47-5.69-.77-1.23-1.62-2.4-2.31-3.67-.19-.35,0-.95.09-1.44.41.19,1,.25,1.21.57.84,1.15,1.58,2.38,2.47,3.75.35-1.43.65-2.65,1-3.87a2.59,2.59,0,0,1,.44-1.06,8.34,8.34,0,0,1,1.25-.94c.07.52.35,1.12.19,1.54a13.89,13.89,0,0,0-1,6.43,4.05,4.05,0,0,0,.39,1.46c1.3,2.64,2.64,5.26,4,7.88.07.13.17.26.11.17l3-8.47a4.32,4.32,0,0,1,.34-.68c.33-.6.63-1.42,1.48-.93s.21,1.1,0,1.67a44.67,44.67,0,0,0-2,5c-1,3.59-1.5,7.23-.34,10.91.45,1.42.65,2.91,1,4.74.43-1.43.67-2.57,1.11-3.63,1.15-2.77,2.37-5.51,3.59-8.25.26-.58.61-1.31,1.39-.88s.33,1.1,0,1.67a42.79,42.79,0,0,0-5.2,15.81c0,.16,0,.33-.05.86.31-.52.45-.74.57-1a31.14,31.14,0,0,1,8.52-10.42,1.47,1.47,0,0,0,.52-1.94c-4.54-13.43-13.54-22.25-26.44-27a46.6,46.6,0,0,0-5.31-1.52C372.08,389.54,370.86,389.47,369.72,389.32Z" style="fill:#ff7367"/><path d="M403.57,457.91a17,17,0,0,0-7.16-8.35,4.56,4.56,0,0,1-1.07-.65,4,4,0,0,1-.52-1.12c.42-.1.94-.41,1.26-.26a17.74,17.74,0,0,1,6.18,4.91,20.92,20.92,0,0,1,2.67,4.34c2.12-1.76,4.08-3.65,6-5.56a8.55,8.55,0,0,0-.41-1.24,22.05,22.05,0,0,0-10.33-11.6c-.56-.3-1.29-.59-.85-1.4s1.08-.35,1.63-.06a23,23,0,0,1,10.7,11.63c.17.4.34.8.56,1.37l.72-.73a30.46,30.46,0,0,1,1.23-3.47c1.45-3.22.62-6.09-.93-8.92a19.73,19.73,0,0,0-7.26-7.63c-.11-.07-.28-.09-.32-.18-.21-.44-.39-.89-.57-1.34.44,0,1-.3,1.29-.1a50.53,50.53,0,0,1,5.86,4.94,38.94,38.94,0,0,1,3.62,5.44c.37-3.26.86-6.5.3-9.71a7.86,7.86,0,0,0-4.93-6.05c-.39-.17-.6-.75-.9-1.13.5-.13,1.12-.51,1.46-.34,1.39.72,2.69,1.61,4.07,2.47a6.43,6.43,0,0,1-.18-1.54,4.51,4.51,0,0,1,.58-1.32c.33.35.92.67,1,1.06.3,3.37.51,6.75.74,10.13,0,.33,0,.65,0,1.17,1.65-1.44,3-3,5.29-2.95-1.21-6.23-3.94-11.76-7.5-17.21-2.37,4.3-6.6,6.11-10,8.89A31.87,31.87,0,0,0,394.2,441c-.82,4.39-1.61,8.79-2.27,13.2-.29,1.95-.22,3.94-.33,6.06a10.73,10.73,0,0,1,6.52,2.22C399.92,460.93,401.74,459.43,403.57,457.91Z" style="fill:#ff7367"/><path d="M370.73,478.44a2.3,2.3,0,0,0-1.68-.77c-.61,0-1.37.34-1.47-.6s.72-1,1.39-1.09c.28,0,.58,0,.74,0a3.47,3.47,0,0,1,2.67,2,7.23,7.23,0,0,1,4.82-1.56c.86-.44,1.73-.87,2.58-1.32a8.88,8.88,0,0,0-7.42-4.45,7.26,7.26,0,0,0-7.45,7.1A6,6,0,0,0,365,479a6.93,6.93,0,0,0,1.08,2.54q2.41-1,4.8-2.11A1.91,1.91,0,0,0,370.73,478.44Z" style="fill:#ff7367"/><path d="M374.63,462.18a2,2,0,0,1-.75-1,39.47,39.47,0,0,1-1.29-5.73,4.54,4.54,0,0,1,3.18-5.1,6.17,6.17,0,0,1,6.69,1.65c2.59,2.71,3,6,2.18,9.54a1.47,1.47,0,0,1-.53.81,14.18,14.18,0,0,0-5.28,6.19A11.16,11.16,0,0,0,374.63,462.18Zm5.59-8.18c.19-.29,0-.83,0-1.25-.4.07-1,0-1.18.24a1.82,1.82,0,0,1-2.67.37c-.29-.18-.8,0-1.21,0,.11.45.09,1,.37,1.29a5.43,5.43,0,0,0,1.43.76A3.2,3.2,0,0,0,380.22,454Z" style="fill:#ff7367"/><path d="M388.73,470.25l1.85-1.1c.45-.43.89-.85,1.32-1.23q2.44-2.24,5-4.36c-2.47-1.87-5.33-2-8.19-1.3a11.2,11.2,0,0,0-8.68,8.27,10.6,10.6,0,0,0-.21,1.48,45.35,45.35,0,0,1,6.14-1.74A10.66,10.66,0,0,1,388.73,470.25Z" style="fill:#ff7367"/><path d="M424.25,439.54a42.85,42.85,0,0,0-.72-8.69c-.6.32-1,.55-1.49.77a7.83,7.83,0,0,0-4.32,5.39c-.67,2.92-1.19,5.87-1.79,8.88l.54-.17A47.9,47.9,0,0,1,424.25,439.54Z" style="fill:#ff7367"/><path d="M365.79,471.59c-1.7-1.42-2.82-3.09-2.53-5.33A4.64,4.64,0,0,1,367,462.2a8.57,8.57,0,0,1,4.15.07c3.58,1.05,6.27,4.72,6,8C373.07,468.33,369.27,468.41,365.79,471.59Zm.89-7.6c-.16-.24-.78-.15-1.2-.22,0,.42-.17,1,0,1.24a1.64,1.64,0,0,1-.34,2.63c-.26.21-.26.78-.37,1.19.44,0,1.06.28,1.3.07a19.88,19.88,0,0,0,1.88-2.23A24,24,0,0,0,366.68,464Z" style="fill:#ff7367"/><path d="M390,460.25c.1-2.2.18-4.33.27-6.53-1.17,1.61-2.36,3.06-3.31,4.65a8.87,8.87,0,0,0-.56,2.69Z" style="fill:#ff7367"/><path d="M328.46,464.9c-.23-4.68-1.37-8.75-6.33-11,.39-.33.71-.63,1.06-.89a17.7,17.7,0,0,1,12.18-3.47c.67.05,1.77.54,1.85-.64s-1.08-.91-1.76-.95a18.54,18.54,0,0,0-14,4.41,5.1,5.1,0,0,1-3.9,1.38c-.37-8.34.64-13.47,8.54-18.06a16.7,16.7,0,0,1,9-2,5.1,5.1,0,0,0,1.4,0,1.26,1.26,0,0,0,.82-.72c.06-.17-.36-.67-.65-.75a7.47,7.47,0,0,0-1.78-.17A18.78,18.78,0,0,0,320,438.42l-.8.81a16.4,16.4,0,0,1,.34-1.71c1.34-3.74,2.67-7.48,4.07-11.2a4.1,4.1,0,0,1,1.24-1.55A18.74,18.74,0,0,1,335,420.69c.46-.05,1.24-.53,1.24-.82,0-.89-.79-.8-1.44-.75a27,27,0,0,0-8.86,2.45c1.32-2,2.66-4,3.95-6,2.22-3.5,5.6-4.83,9.66-4.91.17,0,.39.07.51,0,.34-.23.64-.51,1-.77-.32-.27-.65-.78-.95-.77-1.66,0-3.31.22-5,.35a3.82,3.82,0,0,1,.48-.65c1.79-1.72,3.63-3.41,5.38-5.17.31-.32.26-1,.37-1.46-.48.08-1.13,0-1.43.27-2.42,2.29-4.78,4.65-7.15,7l-.77.79c0-2,.05-3.91,0-5.82,0-.61,0-1.42-1-1.34s-.75.85-.69,1.48a18.54,18.54,0,0,1-1,8.29,11.94,11.94,0,0,1-1.12,2.23c-1.23,1.94-2.51,3.84-4,6a28.58,28.58,0,0,0,.05-2.86c-.2-2.55-.44-5.09-.7-7.63-.07-.62-.24-1.42-1.12-1.14-.3.1-.56,1-.47,1.42a33.23,33.23,0,0,1-.19,14.35c-.76,3-2,5.81-3.06,8.87a36.54,36.54,0,0,0-2-4.94,56,56,0,0,0-3.7-5.3c-.35-.49-.94-1-1.45-.35-.21.26,0,1.12.31,1.45a19.87,19.87,0,0,1,5.46,13.16,8.47,8.47,0,0,1-.15,1.74c-.44,2.34-.91,4.67-1.37,7a19.68,19.68,0,0,0-2-3c-1.87-2-3.87-3.92-5.89-5.79a1.64,1.64,0,0,0-1.52-.13c-.62.68.1,1.06.64,1.43a20.75,20.75,0,0,1,8.34,11.6,7.22,7.22,0,0,0-5.62-2.18c-2.2.2-3.75,1.44-5.47,2.93-.16-2.69-.5-5.4-.43-8.09.32-13,4.74-24.41,14.13-33.69,8-8,19.22-11.25,29.11-10.81-.28.43-.5.8-.74,1.15-3.55,5.07-6.17,10.58-6.59,16.76-.23,3.38.39,6.84.78,10.25.67,5.83,1.52,11.67.93,17.54-.86,8.68-5.22,15.32-12.71,20A2.25,2.25,0,0,1,328.46,464.9Z" style="fill:#ff7367"/><path d="M343.6,485.54a8.18,8.18,0,0,1-.7-1.35,16.66,16.66,0,0,0-4.12-5.08,7.56,7.56,0,0,1-4.64,4.93,27.94,27.94,0,0,0,13.92,4.34c6.44-2.2,12.8-4.57,19-7.24a36,36,0,0,0,5.26-5.6,32,32,0,0,1,10.83-9.2,4.36,4.36,0,0,0,.86-.81,3.71,3.71,0,0,0-1.12-.63,36.15,36.15,0,0,1-15.51-6.57,17,17,0,0,0-5.12-2.62c-9.7-2.85-18.23-.58-25.7,5.75a22.49,22.49,0,0,0-5.16,6.49l3.69,1.45c.35-1.39.61-2.7,1-4,.12-.36.63-.59.95-.89.21.4.61.82.57,1.19a8.93,8.93,0,0,1-.65,2.92,2.54,2.54,0,0,0,.85,3.49.86.86,0,0,0,.21-.07c.18-.12.35-.25.51-.38a21.2,21.2,0,0,0,7.51-12.76c.11-.59.13-1.3,1-1.17s.74.89.59,1.5a23.54,23.54,0,0,1-1,3.75c-.92,2.13-2,4.18-3,6.21,1.54-.56,3.23-1.13,4.87-1.79a12.71,12.71,0,0,0,3.15-1.57,16.88,16.88,0,0,0,5.61-8.49c.12-.38.71-.62,1.08-.92.15.45.55,1,.43,1.34a27.13,27.13,0,0,1-1.79,4.27,40.27,40.27,0,0,1-2.52,3.7c2.38-.28,4.7-.7,7-.77a7.53,7.53,0,0,0,6.65-4.17c.21-.35.8-.49,1.22-.72.08.47.37,1.05.19,1.38-.65,1.15-1.47,2.21-2.23,3.32l.44.08c2.22.23,4.45.42,6.66.73.37.06.67.67,1,1a3.7,3.7,0,0,1-1.25.52,10.74,10.74,0,0,1-2-.36,30.54,30.54,0,0,1,2.23,2.91c.2.33-.07.92-.13,1.39a4.22,4.22,0,0,1-1.23-.57c-.46-.43-.74-1-1.19-1.5-1.2-1.22-2.55-2.5-4.34-2.51-3.3,0-6.59.3-9.89.49a1.22,1.22,0,0,0-.47.21,58.9,58.9,0,0,1,5.66,3.57,50.33,50.33,0,0,1,5.05,4.86c.3.31.44,1.24.22,1.46-.66.66-1.11,0-1.51-.53l-.08-.1a26.43,26.43,0,0,0-12.21-8.39,2.67,2.67,0,0,0-1.6-.09c-2.85.91-5.66,1.9-8.48,2.88a5.25,5.25,0,0,0-.93.56c.53.12.82.19,1.1.27a18.71,18.71,0,0,1,12.8,10.7c.27.58.65,1.27-.2,1.62s-1.05-.43-1.34-1a23.93,23.93,0,0,0-1.2-2.23,16.66,16.66,0,0,0-13.26-7.92c-.8-.07-1.67.71-2.51,1.09.61,1.32,0,2.94,1.47,4.1a16.25,16.25,0,0,1,5,6.84c.15.36-.18.9-.29,1.36A4.91,4.91,0,0,1,343.6,485.54Z" style="fill:#ff7367"/><path d="M323.12,496.56a18.84,18.84,0,0,0-.62-3.79c-.35-1.27-1.4-2.36-2.12-3.53l-.5.09a8.5,8.5,0,0,1-2.06,5.51,8,8,0,0,1-5.66,2.51,16.52,16.52,0,0,0,2.16,1.9C317.26,498.37,320.2,497.47,323.12,496.56Z" style="fill:#ff7367"/><path d="M312.61,499.75c-.4-.28-.81-.53-1.2-.83-2.21-1.7-4.26-3.62-6.55-5.59-.11.58-.24,1-.29,1.52a13.65,13.65,0,0,0,1,6.85C308,501.08,310.28,500.43,312.61,499.75Z" style="fill:#ff7367"/><path d="M292.88,504.48q3.45-.6,6.87-1.36c.2-1.1.38-2.19.6-3.28-1.64.27-3.09.58-4.56.71-.38,0-.81-.5-1.22-.77.4-.26.78-.73,1.2-.75,2.15-.11,4.22-.65,5.49-2.32a39.93,39.93,0,0,0,3-5.59,21.3,21.3,0,0,1-2.62.73,13,13,0,0,1-2.57,0c-1-.07-1.57-.56-1.23-1.61a3.74,3.74,0,0,0-.53.6A34.41,34.41,0,0,0,292.88,504.48Z" style="fill:#ff7367"/><path d="M312.66,469.5a9.24,9.24,0,0,0,5,3.1,1.45,1.45,0,0,1,.9.83,18,18,0,0,0,3.14,6.3,3.83,3.83,0,0,1,.55,2.23c0,4.66-3.52,7.57-8,6.64a6.11,6.11,0,0,1-3.83-2.59c-2.91-4.15-2.79-10.72.33-14.64C311.35,470.73,312,470.18,312.66,469.5ZM317.9,485l1-.37c-.29-.43-.49-1.06-.9-1.26a3.17,3.17,0,0,0-4.46,2c-.1.39.26.9.41,1.36.36-.26.87-.44,1.06-.78C315.66,484.71,316.21,484.42,317.9,485Z" style="fill:#ff7367"/><path d="M318.15,471c-4.34-.81-7-5.78-5.58-10.59a7.26,7.26,0,0,1,9.11-4.79,6.38,6.38,0,0,1,1.17.51c4.83,2.76,5.16,10.88.59,13.88A7.12,7.12,0,0,1,318.15,471Zm.28-11.4a3.48,3.48,0,0,0,4.27,4c.48-.13,1.21-.76,1.18-1.11-.09-.9-.89-.5-1.51-.52a2.81,2.81,0,0,1-1.89-.65,2.27,2.27,0,0,1-.2-1.83c.16-.6.76-1.19-.1-1.59s-1.17.37-1.47,1A6.71,6.71,0,0,0,318.43,459.61Z" style="fill:#ff7367"/><path d="M320.3,472.79a9.2,9.2,0,0,0,6.29-3.41,1.23,1.23,0,0,1,1-.3,30.93,30.93,0,0,1,5.47,1.3,6.88,6.88,0,0,1,3.84,9c-1.28,3-5.27,4.38-8.89,3.08A13.32,13.32,0,0,1,320.3,472.79ZM333,477.37a14,14,0,0,0,.53,2.49c.14.33.74.47,1.13.69.14-.38.5-.85.38-1.14a2.52,2.52,0,0,1,.81-3.13c.21-.19.12-.72.17-1.09-.42,0-1-.25-1.21-.06A22.45,22.45,0,0,0,333,477.37Z" style="fill:#ff7367"/><path d="M311.5,467.89a43.84,43.84,0,0,0-3.61,5.25,13,13,0,0,0-.7,9.09,1.48,1.48,0,0,1-.51,1.64c-2.85,2.69-7.16,1.59-8.58-2.28-1.1-3-.31-5.85,1.32-8.39,2.41-3.76,5.88-5.87,10.6-5.59A9.12,9.12,0,0,1,311.5,467.89Zm-9.92,12.86a8.39,8.39,0,0,0-2,.17c-.34.13-.54.6-.8.92.35.21.73.64,1,.6a2.31,2.31,0,0,1,2.43,1c.19.26.76.26,1.15.38.07-.41.35-1,.17-1.19A20,20,0,0,0,301.58,480.75Z" style="fill:#ff7367"/><path d="M315.57,454.5c-.81-2.06-2-3.67-4.26-4.1a4.64,4.64,0,0,0-5,2.26,8.59,8.59,0,0,0-1.26,4c-.15,3.73,2.48,7.45,5.65,8.2C310.15,460.36,311.44,456.79,315.57,454.5Zm-5.37.5a21.07,21.07,0,0,1-2.12-2.09c-.18-.22.1-.79.17-1.2.4.13,1,.15,1.16.42a1.65,1.65,0,0,0,2.61.52c.28-.18.82,0,1.24,0-.11.43-.07,1.09-.35,1.25A17.8,17.8,0,0,1,310.2,455Z" style="fill:#ff7367"/><path d="M329.77,491.72c-2.47,1.26-6.27-.11-7.91-3.14a1,1,0,0,1,.08-.77,28,28,0,0,0,1.43-2.63,24.08,24.08,0,0,0,.77-3.07,10.68,10.68,0,0,0,8.1,2.34c1.69,3,.48,6.48-2.49,7.27.33-.44.95-.9.91-1.3a3.34,3.34,0,0,1,1.33-3.31c.23-.17.15-.72.22-1.1-.42,0-.95-.26-1.25-.1C329.44,486.74,327.93,489.71,329.77,491.72Z" style="fill:#ff7367"/><path d="M318,490.14a5.65,5.65,0,0,1-3.82,5.16,6.16,6.16,0,0,1-6.54-1.51,8.69,8.69,0,0,1-2.34-5.59c-.2-2,1.63-2.18,2.66-3.25C310,489.2,313.29,491,318,490.14Zm-8.63-.17a6.92,6.92,0,0,0-1.68.12c-.34.1-.58.56-.87.86.35.24.73.7,1,.66a3.44,3.44,0,0,1,3.74,1.87c.16.27.76.29,1.15.43.09-.4.37-.88.23-1.19A4.83,4.83,0,0,0,309.41,490Z" style="fill:#ff7367"/><path d="M297.9,490.24c.73-1.16,1.43-2.33,2.2-3.47a1,1,0,0,1,.76-.19c.92.14,1.83.35,2.76.53.33,2.45-.83,3.47-3.71,3.24l-2-.14Z" style="fill:#ff7367"/><path d="M327.74,467.32l2.69-1.51C330.06,467.55,329.8,467.71,327.74,467.32Z" style="fill:#ff7367"/><path d="M287.78,407.51a58,58,0,0,1-1.26,5.67,13.67,13.67,0,0,1-9.14,8.92,52.17,52.17,0,0,0-16.28,9.24c-6.51,5.32-11.7,11.62-14.53,19.59-.13.36-.24.72-.4,1.21a7.79,7.79,0,0,1,6.77,5.25c1.1,3,.36,5.9-1.25,8.65a3.72,3.72,0,0,0,4.24-1.92c4.42-8.05,4.11-15.86-.56-23.45-.07-.11-.15-.21-.21-.32-.29-.51-1-1.05-.19-1.61s1.19.25,1.55.76a22.35,22.35,0,0,1,3.69,8.6,23.43,23.43,0,0,1-2,15.24,2.73,2.73,0,0,0-.32,1.31c1.55-.76,3.08-1.54,4.65-2.27a8.36,8.36,0,0,0,4.05-4.45c3.47-7.64,2.95-14.93-1.39-21.87-.13-.22-.38-.41-.4-.63a11.37,11.37,0,0,1,0-1.43c.43.15,1,.18,1.25.48a16.82,16.82,0,0,1,1.69,2.63,23.4,23.4,0,0,1,.71,20.68,2.22,2.22,0,0,0-.22,1c2.88-2.4,6.23-4.25,7.34-8.31,1.94-7.06,1.49-13.74-2-20.1-.3-.55-.76-1.19.05-1.64s1.11.28,1.41.83a26.84,26.84,0,0,1,2.8,18.35c-.08.44-.16.88-.28,1.51a20.94,20.94,0,0,0,4.33-23.8,7,7,0,0,1-.62-1.37c-.09-.49-.14-1.28.13-1.49.67-.51,1,.14,1.3.68a26.55,26.55,0,0,1,2.65,8.63,2.4,2.4,0,0,0,.44,1.25c.55-2.16,1.12-4.31,1.65-6.46.35-1.41.6-2.84,1-4.22.12-.38.72-.62,1.09-.93.16.42.5.87.44,1.26-.23,1.41-.6,2.79-1,4.38,1.27-.74,2.35-1.38,3.45-2a2.57,2.57,0,0,1,1.07-.43,7.47,7.47,0,0,1,1.54.24c-.32.41-.55,1-1,1.21a13.73,13.73,0,0,0-5.33,3.75,4.1,4.1,0,0,0-.78,1.3c-1,2.77-1.91,5.56-2.86,8.34-.05.14-.07.3-.05.2l8.14-3.79a4.43,4.43,0,0,1,.73-.23c.65-.18,1.45-.54,1.69.41s-.64.92-1.21,1.15a45.42,45.42,0,0,0-5,2.05c-3.28,1.77-6.22,4-8.05,7.37-.7,1.31-1.63,2.5-2.67,4.05,1.33-.69,2.31-1.32,3.37-1.74,2.79-1.11,5.6-2.15,8.42-3.19.6-.22,1.36-.48,1.6.38s-.55,1-1.18,1.18a42.73,42.73,0,0,0-15,7.3c-.13.1-.25.22-.65.57.59-.14.84-.19,1.09-.26A31,31,0,0,1,289.85,454a1.45,1.45,0,0,0,1.75-1c6.45-12.62,6.49-25.23.91-37.81a43.79,43.79,0,0,0-2.62-4.86C289.27,409.35,288.47,408.44,287.78,407.51Z" style="fill:#ff7367"/><path d="M192,494.91c.72-1.12,1.49-2.22,2.21-3.35a1.09,1.09,0,0,0-.5,0c-1.68.69-3.37,1.35-5,2C189.73,494.06,190.85,494.49,192,494.91Z" style="fill:#ff7367"/><path d="M201.84,498.34a18.8,18.8,0,0,1,5.8-8.26l.87-.72a6.3,6.3,0,0,0-1.07-.11c-3,.34-5.93.67-8.89,1.07a2.88,2.88,0,0,0-1.41.78,26.92,26.92,0,0,0-3.66,4.38C196.24,496.5,199,497.47,201.84,498.34Z" style="fill:#ff7367"/><path d="M214.34,501.34c1.2.23,2.41.44,3.62.65a35.29,35.29,0,0,0,4.2-5.21,7.54,7.54,0,0,1-6.32-2.43,16.71,16.71,0,0,0-1.51,6.37A4.3,4.3,0,0,0,214.34,501.34Z" style="fill:#ff7367"/><path d="M203.4,498.8l1.49.43c2.59.72,5.19,1.29,7.81,1.8a15.54,15.54,0,0,1,1.52-7c.86-1.7-.42-2.88-.45-4.33-.92,0-2-.31-2.73.1A16.56,16.56,0,0,0,203.4,498.8Z" style="fill:#ff7367"/><path d="M295.75,464.17a6.38,6.38,0,0,1,1-1.2,5,5,0,0,1,1.35-.5c0,.48.16,1.13-.09,1.42-2.2,2.57-4.47,5.08-6.73,7.61-.22.24-.47.46-.84.81,2.18.19,4.27.09,5.81,1.74,3.61-5.22,5.67-11,7.09-17.38-4.74,1.3-9-.46-13.37-1a31.89,31.89,0,0,0-22.07,5.42c-3.72,2.47-7.41,5-11,7.59-1.6,1.15-3,2.59-4.57,4,2.57,3,4,6.21,2.27,10.11,1.63,1.29,3.48.86,5.23.84.31,0,.69-.59.94-1a17.51,17.51,0,0,0,2.56-14,4.21,4.21,0,0,1-.28-1.23,4.27,4.27,0,0,1,.43-1.15c.37.24,1,.39,1.08.72a17.85,17.85,0,0,1,.79,7.86,25.36,25.36,0,0,1-2.93,8.78c2.07-.37,4.13-.81,6.2-1.09a5.09,5.09,0,0,0,4.25-3.5,22.09,22.09,0,0,0,1.1-15.49c-.18-.62-.47-1.34.41-1.6s1,.54,1.18,1.14a22.93,22.93,0,0,1-.86,15.77c-.22.55-.47,1.09-.88,2,1.76-.84,3.16-1.66,4.65-2.2,3.32-1.2,4.79-3.8,5.75-6.89a19.7,19.7,0,0,0,.39-10.52c0-.12-.13-.26-.09-.36.17-.45.37-.9.56-1.34.34.28.93.54,1,.86a50.35,50.35,0,0,1,.55,7.64,38.73,38.73,0,0,1-1.37,6.39c2.6-2,5.26-3.92,7.17-6.57a7.84,7.84,0,0,0,.89-7.75c-.15-.39.11-1,.18-1.43.44.27,1.15.44,1.26.81C295.13,461,295.4,462.59,295.75,464.17Z" style="fill:#ff7367"/><path d="M261.77,505.65a14.28,14.28,0,0,0-1.33-5.15c-.84-1.79-2.43-3.21-3.67-4.81l-.36.22c.08.39.16.79.25,1.17a16.71,16.71,0,0,1,0,8.32Z" style="fill:#ff7367"/><path d="M263.24,493.7c.38-.16.93.09,1.4.15-.25.42-.41,1.09-.76,1.22-1.38.52-2.82.87-4.42,1.34,1.67,2.24,3.23,4.62,5.11,6.72,1,1.09,2.59.75,4,.22.32-.12.6-.41.92-.44a4,4,0,0,1,1.11.18c-.11.39-.13,1.06-.37,1.15-1.22.46-2.49.78-3.74,1.14a2.36,2.36,0,0,1-.57.05c0,.13.09.26.13.4q3,.1,5.91.17c-.25-.89-.5-1.77-.82-2.65A33.41,33.41,0,0,0,258.28,487a2.9,2.9,0,0,0-.72-.31c.76.8.48,1.47-.42,2a13.17,13.17,0,0,1-2.32,1.08,19.25,19.25,0,0,1-2.69.48,39.5,39.5,0,0,0,5.15,3.73C259.15,494.93,261.25,494.53,263.24,493.7Z" style="fill:#ff7367"/><path d="M254.89,505.32a14.06,14.06,0,0,0-1.4-11.59c-.25-.4-.56-.77-.92-1.24-1.21,2.77-2.22,5.39-3.48,7.88a50.19,50.19,0,0,1-2.71,4.56C249.22,505,252.05,505.17,254.89,505.32Z" style="fill:#ff7367"/><path d="M238.15,504.69c2.18,0,4.35.09,6.53.17a16.59,16.59,0,0,0,3-5.59,8,8,0,0,1-6.19.19,8.6,8.6,0,0,1-4.24-4.07l-.49.13c-.14,1.37-.61,2.81-.38,4.1A18.05,18.05,0,0,0,238.15,504.69Z" style="fill:#ff7367"/><path d="M237.69,475.28c4.5,2.19,7.45,8.05,6.62,13.06a6.09,6.09,0,0,1-2.33,4c-3.59,2.75-8,1.66-10-2.55a3.93,3.93,0,0,1-.47-2.25,18.09,18.09,0,0,0,.11-7,1.41,1.41,0,0,1,.45-1.14,9.35,9.35,0,0,0,3.2-5A25.72,25.72,0,0,1,237.69,475.28Zm2.51,14.88c.32.23.86.17,1.29.25-.06-.48,0-1.09-.21-1.4a3.17,3.17,0,0,0-4.88.14c-.28.36-.19,1-.27,1.53l1.06-.1C238.49,489.37,239.11,489.39,240.2,490.16Z" style="fill:#ff7367"/><path d="M225.74,479.52c-5.43-.73-8.63-8.19-5.48-12.77a6,6,0,0,1,.84-1,7.25,7.25,0,0,1,10.28.38c3.33,3.74,3.12,9.35-.45,12A7.13,7.13,0,0,1,225.74,479.52Zm-.54-12.07c-.53-.41-1.14-1-1.75-.23s.2,1,.59,1.47a2.27,2.27,0,0,1,.62,1.74,2.85,2.85,0,0,1-1.42,1.4c-.56.29-1.44.28-1.14,1.13.12.32,1.05.58,1.54.48a3.47,3.47,0,0,0,2.1-5.48A7.34,7.34,0,0,0,225.2,467.45Z" style="fill:#ff7367"/><path d="M227,492.71c-2.7,2.74-6.89,3.22-9.35,1.07a6.88,6.88,0,0,1-.43-9.77,31.43,31.43,0,0,1,4.37-3.54,1.25,1.25,0,0,1,1-.17,9.17,9.17,0,0,0,7.14.36A13.29,13.29,0,0,1,227,492.71Zm-9.32-3.66c-.25-.08-.7.38-1.06.59.2.31.35.82.62.9a2.52,2.52,0,0,1,2.08,2.47c0,.32.55.58.84.87.26-.37.74-.76.72-1.11a13.87,13.87,0,0,0-.59-2.48A23.15,23.15,0,0,0,217.67,489.05Z" style="fill:#ff7367"/><path d="M239,461.87a2,2,0,0,1,.18-1.22,40.57,40.57,0,0,1,3.2-4.91,4.53,4.53,0,0,1,5.87-1.29,6.17,6.17,0,0,1,3.49,5.94c-.13,3.75-2.17,6.34-5.31,8.22a1.45,1.45,0,0,1-1,.19,14.1,14.1,0,0,0-8.12.54A11.18,11.18,0,0,0,239,461.87Zm9.76-1.69c.34-.07.59-.59.89-.9-.34-.23-.68-.69-1-.67a1.81,1.81,0,0,1-2.13-1.66c-.07-.33-.57-.56-.87-.84-.24.39-.68.79-.66,1.17a5,5,0,0,0,.45,1.54A3.23,3.23,0,0,0,248.79,460.18Z" style="fill:#ff7367"/><path d="M236.79,471.54a11.16,11.16,0,0,1,12,.44c2.57,1.59,4.52,3.81,4.83,7,.39,4.1-3,7-6.75,5.77a1.48,1.48,0,0,1-1.17-1.25,13,13,0,0,0-4.56-7.9,46.34,46.34,0,0,0-5.53-3.18A10.14,10.14,0,0,1,236.79,471.54Zm12.31,10.75c-.07.26.43.66.66,1,.31-.28.82-.53.88-.85a2.3,2.3,0,0,1,1.76-1.95c.29-.09.45-.64.68-1-.38-.17-.76-.51-1.13-.48a8.26,8.26,0,0,0-1.86.71A19,19,0,0,0,249.1,482.29Z" style="fill:#ff7367"/><path d="M268.74,484.37c1.09,1.47,2.27,2.95,3.31,4.53a1.53,1.53,0,0,1-.25,1.46c-.71.42-.9-.3-1.23-.81a18.08,18.08,0,0,0-2.45-3.28A4.47,4.47,0,0,0,264,485a44.64,44.64,0,0,1-4.79.43,33.61,33.61,0,0,1,4.6,4c1.66,2.05,3.58,2.26,6,1.87A33.79,33.79,0,0,0,283.72,486,9.73,9.73,0,0,0,278,481.4a2,2,0,0,0-1.1-.11C274.13,482.3,271.39,483.36,268.74,484.37Z" style="fill:#ff7367"/><path d="M295.6,475l-1.59-.53a7.78,7.78,0,0,0-6.88.66c-2.55,1.56-5,3.24-7.61,4.92a10.7,10.7,0,0,1,5.49,5.22A36.48,36.48,0,0,0,295.6,475Z" style="fill:#ff7367"/><path d="M226.12,462.12c-.16-2.21.25-4.19,2.06-5.54a4.64,4.64,0,0,1,5.52-.14,8.61,8.61,0,0,1,2.86,3c1.74,3.3,1,7.79-1.55,9.84C233.53,465.05,230.83,462.39,226.12,462.12Zm6.06-4.67c.07-.28-.43-.67-.67-1-.3.29-.82.55-.87.88a1.65,1.65,0,0,1-2.12,1.6c-.34-.05-.74.36-1.11.56.28.34.54.95.86,1a19.88,19.88,0,0,0,2.91-.21A22.32,22.32,0,0,0,232.18,457.45Z" style="fill:#ff7367"/><path d="M229.42,501.82c2.77.06,5.6-2.81,5.77-6.25a.94.94,0,0,0-.4-.66,28.37,28.37,0,0,1-2.43-1.76,23.22,23.22,0,0,1-2-2.43,10.68,10.68,0,0,1-6.29,5.61c-.22,3.45,2.37,6.06,5.39,5.48-.48-.25-1.25-.4-1.38-.78a3.35,3.35,0,0,0-2.63-2.4c-.28-.07-.45-.59-.68-.9.36-.22.74-.65,1.08-.63C227.57,497.19,230.21,499.21,229.42,501.82Z" style="fill:#ff7367"/><path d="M246.12,486.29c1.39.52,3.11-.12,3.8,1.78a8.68,8.68,0,0,1,.31,6.06,6.18,6.18,0,0,1-5.24,4.19,5.66,5.66,0,0,1-5.68-3C244,494,246.15,491,246.12,486.29ZM245,495.47c0,.34.48.65.73,1,.29-.3.82-.58.84-.89a3.46,3.46,0,0,1,2.57-3.31c.3-.09.44-.68.65-1-.39-.14-.8-.46-1.16-.4a7.12,7.12,0,0,0-1.56.62A4.84,4.84,0,0,0,245,495.47Z" style="fill:#ff7367"/><path d="M257.51,486.69c-1.16-.73-2.3-1.48-3.48-2.17a.91.91,0,0,0-.76.15c-.77.53-1.51,1.11-2.27,1.67.77,2.35,2.25,2.77,4.75,1.32.58-.34,1.18-.67,1.77-1Z" style="fill:#ff7367"/><path d="M251.14,471.53l4.86-4.36c-2,.29-3.84.45-5.65.87a8.83,8.83,0,0,0-2.31,1.48Z" style="fill:#ff7367"/><path d="M129.89,466.87c.52-.44,1-.91,1.54-1.42.32-.32,1.17-.58,1.44-.38.68.47.2,1.09-.27,1.47s-1,.81-1.48,1.22a38,38,0,0,1,4.26,3.67,41,41,0,0,1,7.17,4.05c1.16-.17,2.31-.4,3.47-.68.45-.11,1.33.11,1.44.4.32.86-.47,1.08-1.08,1.18l-2.1.3c1.76,1.24,3.55,2.5,5.46,3.69a43.4,43.4,0,0,0,5.9,3,36.7,36.7,0,0,0-8.87-12.52,46.51,46.51,0,0,0-29.56-12.31c1.8,1.28,3.63,2.53,5.5,3.7C125.14,463.75,127.58,465.24,129.89,466.87Z" style="fill:#ff7367"/><path d="M120.5,390.31c-1.14-.16-2.33-.43-3.53-.48a44.19,44.19,0,0,0-5.52,0C97.74,391,86.69,397,78.69,408.75a1.47,1.47,0,0,0,0,2,30.89,30.89,0,0,1,5.39,12.34c0,.25.14.5.29,1.08.12-.52.17-.68.19-.84a42.72,42.72,0,0,0-.74-16.63c-.16-.63-.41-1.39.46-1.6s1,.59,1.1,1.22c.43,3,.87,5.94,1.23,8.91.14,1.14.06,2.31.09,3.8.87-1.65,1.47-3,2.28-4.28,2.11-3.24,2.63-6.87,2.62-10.6A48.79,48.79,0,0,0,91,398.8c-.08-.61-.48-1.39.42-1.62s1,.64,1.18,1.3a4.72,4.72,0,0,1,.14.75c.2,3,.39,6,.57,8.95-.07.07,0,0,.15-.13,2-2.17,4-4.32,6-6.51a4.31,4.31,0,0,0,.77-1.31,14.06,14.06,0,0,0,.74-6.47c0-.45.38-.95.59-1.43a7.43,7.43,0,0,1,1,1.24,2.53,2.53,0,0,1,.13,1.14c0,1.26-.06,2.52-.1,4,1.22-1.07,2.26-2.06,3.39-2.94.31-.24.87-.16,1.31-.22-.09.48,0,1.12-.29,1.41-1,1-2.15,1.93-3.22,2.91-1.64,1.5-3.25,3-4.88,4.54a2.35,2.35,0,0,0,1.31-.21,26.59,26.59,0,0,1,8.84-1.8c.6,0,1.35,0,1.22.81,0,.34-.77.67-1.25.83a6.62,6.62,0,0,1-1.49.11,21,21,0,0,0-18.83,15.19l1.19-1A26.89,26.89,0,0,1,107.24,412c.62,0,1.41-.07,1.4.85s-.78.82-1.42.82c-7.23,0-13.32,2.81-18.59,7.89-2.29,2.21-2.87,4.94-3.32,7.74a7.52,7.52,0,0,1,0,2.17l.08.07c.06-.07.14-.14.2-.22a23.35,23.35,0,0,1,18.49-9.27,15.65,15.65,0,0,1,3.13.22c.37.06.67.56,1,.86a9,9,0,0,1-1.25.69c-.21.09-.5,0-.75-.05a21.83,21.83,0,0,0-19.62,9q2.34,2.3,4.75,4.51A23.35,23.35,0,0,1,98.06,434a22.3,22.3,0,0,1,9.32-.88c.62.07,1.53-.05,1.41,1s-.92.61-1.51.6l-.37,0a22.21,22.21,0,0,0-14.31,3.77c2.26,2.06,4.54,4.09,6.89,6l2.92,2.44c5.44-6.22,8.42-13.65,9.94-21.76a52.11,52.11,0,0,0,.32-18.72,13.65,13.65,0,0,1,3.46-12.29C117.46,392.72,119.05,391.57,120.5,390.31Z" style="fill:#ff7367"/><path d="M67.23,407.63l.1-.05a2,2,0,0,0,0,.24c.52.68,1.06,1.34,1.59,2,.85-.25,1.7-.49,2.55-.66.38-.08.87.46,1.31.71-.38.29-.75.79-1.16.85a8.57,8.57,0,0,0-1.66.39q2.63,3.18,5.45,6.22c.21.11.44.24.64.32l-.16.21q3.25,3.5,6.72,6.84a31.17,31.17,0,0,0-5.48-13.24c-2.56-3.6-6.15-6.48-7.27-11.27a63.49,63.49,0,0,0-4.77,4.63C65.83,405.77,66.51,406.71,67.23,407.63Z" style="fill:#ff7367"/><path d="M420.79,439.21c-.58.06-1.35.5-1.56-.47s.71-1,1.32-1.12a22.15,22.15,0,0,1,7.91-.21l.2-.08.63-.62c1.8-2.09,3.73-4.12,5.74-6.12a21.91,21.91,0,0,0-14.22-2.3c-.25,0-.52.19-.73.13a11,11,0,0,1-1.32-.58c.31-.33.57-.85.94-.95a16.08,16.08,0,0,1,3.09-.51,23.38,23.38,0,0,1,13.49,3l3.41-3.29a9.18,9.18,0,0,0-1.53-1.6c-5.72-4.57-12-6.8-19.25-6.14-.63.06-1.39.22-1.48-.69s.69-.92,1.32-1a26.82,26.82,0,0,1,18,4.68l1.28.86a21,21,0,0,0-20.15-13.39,6.89,6.89,0,0,1-1.5,0c-.49-.12-1.24-.38-1.33-.71-.2-.82.54-.89,1.15-.93a26.7,26.7,0,0,1,9,1,2.28,2.28,0,0,0,1.32.09c-1.76-1.36-3.51-2.73-5.28-4.07-1.15-.88-2.37-1.67-3.47-2.6-.3-.26-.29-.91-.43-1.38.45,0,1-.11,1.33.1,1.2.77,2.33,1.66,3.65,2.62-.18-1.46-.34-2.71-.47-4a2.57,2.57,0,0,1,0-1.14,8.42,8.42,0,0,1,.83-1.33c.26.46.74.92.73,1.37a14,14,0,0,0,1.33,6.38,4.35,4.35,0,0,0,.89,1.23c2.16,2,4.35,4,6.53,5.93.11.1.25.18.16.12-.08-2.94-.17-6-.26-9a6.53,6.53,0,0,1,.08-.76c.1-.67.08-1.55,1.05-1.4s.59,1,.57,1.57a46.25,46.25,0,0,0-.09,5.39c.33,3.72,1.18,7.29,3.59,10.32.92,1.16,1.65,2.48,2.67,4.05-.12-1.49-.3-2.65-.27-3.79.08-3,.24-6,.4-9,0-.64.1-1.44,1-1.31s.71.9.61,1.54A43,43,0,0,0,442,423.9l1.34-1.29a31.37,31.37,0,0,1,3.77-9.86,1.47,1.47,0,0,0-.22-2c-9-10.91-20.6-15.93-34.36-15.78a46,46,0,0,0-5.5.48,34.42,34.42,0,0,0-3.47.81,57.82,57.82,0,0,1,4.7,3.4,13.66,13.66,0,0,1,4.59,11.92,51.81,51.81,0,0,0,2.05,18.61,50.34,50.34,0,0,0,5.26,12.28,36,36,0,0,1,5.23-3.57,26.31,26.31,0,0,0-4.2.24Z" style="fill:#ff7367"/><path d="M453.48,411.83c-.23-.16-.45-.35-.68-.49.42-.3.86-.88,1.24-.83.15,0,.3,0,.44.06a53.41,53.41,0,0,0,4.11-6.14c-1.21-1-2.45-2-3.77-3-.68,4.87-4,8.07-6.2,11.9a32,32,0,0,0-3,7.06A105.92,105.92,0,0,0,453.48,411.83Z" style="fill:#ff7367"/><path d="M186.79,460.5c3-3.64,4.82-7.43,2.6-12.39.51,0,.94,0,1.37,0a17.71,17.71,0,0,1,11.39,5.54c.47.49,1,1.59,1.81.76s-.2-1.39-.67-1.88a18.55,18.55,0,0,0-13.4-6.07,5.11,5.11,0,0,1-3.83-1.58c5.28-6.46,9.46-9.6,18.41-7.76a16.64,16.64,0,0,1,8.08,4.52,5.51,5.51,0,0,0,1,1,1.34,1.34,0,0,0,1.09,0c.15-.09.17-.74,0-1a6.91,6.91,0,0,0-1.21-1.33,18.81,18.81,0,0,0-15.34-5.23c-.24,0-.49,0-1.13.07a14.77,14.77,0,0,1,1.39-1c3.49-1.9,7-3.8,10.51-5.63a4,4,0,0,1,1.95-.33,18.77,18.77,0,0,1,10.31,3.74c.38.28,1.27.44,1.47.22.61-.65-.06-1.11-.58-1.51a26.66,26.66,0,0,0-8.23-4.09c2.32-.62,4.65-1.2,7-1.85,4-1.13,7.4.13,10.48,2.78.13.11.25.31.38.33a10.13,10.13,0,0,0,1.23.06c-.06-.41,0-1-.19-1.2-1.27-1.07-2.62-2.05-4-3.08a3.61,3.61,0,0,1,.79-.17c2.49-.08,5-.11,7.46-.26.44,0,.84-.55,1.25-.84-.41-.26-.84-.76-1.24-.75-3.34.09-6.66.28-10,.43l-1.1.08c1.35-1.49,2.65-2.89,3.9-4.32.4-.46.93-1.07.18-1.64s-1.12.14-1.49.64a18.66,18.66,0,0,1-6.27,5.52,11.93,11.93,0,0,1-2.32.92c-2.2.62-4.43,1.18-6.95,1.85.78-.84,1.43-1.42,1.95-2.1,1.55-2,3.06-4.09,4.56-6.16.36-.5.77-1.22-.07-1.59-.29-.13-1.06.34-1.3.74a33,33,0,0,1-9.71,10.56c-2.54,1.7-5.35,3-8.2,4.58a38,38,0,0,0,1.81-5,59.23,59.23,0,0,0,.78-6.42c.06-.6,0-1.37-.85-1.23-.33.06-.75.83-.74,1.29a19.92,19.92,0,0,1-4.7,13.45,8.48,8.48,0,0,1-1.28,1.19c-1.88,1.45-3.79,2.88-5.71,4.33a20,20,0,0,0,.56-3.58c-.05-2.75-.27-5.5-.53-8.25,0-.41-.72-1.13-1-1.1-.92.08-.63.85-.49,1.49a20.69,20.69,0,0,1-1.52,14.2,7.18,7.18,0,0,0-2.73-5.37c-1.77-1.32-3.75-1.43-6-1.47,1.68-2.11,3.23-4.35,5.08-6.31,8.91-9.47,19.81-15,33-15.68,11.3-.56,21.83,4.44,28.9,11.37-.5.13-.9.26-1.32.36-6,1.41-11.65,3.77-16.09,8.09-2.43,2.37-4.27,5.36-6.26,8.16-3.39,4.79-6.65,9.71-11,13.69-6.43,5.89-14.11,7.93-22.81,6.41A2.22,2.22,0,0,1,186.79,460.5Z" style="fill:#ff7367"/><path d="M140.13,374.51c-.13,1.92-.43,3.86-.37,5.79a13.64,13.64,0,0,0,6.29,11.12,52.08,52.08,0,0,1,13.06,13.42c4.77,6.92,8,14.41,8.49,22.86,0,.38,0,.76.05,1.27a7.79,7.79,0,0,0-8,3.16c-1.9,2.58-2,5.56-1.21,8.65a3.72,3.72,0,0,1-3.54-3c-2-8.95.48-16.37,7.08-22.36.09-.08.2-.15.29-.24.42-.41,1.25-.73.63-1.5s-1.21-.09-1.7.3a22.36,22.36,0,0,0-5.94,7.23A23.5,23.5,0,0,0,153,436.37a2.63,2.63,0,0,1-.05,1.35c-1.28-1.16-2.53-2.34-3.83-3.47a8.35,8.35,0,0,1-2.65-5.41c-1.2-8.31,1.33-15.15,7.43-20.62.19-.16.48-.28.57-.49a12,12,0,0,0,.39-1.37c-.45,0-1-.11-1.33.11a15.92,15.92,0,0,0-2.36,2.06,23.39,23.39,0,0,0-6.44,19.66,2.53,2.53,0,0,1-.07,1c-2.1-3.1-4.8-5.82-4.74-10,.11-7.33,2.41-13.62,7.5-18.76.45-.45,1.06-.93.42-1.59s-1.15,0-1.59.41a26.8,26.8,0,0,0-7.81,16.84c-.05.45-.09.89-.16,1.53a21,21,0,0,1,2.49-24.07,6.11,6.11,0,0,0,1-1.14c.22-.45.5-1.19.3-1.47-.51-.67-1-.15-1.45.29a26.71,26.71,0,0,0-4.94,7.55,2.37,2.37,0,0,1-.78,1.08c.07-2.23.13-4.45.22-6.67.06-1.44.22-2.88.2-4.33,0-.4-.51-.8-.79-1.2-.27.36-.72.69-.77,1.09-.17,1.41-.2,2.85-.3,4.47-1-1.06-1.88-2-2.76-2.88a2.51,2.51,0,0,0-.9-.71,7.92,7.92,0,0,0-1.55-.2c.19.49.24,1.15.59,1.43a13.88,13.88,0,0,1,4.08,5.08,4.26,4.26,0,0,1,.38,1.47c.17,2.94.29,5.87.42,8.81,0,.15,0,.31,0,.2l-6.76-5.9a4.77,4.77,0,0,0-.64-.43c-.58-.35-1.24-.92-1.74-.07s.36,1.06.85,1.44a45.82,45.82,0,0,1,4.21,3.35c2.66,2.62,4.87,5.55,5.68,9.33.31,1.45.87,2.85,1.43,4.63-1.08-1-1.85-1.91-2.75-2.61-2.37-1.84-4.78-3.62-7.19-5.4-.52-.38-1.18-.85-1.64-.08s.25,1.11.8,1.45a42.77,42.77,0,0,1,12.33,11.19c.1.13.18.27.47.73-.53-.3-.76-.42-1-.56a31,31,0,0,0-12.55-4.87c-1-.15-1.24-.58-1.41-1.44-2.67-13.91.81-26,9.67-36.55a43.6,43.6,0,0,1,3.87-3.94A35.47,35.47,0,0,1,140.13,374.51Z" style="fill:#ff7367"/><path d="M178.25,478.54A7.57,7.57,0,0,0,185,478a16.55,16.55,0,0,1-.32,6.53,8.16,8.16,0,0,0-.38,1.47,4.38,4.38,0,0,0,.37,1.31c.39-.27,1-.45,1.13-.82a16.24,16.24,0,0,0,.86-8.4c-.35-1.87,1.21-2.65,1.64-4,.88.27,2,.27,2.6.86a16.64,16.64,0,0,1,4.59,14.74,23.34,23.34,0,0,1-.59,2.47c-.16.61-.53,1.32.33,1.63s1-.46,1.23-1.07a18.73,18.73,0,0,0-2.39-16.51l-.64-.93a5.7,5.7,0,0,1,1.06.19c2.75,1.15,5.51,2.3,8.24,3.51a2.88,2.88,0,0,1,1.13,1.14,26.41,26.41,0,0,1,3.5,14.4s0,.08,0,.12c0,.64-.16,1.46.77,1.41.32,0,.83-.81.81-1.24a49.49,49.49,0,0,0-.52-7,59,59,0,0,0-1.83-6.43,1.37,1.37,0,0,1,.49.16c2.58,2.06,5.23,4,7.69,6.23,1.33,1.2,1.48,3,1.56,4.77,0,.63-.17,1.27-.11,1.9a4.24,4.24,0,0,0,.53,1.25c.36-.31,1-.57,1-.95a31.5,31.5,0,0,0,.28-3.66,9.85,9.85,0,0,0,1.28,1.63,3.62,3.62,0,0,0,1.27.45c0-.48.18-1.13-.06-1.42-1.44-1.71-3-3.34-4.47-5-.11-.12-.2-.27-.28-.36,1.31-.32,2.63-.56,3.88-1,.35-.12.52-.76.78-1.16-.47-.1-1-.4-1.39-.27a7.54,7.54,0,0,1-7.74-1.33c-1.79-1.51-3.8-2.74-5.76-4.13a40,40,0,0,0,4.35-1.07,27.56,27.56,0,0,0,4.18-2c.33-.19.39-.85.57-1.29-.48,0-1.07-.23-1.41,0a16.87,16.87,0,0,1-9.85,2.59,12.71,12.71,0,0,1-3.39-.94c-1.67-.6-3.3-1.3-4.83-1.91,2.11-.85,4.31-1.63,6.41-2.61a23.2,23.2,0,0,0,3.25-2.12c.52-.35,1.16-.78.56-1.51s-1-.15-1.51.22a21.19,21.19,0,0,1-14.1,4.49,4.48,4.48,0,0,1-.64-.05.61.61,0,0,1-.2-.09,2.53,2.53,0,0,1,1.69-3.16,9.2,9.2,0,0,0,2.44-1.75c.27-.25.25-.83.36-1.26-.44,0-1-.16-1.29,0-1.15.67-2.22,1.47-3.4,2.28L187,464.75a22.23,22.23,0,0,1,8.17-1.39c9.79.26,17.66,4.27,23,12.86a16.87,16.87,0,0,1,2.07,5.37,36.22,36.22,0,0,0,7.17,15.23,3.9,3.9,0,0,1,.41,1.22,4.2,4.2,0,0,1-1.17,0,32,32,0,0,0-14.21-.37c-8.33,1.62-16.34.52-23.69-4.29C183.37,489.93,180.23,484.8,178.25,478.54Z" style="fill:#ff7367"/><path d="M116.68,426.71a6.3,6.3,0,0,0-.6-1.43,4.67,4.67,0,0,0-1.16-.86c-.11.47-.47,1-.31,1.39,1.4,3.08,2.88,6.13,4.35,9.19.14.29.32.56.57,1-2.14-.43-4.13-1.1-6.06.05-2-6-2.37-12.18-2-18.67,4.19,2.57,8.76,2.06,13.12,2.78a31.87,31.87,0,0,1,19.67,11.35c2.89,3.41,5.74,6.86,8.49,10.37,1.21,1.55,2.14,3.32,3.27,5.11-3.3,2.15-5.56,4.85-5,9.07-1.92.79-3.58-.14-5.25-.65-.3-.09-.51-.76-.64-1.19a17.52,17.52,0,0,1,1.45-14.15,4.57,4.57,0,0,0,.6-1.1,4,4,0,0,0-.09-1.23c-.42.13-1,.11-1.23.39a17.72,17.72,0,0,0-3,7.33,25.49,25.49,0,0,0,.37,9.25c-1.88-.93-3.74-1.93-5.65-2.78a5.08,5.08,0,0,1-3.11-4.55,22.08,22.08,0,0,1,3.27-15.18c.34-.54.83-1.15.05-1.64s-1.11.23-1.45.76a22.93,22.93,0,0,0-3.57,15.38c.06.59.15,1.18.28,2.18-1.46-1.29-2.57-2.46-3.86-3.4-2.85-2.08-3.54-5-3.59-8.22a19.77,19.77,0,0,1,2.55-10.21c.07-.11.2-.22.19-.32,0-.48-.1-1-.16-1.45-.4.18-1,.26-1.17.56a49.61,49.61,0,0,0-2.66,7.18,39.16,39.16,0,0,0-.47,6.52c-1.93-2.65-4-5.23-5-8.31a7.85,7.85,0,0,1,1.3-7.69c.26-.33.16-.94.23-1.42-.49.13-1.22.1-1.44.43C118.15,423.87,117.46,425.28,116.68,426.71Z" style="fill:#ff7367"/><path d="M149.74,480.37a47.76,47.76,0,0,0,8.09,3.85,18.9,18.9,0,0,0,5.92-6.93c.59-1.18.54-2.69.78-4.05l-.43-.26a8.58,8.58,0,0,1-5.2,2.73,8,8,0,0,1-5.9-1.91,17,17,0,0,0,1.65,6.9c.16.35-.09.89-.15,1.34-.43-.22-1.14-.36-1.24-.67a65,65,0,0,1-1.87-6.89c-.52-2.75-.76-5.55-1.15-8.54-.47.35-.87.62-1.23.93a14,14,0,0,0-4.54,9.95C146.18,478,147.9,479.23,149.74,480.37Z" style="fill:#ff7367"/><path d="M142.87,475.7a17,17,0,0,1,2.17-6.49c.2-.35.38-.7.57-1l-.29-.32c-1.64,1.19-3.56,2.11-4.86,3.6a13.62,13.62,0,0,0-1.36,1.84C140.39,474,141.63,474.85,142.87,475.7Z" style="fill:#ff7367"/><path d="M136.84,472.07c2-1.34,3.81-2.87,5.69-4.29-1.4-.89-2.68-1.63-3.86-2.52-.3-.22-.27-.91-.4-1.38.47.07,1.07,0,1.39.24,1.68,1.35,3.59,2.33,5.64,1.94a39.85,39.85,0,0,0,6-2.15,18.66,18.66,0,0,1-2.45-1.21,12.37,12.37,0,0,1-1.93-1.69c-.72-.74-.81-1.46.15-2a3.42,3.42,0,0,0-.79.09,33.88,33.88,0,0,0-14.46,9.21,37.36,37.36,0,0,1,3.45,3.08C135.8,471.6,136.33,471.82,136.84,472.07Z" style="fill:#ff7367"/><path d="M172,453.39a9.26,9.26,0,0,0,1.69,5.67,1.47,1.47,0,0,1,.11,1.21,18.13,18.13,0,0,0-1.86,6.79,3.89,3.89,0,0,1-1.08,2c-3.11,3.47-7.67,3.29-10.35-.35a6.07,6.07,0,0,1-1.13-4.48,13,13,0,0,1,10-10.7C170.15,453.43,171,453.45,172,453.39Zm-6.4,15,1,.39c.07-.52.34-1.11.17-1.54a3.18,3.18,0,0,0-4.65-1.5c-.33.23-.4.85-.59,1.29a3.35,3.35,0,0,0,1.31.12C164,466.72,164.64,466.87,165.55,468.39Z" style="fill:#ff7367"/><path d="M175,458.17c-2.69-3.5-1.33-8.95,2.9-11.61a7.27,7.27,0,0,1,10,2.5,6.47,6.47,0,0,1,.53,1.17c1.75,5.27-3.41,11.55-8.82,10.73A7.14,7.14,0,0,1,175,458.17Zm7.82-8.3a3.47,3.47,0,0,0,.49,5.84c.44.23,1.41.25,1.61,0,.53-.74-.32-1-.77-1.4a2.84,2.84,0,0,1-1-1.74,2.27,2.27,0,0,1,1.08-1.5c.51-.34,1.36-.38,1-1.25s-1.12-.51-1.74-.26A5.1,5.1,0,0,0,182.85,449.87Z" style="fill:#ff7367"/><path d="M175.45,460.93a9.13,9.13,0,0,0,7,1.65,1.28,1.28,0,0,1,1,.46,30.19,30.19,0,0,1,3.2,4.61,6.88,6.88,0,0,1-3.13,9.27c-3,1.38-6.85-.25-8.68-3.63A13.34,13.34,0,0,1,175.45,460.93Zm6.42,11.9a15.09,15.09,0,0,0-1.26,2.22c-.12.33.24.84.38,1.27.36-.2.94-.31,1-.6a2.52,2.52,0,0,1,2.68-1.8c.29,0,.57-.45.86-.69-.29-.3-.6-.87-.86-.86A24.18,24.18,0,0,0,181.87,472.83Z" style="fill:#ff7367"/><path d="M172,439.09a39.54,39.54,0,0,0-1.71-5.61A4.53,4.53,0,0,0,165,430.6a6.17,6.17,0,0,0-5,4.74c-.93,3.64.31,6.69,2.8,9.37a1.51,1.51,0,0,0,.86.45,14.11,14.11,0,0,1,7.64,2.78,11.22,11.22,0,0,1,.52-7.63A2.08,2.08,0,0,0,172,439.09Zm-4.64-4.86a5.42,5.42,0,0,1-.87,1.36,3.21,3.21,0,0,1-3.56.37c-.31-.16-.41-.72-.6-1.1.38-.14.84-.48,1.14-.38a1.82,1.82,0,0,0,2.51-1c.16-.3.7-.38,1.07-.57C167.13,433.36,167.44,433.87,167.32,434.23Z" style="fill:#ff7367"/><path d="M172.16,451.41a44.56,44.56,0,0,0-6.2,1.5,13,13,0,0,0-6.58,6.32,1.47,1.47,0,0,1-1.47.87c-3.92.11-6.4-3.59-4.87-7.42,1.18-3,3.67-4.57,6.58-5.37a11.18,11.18,0,0,1,11.63,2.91A9.49,9.49,0,0,1,172.16,451.41Zm-16,3a8.14,8.14,0,0,0-1.6-1.19c-.33-.13-.8.09-1.21.15.12.39.12,1,.38,1.13a2.29,2.29,0,0,1,1.14,2.37c0,.32.39.7.61,1.06.32-.26.91-.51.92-.78A21.84,21.84,0,0,0,156.19,454.37Z" style="fill:#ff7367"/><path d="M137,453.64c-1.46,1.1-3,2.19-4.45,3.42a1.51,1.51,0,0,0-.16,1.47c.56.6,1,0,1.4-.43a17.94,17.94,0,0,1,3.26-2.47,4.49,4.49,0,0,1,4.37-.06,43.32,43.32,0,0,0,4.47,1.75,33.47,33.47,0,0,0-5.53,2.56c-2.17,1.51-4.07,1.18-6.3.11a33.87,33.87,0,0,1-11.91-9,9.76,9.76,0,0,1,6.78-2.81,2,2,0,0,1,1.09.2C132.38,450.14,134.72,451.93,137,453.64Z" style="fill:#ff7367"/><path d="M113.79,437.18l1.68-.07a7.82,7.82,0,0,1,6.42,2.56c2,2.21,3.93,4.51,5.94,6.84a10.75,10.75,0,0,0-6.74,3.49A36.46,36.46,0,0,1,113.79,437.18Z" style="fill:#ff7367"/><path d="M173.57,448.56c-1.85-2.67-1.33-7.19,1.26-9.87a8.7,8.7,0,0,1,3.59-2.11,4.63,4.63,0,0,1,5.27,1.68c1.36,1.8,1.2,3.81.43,5.89C179.52,443.1,176.18,444.9,173.57,448.56Zm6.21-7.62a18.47,18.47,0,0,0,2.74,1c.31.07.73-.45,1.1-.7-.3-.29-.58-.79-.91-.85a1.65,1.65,0,0,1-1.6-2.12c0-.33-.38-.73-.58-1.09-.33.26-.92.5-.93.78A22.77,22.77,0,0,0,179.78,440.94Z" style="fill:#ff7367"/><path d="M169.87,481.35c-2.67-.71-4.59-4.26-3.79-7.61a.92.92,0,0,1,.57-.52c.93-.36,1.93-.57,2.82-1a24.72,24.72,0,0,0,2.62-1.77,10.72,10.72,0,0,0,4.47,7.14c-.75,3.38-4,5.15-6.7,3.76.53-.11,1.31,0,1.54-.36a3.36,3.36,0,0,1,3.2-1.58c.29,0,.6-.43.9-.67-.29-.32-.53-.83-.86-.91C172.94,477.42,169.85,478.63,169.87,481.35Z" style="fill:#ff7367"/><path d="M162.19,472.35a5.65,5.65,0,0,1-6.29,1.3,6.16,6.16,0,0,1-3.86-5.49,8.68,8.68,0,0,1,2-5.73c1.2-1.63,2.67-.53,4.15-.64C156.83,466.29,158.09,469.81,162.19,472.35Zm-6.32-5.89a7.25,7.25,0,0,0-1.33-1c-.32-.16-.81,0-1.22.06.1.41.08,1,.33,1.18a3.45,3.45,0,0,1,1.55,3.89c-.06.31.36.73.56,1.09.33-.24.86-.41,1-.74A4.84,4.84,0,0,0,155.87,466.46Z" style="fill:#ff7367"/><path d="M147.12,459c1.31-.38,2.62-.78,3.95-1.12.19,0,.53.18.69.37.59.72,1.14,1.48,1.71,2.23-1.39,2-2.93,2-4.93-.06-.47-.49-.94-1-1.42-1.45Z" style="fill:#ff7367"/><path d="M157.46,446.21c-1.16-1.87-2.28-3.68-3.45-5.55,1.82.83,3.56,1.51,5.18,2.42.71.4,1.16,1.29,1.81,2.06Z" style="fill:#ff7367"/><path d="M184.64,461.82l3,.67C186.21,463.54,185.91,463.49,184.64,461.82Z" style="fill:#ff7367"/><path d="M175.5,478.73c-.3.24-.61.69-.9.67a3.36,3.36,0,0,0-3.2,1.58c-.23.32-1,.25-1.54.36h0" style="fill:#ff7367"/><path d="M481.51,360.13a3.08,3.08,0,0,0-.25.27c-.08.1-.18.18-.26.28-5,5.76-6.86,12.2-5.39,19.36q3.74-7.14,6.85-14.57A9.51,9.51,0,0,1,481.51,360.13Z" style="fill:#ff7367"/><path d="M480.05,359.34c.44-.44.91-1.24,1.66-.5l0,0a10.49,10.49,0,0,1,.42-1.27,54.49,54.49,0,0,0-5.29-7.05,52.1,52.1,0,0,0-14.57-11.76,13.67,13.67,0,0,1-7.56-10.29,56.38,56.38,0,0,1-.33-5.8c-.83.8-1.77,1.58-2.55,2.49a43.07,43.07,0,0,0-3.37,4.37c-7.55,11.51-9.56,23.95-5.24,37.45a1.46,1.46,0,0,0,1.56,1.26,31.11,31.11,0,0,1,13.05,3.33c.23.12.48.21,1,.44-.34-.41-.43-.54-.55-.66a42.71,42.71,0,0,0-13.57-9.64c-.59-.27-1.34-.53-1-1.35s1.08-.43,1.64-.11c2.6,1.48,5.21,3,7.78,4.5,1,.59,1.85,1.37,3,2.27-.76-1.7-1.49-3-2-4.43-1.25-3.66-3.79-6.3-6.75-8.58a42.8,42.8,0,0,0-4.59-2.83c-.53-.32-1.38-.48-1-1.33s1.12-.41,1.74-.13a4.42,4.42,0,0,1,.69.34l7.41,5.06c0,.1,0,0,0-.2-.48-2.9-1-5.8-1.47-8.7a4.09,4.09,0,0,0-.56-1.41,13.8,13.8,0,0,0-4.65-4.56c-.38-.24-.51-.89-.76-1.35a7.39,7.39,0,0,1,1.56,0,2.53,2.53,0,0,1,1,.6c1,.79,1.95,1.6,3.09,2.53-.1-1.62-.24-3.05-.24-4.48,0-.39.41-.78.63-1.17.33.37.88.71.93,1.1.2,1.43.21,2.88.32,4.32.18,2.22.39,4.43.58,6.65a2.26,2.26,0,0,0,.64-1.16,26.53,26.53,0,0,1,4-8.09c.35-.49.81-1.07,1.39-.46.24.25.05,1-.12,1.49a6.17,6.17,0,0,1-.83,1.25,21,21,0,0,0,.41,24.19c0-.64,0-1.08,0-1.53a26.85,26.85,0,0,1,5.74-17.66c.39-.49.82-1.16,1.53-.59s.17,1.13-.22,1.63c-4.44,5.71-6,12.23-5.21,19.52.44,4.18,3.45,6.55,5.9,9.38a2.42,2.42,0,0,0-.05-1,23.35,23.35,0,0,1,4.05-20.28,16,16,0,0,1,2.1-2.33c.28-.26.86-.19,1.3-.28a10.78,10.78,0,0,1-.22,1.42c-.06.22-.34.36-.5.55-5.41,6.16-7.1,13.26-4.92,21.36a8.31,8.31,0,0,0,3.28,5.05c1.15.79,2.28,1.61,3.42,2.43l.59-1.12a23.47,23.47,0,0,1,.59-15A22.31,22.31,0,0,1,480.05,359.34Z" style="fill:#ff7367"/><path d="M450.77,395.66c-2.27-2.08-4.44-4.14-6.71-6.09a7.78,7.78,0,0,0-6.68-1.77l-1.65.26a36.21,36.21,0,0,0,8.78,11.86A10.7,10.7,0,0,1,450.77,395.66Z" style="fill:#ff7367"/><path d="M441.28,386.22c-.3-.41-.51-.67-.69-.94-1.81-2.86-3.65-5.71-5.41-8.6-.2-.33.09-.94.15-1.42a5.08,5.08,0,0,1,1.25.71,6.52,6.52,0,0,1,.76,1.35c.61-1.51,1.13-3,1.82-4.39.17-.35.9-.41,1.37-.6,0,.48.16,1.07,0,1.44a7.83,7.83,0,0,0-.38,7.79c1.45,2.92,3.77,5.24,6,7.65a39.5,39.5,0,0,1-.31-6.53,49.55,49.55,0,0,1,1.79-7.45c.08-.32.71-.47,1.09-.69.12.47.25.94.34,1.41,0,.1-.1.22-.15.34a19.71,19.71,0,0,0-1.32,10.45c.44,3.2,1.47,6,4.55,7.73,1.38.78,2.63,1.81,4.23,2.92-.25-1-.41-1.56-.54-2.13a22.91,22.91,0,0,1,1.72-15.7c.27-.57.53-1.32,1.34-.93s.42,1.06.15,1.63a22.06,22.06,0,0,0-1.43,15.47,5.08,5.08,0,0,0,3.62,4.14c1.13.35,2.24.74,3.35,1.14.54-1,1.07-2,1.57-3a21.31,21.31,0,0,1-.44-5.21,17.69,17.69,0,0,1,2.06-7.63c.16-.31.77-.36,1.17-.54a4.22,4.22,0,0,1,.25,1.21,4.67,4.67,0,0,1-.48,1.16,17.08,17.08,0,0,0-1.28,8.44c1.27-2.61,2.46-5.1,3.65-7.13.51-.88,1-1.77,1.51-2.65q-3.56-3.48-7.19-6.87a31.87,31.87,0,0,0-20.9-8.93c-4.41-.19-8.89.86-13.35-1.19.37,6.49,1.45,12.56,4.17,18.3C437.06,385.61,439.11,386,441.28,386.22Z" style="fill:#ff7367"/><path d="M459.16,408.48a29.48,29.48,0,0,0,4.35-5.72,4.61,4.61,0,0,0-2.5.85,17.92,17.92,0,0,0-2.94,2.84c-.41.45-.71,1.12-1.34.6a1.52,1.52,0,0,1,0-1.49c1.28-1.39,2.68-2.66,4-3.92-2.46-1.43-5-2.92-7.55-4.37a2,2,0,0,0-1.11-.07,9.71,9.71,0,0,0-6.39,3.6,33.92,33.92,0,0,0,12.89,7.5Z" style="fill:#ff7367"/><path d="M481.51,360.13a3.08,3.08,0,0,0-.25.27c-.08.1-.18.18-.26.28-5,5.76-6.86,12.2-5.39,19.36q3.74-7.14,6.85-14.57A9.51,9.51,0,0,1,481.51,360.13Z" style="fill:#ff7367"/><path d="M480.05,359.34c.44-.44.91-1.24,1.66-.5l0,0a10.49,10.49,0,0,1,.42-1.27,54.49,54.49,0,0,0-5.29-7.05,52.1,52.1,0,0,0-14.57-11.76,13.67,13.67,0,0,1-7.56-10.29,56.38,56.38,0,0,1-.33-5.8c-.83.8-1.77,1.58-2.55,2.49a43.07,43.07,0,0,0-3.37,4.37c-7.55,11.51-9.56,23.95-5.24,37.45a1.46,1.46,0,0,0,1.56,1.26,31.11,31.11,0,0,1,13.05,3.33c.23.12.48.21,1,.44-.34-.41-.43-.54-.55-.66a42.71,42.71,0,0,0-13.57-9.64c-.59-.27-1.34-.53-1-1.35s1.08-.43,1.64-.11c2.6,1.48,5.21,3,7.78,4.5,1,.59,1.85,1.37,3,2.27-.76-1.7-1.49-3-2-4.43-1.25-3.66-3.79-6.3-6.75-8.58a42.8,42.8,0,0,0-4.59-2.83c-.53-.32-1.38-.48-1-1.33s1.12-.41,1.74-.13a4.42,4.42,0,0,1,.69.34l7.41,5.06c0,.1,0,0,0-.2-.48-2.9-1-5.8-1.47-8.7a4.09,4.09,0,0,0-.56-1.41,13.8,13.8,0,0,0-4.65-4.56c-.38-.24-.51-.89-.76-1.35a7.39,7.39,0,0,1,1.56,0,2.53,2.53,0,0,1,1,.6c1,.79,1.95,1.6,3.09,2.53-.1-1.62-.24-3.05-.24-4.48,0-.39.41-.78.63-1.17.33.37.88.71.93,1.1.2,1.43.21,2.88.32,4.32.18,2.22.39,4.43.58,6.65a2.26,2.26,0,0,0,.64-1.16,26.53,26.53,0,0,1,4-8.09c.35-.49.81-1.07,1.39-.46.24.25.05,1-.12,1.49a6.17,6.17,0,0,1-.83,1.25,21,21,0,0,0,.41,24.19c0-.64,0-1.08,0-1.53a26.85,26.85,0,0,1,5.74-17.66c.39-.49.82-1.16,1.53-.59s.17,1.13-.22,1.63c-4.44,5.71-6,12.23-5.21,19.52.44,4.18,3.45,6.55,5.9,9.38a2.42,2.42,0,0,0-.05-1,23.35,23.35,0,0,1,4.05-20.28,16,16,0,0,1,2.1-2.33c.28-.26.86-.19,1.3-.28a10.78,10.78,0,0,1-.22,1.42c-.06.22-.34.36-.5.55-5.41,6.16-7.1,13.26-4.92,21.36a8.31,8.31,0,0,0,3.28,5.05c1.15.79,2.28,1.61,3.42,2.43l.59-1.12a23.47,23.47,0,0,1,.59-15A22.31,22.31,0,0,1,480.05,359.34Z" style="fill:#ff7367"/><path d="M456.32,397.39c-.25-1-.41-1.56-.54-2.13a22.91,22.91,0,0,1,1.72-15.7c.27-.57.53-1.32,1.34-.93s.42,1.06.15,1.63a22.06,22.06,0,0,0-1.43,15.47,5.08,5.08,0,0,0,3.62,4.14c1.13.35,2.24.74,3.35,1.14.54-1,1.07-2,1.57-3a21.31,21.31,0,0,1-.44-5.21,17.69,17.69,0,0,1,2.06-7.63c.16-.31.77-.36,1.17-.54a4.22,4.22,0,0,1,.25,1.21,4.67,4.67,0,0,1-.48,1.16,17.08,17.08,0,0,0-1.28,8.44c1.27-2.61,2.46-5.1,3.65-7.13.51-.88,1-1.77,1.51-2.65q-3.56-3.48-7.19-6.87a31.87,31.87,0,0,0-20.9-8.93c-4.41-.19-8.89.86-13.35-1.19.37,6.49,1.45,12.56,4.17,18.3,1.79-1.38,3.84-.95,6-.77-.3-.41-.51-.67-.69-.94-1.81-2.86-3.65-5.71-5.41-8.6-.2-.33.09-.94.15-1.42a5.08,5.08,0,0,1,1.25.71,6.52,6.52,0,0,1,.76,1.35c.61-1.51,1.13-3,1.82-4.39.17-.35.9-.41,1.37-.6,0,.48.16,1.07,0,1.44a7.83,7.83,0,0,0-.38,7.79c1.45,2.92,3.77,5.24,6,7.65a39.5,39.5,0,0,1-.31-6.53,49.55,49.55,0,0,1,1.79-7.45c.08-.32.71-.47,1.09-.69.12.47.25.94.34,1.41,0,.1-.1.22-.15.34a19.71,19.71,0,0,0-1.32,10.45c.44,3.2,1.47,6,4.55,7.73C453.47,395.25,454.72,396.28,456.32,397.39Z" style="fill:#ff7367"/><path d="M459.16,408.48a29.48,29.48,0,0,0,4.35-5.72,4.61,4.61,0,0,0-2.5.85,17.92,17.92,0,0,0-2.94,2.84c-.41.45-.71,1.12-1.34.6a1.52,1.52,0,0,1,0-1.49c1.28-1.39,2.68-2.66,4-3.92-2.46-1.43-5-2.92-7.55-4.37a2,2,0,0,0-1.11-.07,9.71,9.71,0,0,0-6.39,3.6,33.92,33.92,0,0,0,12.89,7.5Z" style="fill:#ff7367"/><path d="M435.73,388.06l1.65-.26a7.78,7.78,0,0,1,6.68,1.77c2.27,1.95,4.44,4,6.71,6.09a10.7,10.7,0,0,0-6.26,4.26A36.21,36.21,0,0,1,435.73,388.06Z" style="fill:#ff7367"/><path d="M495.4,316.37a9.75,9.75,0,0,0-1.06-1c-.18.41-.55.85-.49,1.23a15.25,15.25,0,0,0,.78,3,25.93,25.93,0,0,0,2.72,5.42l.72-2a24.89,24.89,0,0,1-2.49-6C495.51,316.85,495.54,316.54,495.4,316.37Z" style="fill:#ff7367"/><path d="M486.48,343.81a44.93,44.93,0,0,1,5-2.67c.23-.65.47-1.29.71-1.93-2.19,1.06-4.36,2.15-6.53,3.24-.57.29-1.29.67-.81,1.43S485.93,344.16,486.48,343.81Z" style="fill:#ff7367"/><path d="M493.62,313.07a49.62,49.62,0,0,0,6.89,3c1.2-3.58,2.33-7.17,3.36-10.79A35.15,35.15,0,0,0,493.34,309c-.41.21-1.31.23-1.49,0-.53-.75.18-1.16.75-1.41q3.51-1.53,7.06-3c.79-.32,1.64-.49,2.74-.82-2.51-.71-4.71-1.36-6.92-1.95a12.11,12.11,0,0,0-2.47-.39,18.68,18.68,0,0,0-8.2,1.56c-.57.25-1.25.65-1.61-.21s.41-1.12,1-1.31c1.81-.6,3.63-1.14,5.55-1.74-.35-.17-.67-.32-1-.49-2.94-1.56-5.9-3.1-8.81-4.71-.36-.2-.47-.85-.7-1.29.51,0,1.12-.28,1.51-.08,2.21,1.13,4.37,2.38,6.55,3.57a4,4,0,0,0,.77.27c-.64-1.58-1.3-3.11-1.85-4.68-.1-.29.29-.75.45-1.13a10.18,10.18,0,0,1,1,.68c.1.08.1.32.15.48,1.31,3.85,3.6,6.67,7.61,7.73,2.32.61,4.62,1.3,6.93,1.95a26.8,26.8,0,0,1-5-7.71c-.24-.61-.58-1.35.27-1.6.29-.08,1,.51,1.16.94a18.91,18.91,0,0,0,6.07,7.78,132.61,132.61,0,0,0,3.4-17.35c-1.65.72-3.29,1.47-4.94,2.21-3.13,1.4-6.24,3-9.53,3.83-6,1.46-12.07.63-18-1.23l-1.32-.36C477.1,298.13,483.61,307.8,493.62,313.07Z" style="fill:#ff7367"/><path d="M461.73,322.92c5.29,12.35,14.25,20.79,27.36,24.79.77-2.19,1.55-4.38,2.36-6.57a44.93,44.93,0,0,0-5,2.67c-.55.35-1.18.83-1.66.07s.24-1.14.81-1.43c2.17-1.09,4.34-2.18,6.53-3.24l1-2.69c-.22,0-.45-.09-.67-.15-3.74-1-7.35-.32-10.88.87a48.12,48.12,0,0,0-4.9,2.26c-.56.27-1.17.89-1.67.11s.28-1.16.86-1.52a4,4,0,0,1,.67-.38l8.31-3.38c.09.05,0,0-.18-.1-2.68-1.2-5.36-2.41-8.06-3.58a4.13,4.13,0,0,0-1.48-.32,13.92,13.92,0,0,0-6.37,1.35c-.41.19-1-.06-1.55-.11a7.33,7.33,0,0,1,.88-1.29,2.39,2.39,0,0,1,1-.49c1.2-.39,2.41-.74,3.81-1.17-1.4-.82-2.67-1.49-3.86-2.28-.33-.22-.42-.78-.63-1.18.49-.06,1.07-.33,1.43-.16,1.3.63,2.52,1.42,3.78,2.12,1.95,1.08,3.9,2.13,5.86,3.2a2.3,2.3,0,0,0-.62-1.18,26.88,26.88,0,0,1-4.51-7.81c-.21-.57-.44-1.28.39-1.42.34-.06.88.52,1.18.92a6.8,6.8,0,0,1,.58,1.38,20.85,20.85,0,0,0,17.11,12.91l.6-1.62a26.68,26.68,0,0,1-10.16-13.62c-.2-.59-.52-1.31.35-1.6s1,.49,1.24,1.09a25,25,0,0,0,9.17,12.51q1.25-3.39,2.48-6.79a25.93,25.93,0,0,1-2.72-5.42,15.25,15.25,0,0,1-.78-3c-.06-.38.31-.82.49-1.23a9.75,9.75,0,0,1,1.06,1c.14.17.11.48.18.72a24.89,24.89,0,0,0,2.49,6c1.51-4.22,3-8.48,4.29-12.75a56.77,56.77,0,0,0-7.44.53,52,52,0,0,0-17.86,5.63,13.67,13.67,0,0,1-12.76.61,57,57,0,0,1-5-2.93,34.18,34.18,0,0,0,.67,3.5A46,46,0,0,0,461.73,322.92Z" style="fill:#ff7367"/><path d="M54.63,387.46a24.56,24.56,0,0,0-.43-6.5c0-.25-.2-.51-.15-.73a11.57,11.57,0,0,1,.52-1.34c.34.3.88.53,1,.9a16.81,16.81,0,0,1,.64,3.06,25.07,25.07,0,0,1-.25,7.22c.91,1.76,1.85,3.5,2.86,5.22.29.48.59.95.89,1.42a25.62,25.62,0,0,0,4.38-18.06c-.08-.62-.28-1.38.63-1.51s.94.66,1,1.28a26.88,26.88,0,0,1-3.95,18.14l-.8,1.31a21,21,0,0,0,12.55-20.69,6.86,6.86,0,0,1-.09-1.49c.1-.49.32-1.25.65-1.35.81-.24.92.5,1,1.1a26.56,26.56,0,0,1-.62,9,2.42,2.42,0,0,0,0,1.32c1.29-1.81,2.58-3.62,3.85-5.44.83-1.19,1.57-2.44,2.46-3.58.25-.31.89-.32,1.36-.48,0,.45.15,1,0,1.33-.72,1.24-1.56,2.4-2.46,3.75,1.45-.23,2.69-.45,3.94-.63a2.49,2.49,0,0,1,1.15,0,8,8,0,0,1,1.35.78c-.44.27-.89.77-1.33.78a13.86,13.86,0,0,0-6.32,1.59,4.2,4.2,0,0,0-1.19.94c-1.91,2.24-3.78,4.51-5.66,6.76-.1.12-.17.26-.11.17l8.94-.62a4.9,4.9,0,0,1,.77,0c.68.07,1.55,0,1.44,1s-.93.63-1.55.64a46.09,46.09,0,0,0-5.39.13c-3.7.48-7.23,1.48-10.15,4-1.12,1-2.4,1.73-3.9,2.8v0c1.45-.17,2.59-.4,3.72-.42,3,0,6,0,9,0,.65,0,1.46,0,1.36.92s-.87.75-1.52.68a43.37,43.37,0,0,0-11.5.33c.62.92,1.24,1.83,1.89,2.72a31.86,31.86,0,0,1,6.28,2.56,1.46,1.46,0,0,0,2-.29c10.53-9.48,15.07-21.24,14.36-35a43.92,43.92,0,0,0-.71-5.48c-.21-1.18-.63-2.32-.94-3.44-1.06,1.61-2,3.34-3.21,4.85a13.68,13.68,0,0,1-11.72,5.07,52,52,0,0,0-18.51,2.8c-.87.29-1.73.6-2.58.92C51.13,379.86,52.8,383.69,54.63,387.46Z"/><path d="M54.63,387.46a24.56,24.56,0,0,0-.43-6.5c0-.25-.2-.51-.15-.73a11.57,11.57,0,0,1,.52-1.34c.34.3.88.53,1,.9a16.81,16.81,0,0,1,.64,3.06,25.07,25.07,0,0,1-.25,7.22c.91,1.76,1.85,3.5,2.86,5.22.29.48.59.95.89,1.42a25.62,25.62,0,0,0,4.38-18.06c-.08-.62-.28-1.38.63-1.51s.94.66,1,1.28a26.88,26.88,0,0,1-3.95,18.14l-.8,1.31a21,21,0,0,0,12.55-20.69,6.86,6.86,0,0,1-.09-1.49c.1-.49.32-1.25.65-1.35.81-.24.92.5,1,1.1a26.56,26.56,0,0,1-.62,9,2.42,2.42,0,0,0,0,1.32c1.29-1.81,2.58-3.62,3.85-5.44.83-1.19,1.57-2.44,2.46-3.58.25-.31.89-.32,1.36-.48,0,.45.15,1,0,1.33-.72,1.24-1.56,2.4-2.46,3.75,1.45-.23,2.69-.45,3.94-.63a2.49,2.49,0,0,1,1.15,0,8,8,0,0,1,1.35.78c-.44.27-.89.77-1.33.78a13.86,13.86,0,0,0-6.32,1.59,4.2,4.2,0,0,0-1.19.94c-1.91,2.24-3.78,4.51-5.66,6.76-.1.12-.17.26-.11.17l8.94-.62a4.9,4.9,0,0,1,.77,0c.68.07,1.55,0,1.44,1s-.93.63-1.55.64a46.09,46.09,0,0,0-5.39.13c-3.7.48-7.23,1.48-10.15,4-1.12,1-2.4,1.73-3.9,2.8v0c1.45-.17,2.59-.4,3.72-.42,3,0,6,0,9,0,.65,0,1.46,0,1.36.92s-.87.75-1.52.68a43.37,43.37,0,0,0-11.5.33c.62.92,1.24,1.83,1.89,2.72a31.86,31.86,0,0,1,6.28,2.56,1.46,1.46,0,0,0,2-.29c10.53-9.48,15.07-21.24,14.36-35a43.92,43.92,0,0,0-.71-5.48c-.21-1.18-.63-2.32-.94-3.44-1.06,1.61-2,3.34-3.21,4.85a13.68,13.68,0,0,1-11.72,5.07,52,52,0,0,0-18.51,2.8c-.87.29-1.73.6-2.58.92C51.13,379.86,52.8,383.69,54.63,387.46Z" style="fill:#ff7367"/><path d="M19.25,299.18a34.85,34.85,0,0,1,11.33-4.72c6.65-1.35,11.17-5.34,14.53-10.9.13-.22.25-.44.38-.65s.12-.11.26-.24a2.39,2.39,0,0,1,.25.51c2.15,9.61,2,19-2.19,27.92a33.43,33.43,0,0,1-14.18,15.17,3.48,3.48,0,0,1-.75.25c.82-.74.61-1.43-.25-2a12.64,12.64,0,0,0-2.22-1.28,8.18,8.18,0,0,0-1.27-.39l.63,1.8a7.32,7.32,0,0,1,1.39.77c.54.39,1.09.76,1.64,1.13-.69.37-1.39.71-2.09,1.07,0,.13.08.26.1.38.21.5.43,1,.65,1.51a17.09,17.09,0,0,1,3.35.28c.32,0,.65.64.86,1a17.67,17.67,0,0,1,1.93,11.85c.38.77.77,1.54,1.16,2.31a18.32,18.32,0,0,0,.8-6,25.35,25.35,0,0,0-2.16-9c2,.54,4,1.16,6.08,1.62s3.25,1.79,3.94,3.85A22.08,22.08,0,0,1,43.18,351c-.23.59-.59,1.29.27,1.62s1-.44,1.27-1a22.92,22.92,0,0,0,.5-15.79c-.17-.56-.37-1.12-.7-2.08,1.68,1,3,1.92,4.45,2.59,3.2,1.48,4.44,4.2,5.13,7.36a19.83,19.83,0,0,1-.51,10.51c0,.12-.16.25-.13.35.13.47.29.93.45,1.39.36-.26,1-.46,1-.78a50,50,0,0,0,1.2-7.56,38.51,38.51,0,0,0-.81-6.48c2.41,2.22,4.9,4.35,6.57,7.16a7.84,7.84,0,0,1,.23,7.8c-.19.37,0,.95.06,1.44.45-.23,1.17-.35,1.32-.71.58-1.45,1-3,1.47-4.52a5.85,5.85,0,0,0,.87,1.29,4.45,4.45,0,0,0,1.3.61c0-.48.25-1.11,0-1.42-2-2.76-4-5.45-6.06-8.16-.19-.26-.42-.5-.76-.89,2.19,0,4.27.28,5.94-1.23,3.15,5.51,4.7,11.48,5.57,17.93-4.61-1.71-9-.31-13.41-.17A31.43,31.43,0,0,1,39.81,355c1.75,3.46,3.44,6.9,5,10.32.34.74.67,1.48,1,2.22,0-.2,0-.4-.05-.6,0-.44-.08-.89-.15-1.52a21.28,21.28,0,0,1,5,13.34c.52,1.21,1.06,2.42,1.6,3.63a1.63,1.63,0,0,1,.17-.22l.15.94q1.24,2.75,2.58,5.45a1,1,0,0,0,0-.17c1.2.85,2.23,1.58,3.27,2.29a2.54,2.54,0,0,0,1,.52,8.23,8.23,0,0,0,1.56-.1c-.28-.44-.46-1.08-.86-1.29a13.87,13.87,0,0,1-5-4.19,4.23,4.23,0,0,1-.66-1.37c-.74-2.84-1.43-5.7-2.14-8.55,0-.15,0-.31,0-.2l7.78,4.47a5.56,5.56,0,0,0,.71.29c.64.23,1.4.67,1.72-.26s-.56-1-1.11-1.25a47,47,0,0,1-4.79-2.47c-3.12-2.05-5.86-4.49-7.39-8-.59-1.36-1.41-2.63-2.31-4.26,1.26.8,2.19,1.51,3.21,2,2.68,1.35,5.4,2.62,8.11,3.9.58.27,1.32.6,1.62-.24s-.46-1.05-1.07-1.27a42.71,42.71,0,0,1-14.27-8.57c-.13-.11-.23-.23-.6-.62.57.19.82.26,1.06.36a31.22,31.22,0,0,0,13.26,2.32A1.47,1.47,0,0,1,59.9,363c4.73,11.63,4.44,22.81-.29,33.59.35.57.7,1.15,1.06,1.71,5.25-10.73,5.77-22.47.95-35.38l-.42-1.12A22.11,22.11,0,0,1,72,362c1.06.33,1.55-.07,1.52-1.14a10.8,10.8,0,0,0-.08-1.39,51.94,51.94,0,0,0-3.49-13.32c-5.12-12-13.73-20.25-26.27-24.21-1.38-.43-2.8-.68-4.2-1,1.6-2.31,3.3-4.39,4.61-6.71,5.83-10.32,6.16-21.38,3.19-32.81-.2-.76-.63-1.94-1.14-2.07-1.13-.28-1.17,1.07-1.54,1.78-3.17,6.15-7.76,10.42-14.84,11.92a37.83,37.83,0,0,0-8.59,3.24c-.86.42-1.68.88-2.49,1.36A8.3,8.3,0,0,1,19.25,299.18Zm46.53,42.24-1.64.39a7.75,7.75,0,0,1-6.79-1.26c-2.41-1.77-4.74-3.66-7.16-5.55a10.71,10.71,0,0,0,5.92-4.73A36.42,36.42,0,0,1,65.78,341.42ZM41.45,323a33.87,33.87,0,0,1,13.43,6.48,9.67,9.67,0,0,1-6.1,4.08,1.91,1.91,0,0,1-1.11,0c-2.66-1.24-5.3-2.53-7.86-3.76,1.22-1.37,2.52-2.75,3.69-4.23a1.52,1.52,0,0,0-.12-1.48c-.67-.48-.92.23-1.29.7a18.54,18.54,0,0,1-2.72,3.06,4.47,4.47,0,0,1-4.27.91,44.25,44.25,0,0,0-4.73-.84,34.63,34.63,0,0,0,4.92-3.59C37.13,322.44,39.05,322.39,41.45,323Z" style="fill:none"/><path d="M24.41,320.33c-1-2.86-1.75-5.56-2.8-8.15-.06-.15-.13-.3-.2-.46.95,3.42,2.16,6.78,3.38,10.15a26.07,26.07,0,0,1,4.44-2.62c1.94-.79,4-.2,5.91.79.37.2.94,0,1.41,0-.21-.44-.32-1.12-.66-1.28-1.33-.64-2.73-1.11-4.28-1.71,1.86-2.09,3.61-4.33,5.66-6.26,1.07-1,2.65-.52,4,.12.31.15.57.46.88.52a4.26,4.26,0,0,0,1.12-.08c-.08-.41,0-1.07-.26-1.18-1.18-.56-2.42-1-3.64-1.46a3.16,3.16,0,0,0-.56-.1c1.11-2.62,2.16-5.22,3.33-7.76a2.49,2.49,0,0,1,2.8-1.26c.43,0,.89-.32,1.34-.49-.38-.37-.71-.93-1.15-1.07a8.39,8.39,0,0,0-2.11-.11c.27-1.49.56-3,.81-4.52.1-.6.33-1.38-.62-1.52s-.89.67-1,1.28a29.07,29.07,0,0,1-1,4.23,20.69,20.69,0,0,0-1.07-2.61c-.18-.34-.77-.46-1.18-.68-.1.43-.41.95-.26,1.27,1.84,4,1.2,7.78-1,11.37-.32.54-.63,1.08-1,1.62-.06.1-.18.16-.42.38,0-.71.06-1.28.09-1.84a16.57,16.57,0,0,0-2.12-9.09c-.3-.54-.6-1.17-1.34-.75s-.36,1-.07,1.54c2.52,4.88,2.73,9.78,0,14.45-1,1.71-2.69,3-4.07,4.48l-.34-.25c.12-.38.23-.77.35-1.15a16.56,16.56,0,0,0-2.67-15.79c-.27-.36-1.12-.71-1.4-.55-.69.39-.24,1,.14,1.49,4.1,5.74,4.29,12.84.49,17.92C25.15,319.55,24.8,319.89,24.41,320.33Z" style="fill:none"/><path d="M44.52,359.79a42.71,42.71,0,0,0,14.27,8.57c.61.22,1.38.42,1.07,1.27s-1,.51-1.62.24c-2.71-1.28-5.43-2.55-8.11-3.9-1-.51-2-1.22-3.21-2,.9,1.63,1.72,2.9,2.31,4.26,1.53,3.55,4.27,6,7.39,8a47,47,0,0,0,4.79,2.47c.55.27,1.42.37,1.11,1.25s-1.08.49-1.72.26a5.56,5.56,0,0,1-.71-.29l-7.78-4.47c0-.11,0,0,0,.2.71,2.85,1.4,5.71,2.14,8.55a4.23,4.23,0,0,0,.66,1.37,13.87,13.87,0,0,0,5,4.19c.4.21.58.85.86,1.29a8.23,8.23,0,0,1-1.56.1,2.54,2.54,0,0,1-1-.52c-1-.71-2.07-1.44-3.27-2.29a1,1,0,0,1,0,.17c1.14,2.28,2.34,4.54,3.65,6.76.26.43.53.85.8,1.28,4.73-10.78,5-22,.29-33.59a1.47,1.47,0,0,0-1.66-1.13A31.22,31.22,0,0,1,45,359.53c-.24-.1-.49-.17-1.06-.36C44.29,359.56,44.39,359.68,44.52,359.79Z" style="fill:#ff7367"/><path d="M34.76,345c1.69,3.35,3.39,6.68,5.05,10a31.43,31.43,0,0,0,18.66,5.24c4.42-.14,8.8-1.54,13.41.17-.87-6.45-2.42-12.42-5.57-17.93-1.67,1.51-3.75,1.24-5.94,1.23.34.39.57.63.76.89,2,2.71,4.09,5.4,6.06,8.16.22.31,0,.94,0,1.42a4.45,4.45,0,0,1-1.3-.61,5.85,5.85,0,0,1-.87-1.29c-.49,1.55-.89,3.07-1.47,4.52-.15.36-.87.48-1.32.71,0-.49-.25-1.07-.06-1.44a7.84,7.84,0,0,0-.23-7.8c-1.67-2.81-4.16-4.94-6.57-7.16a38.51,38.51,0,0,1,.81,6.48,50,50,0,0,1-1.2,7.56c-.07.32-.68.52-1,.78-.16-.46-.32-.92-.45-1.39,0-.1.09-.23.13-.35a19.83,19.83,0,0,0,.51-10.51c-.69-3.16-1.93-5.88-5.13-7.36-1.44-.67-2.77-1.6-4.45-2.59.33,1,.53,1.52.7,2.08a22.92,22.92,0,0,1-.5,15.79c-.23.59-.43,1.36-1.27,1s-.5-1-.27-1.62a22.08,22.08,0,0,0,.24-15.53c-.69-2.06-1.77-3.37-3.94-3.85s-4-1.08-6.08-1.62a25.35,25.35,0,0,1,2.16,9A18.32,18.32,0,0,1,34.76,345Z" style="fill:#ff7367"/><path d="M19.61,301a71.89,71.89,0,0,0,1.72,10.42,2.76,2.76,0,0,1,.08.27c.07.16.14.31.2.46,1.05,2.59,1.83,5.29,2.8,8.15.39-.44.74-.78,1-1.16,3.8-5.08,3.61-12.18-.49-17.92-.38-.53-.83-1.1-.14-1.49.28-.16,1.13.19,1.4.55a16.56,16.56,0,0,1,2.67,15.79c-.12.38-.23.77-.35,1.15l.34.25C30.24,316,32,314.73,32.93,313c2.7-4.67,2.49-9.57,0-14.45-.29-.55-.65-1.13.07-1.54s1,.21,1.34.75a16.57,16.57,0,0,1,2.12,9.09c0,.56,0,1.13-.09,1.84.24-.22.36-.28.42-.38.33-.54.64-1.08,1-1.62,2.15-3.59,2.79-7.33,1-11.37-.15-.32.16-.84.26-1.27.41.22,1,.34,1.18.68a20.69,20.69,0,0,1,1.07,2.61,29.07,29.07,0,0,0,1-4.23c.12-.61.09-1.41,1-1.28s.72.92.62,1.52c-.25,1.52-.54,3-.81,4.52a8.39,8.39,0,0,1,2.11.11c.44.14.77.7,1.15,1.07-.45.17-.91.53-1.34.49a2.49,2.49,0,0,0-2.8,1.26c-1.17,2.54-2.22,5.14-3.33,7.76a3.16,3.16,0,0,1,.56.1c1.22.46,2.46.9,3.64,1.46.22.11.18.77.26,1.18a4.26,4.26,0,0,1-1.12.08c-.31-.06-.57-.37-.88-.52-1.33-.64-2.91-1.13-4-.12-2.05,1.93-3.8,4.17-5.66,6.26,1.55.6,3,1.07,4.28,1.71.34.16.45.84.66,1.28-.47,0-1,.23-1.41,0-1.91-1-4-1.58-5.91-.79a26.07,26.07,0,0,0-4.44,2.62c.11.32.23.65.35,1a8.18,8.18,0,0,1,1.27.39,12.64,12.64,0,0,1,2.22,1.28c.86.58,1.07,1.27.25,2a3.48,3.48,0,0,0,.75-.25A33.43,33.43,0,0,0,43.81,311.1c4.15-8.93,4.34-18.31,2.19-27.92a2.39,2.39,0,0,0-.25-.51c-.14.13-.22.17-.26.24s-.25.43-.38.65c-3.36,5.56-7.88,9.55-14.53,10.9a34.85,34.85,0,0,0-11.33,4.72A9.62,9.62,0,0,1,19.61,301Z" style="fill:#ff7367"/><path d="M39.81,329.81c1.22-1.37,2.52-2.75,3.69-4.23a1.52,1.52,0,0,0-.12-1.48c-.67-.48-.92.23-1.29.7a18.54,18.54,0,0,1-2.72,3.06,4.47,4.47,0,0,1-4.27.91,44.25,44.25,0,0,0-4.73-.84,34.63,34.63,0,0,0,4.92-3.59c1.84-1.9,3.76-1.95,6.16-1.34a33.87,33.87,0,0,1,13.43,6.48,9.67,9.67,0,0,1-6.1,4.08,1.91,1.91,0,0,1-1.11,0C45,332.33,42.37,331,39.81,329.81Z" style="fill:#ff7367"/><path d="M65.78,341.42l-1.64.39a7.75,7.75,0,0,1-6.79-1.26c-2.41-1.77-4.74-3.66-7.16-5.55a10.71,10.71,0,0,0,5.92-4.73A36.42,36.42,0,0,1,65.78,341.42Z" style="fill:#ff7367"/><path d="M260.86,27.09a233.85,233.85,0,0,1,91,449.19,233.84,233.84,0,0,1-182-430.82,232.24,232.24,0,0,1,91-18.37m0-13.92c-136.8,0-247.7,110.9-247.7,247.7s110.9,247.7,247.7,247.7,247.71-110.9,247.71-247.7S397.67,13.17,260.86,13.17Z" style="fill:#ff7367"/></g></svg>