<svg xmlns="http://www.w3.org/2000/svg" viewBox="0 0 1991.85 920.44"><polygon points="12.82 125.18 123.95 125.18 123.95 821.56 253.25 821.56 253.25 125.18 365.45 125.18 365.45 26.3 12.82 26.3 12.82 125.18" style="fill:none"/><path d="M378.27,13.68H0V137.81l75.87,73.63h35.26V834.19L187,907.82H340.88V211.44h112.2v-122Zm-12.82,111.5H253.25V821.56H124V125.18H12.82V26.3H365.45Z"/><path d="M743.75,684.81c0,32.61-9.62,53.65-38.47,53.65s-47-18.94-47-52.6V26.3H530V672.19c0,107.29,63.05,162,167.77,162,101.51,0,168.83-54.71,168.83-163.05V26.3H743.75Z" style="fill:none"/><path d="M743.75,684.81c0,32.61-9.62,53.65-38.47,53.65s-47-18.94-47-52.6V26.3H530V672.19c0,107.29,63.05,162,167.77,162,101.51,0,168.83-54.71,168.83-163.05V26.3H743.75Z" style="fill:none"/><path d="M743.75,684.81c0,32.61-9.62,53.65-38.47,53.65s-47-18.94-47-52.6V26.3H530V672.19c0,107.29,63.05,162,167.77,162,101.51,0,168.83-54.71,168.83-163.05V26.3H743.75Z" style="fill:none"/><path d="M743.75,684.81c0,32.61-9.62,53.65-38.47,53.65s-47-18.94-47-52.6V26.3H530V672.19c0,107.29,63.05,162,167.77,162,101.51,0,168.83-54.71,168.83-163.05V26.3H743.75Z" style="fill:none"/><path d="M743.75,684.81c0,32.61-9.62,53.65-38.47,53.65s-47-18.94-47-52.6V26.3H530V672.19c0,107.29,63.05,162,167.77,162,101.51,0,168.83-54.71,168.83-163.05V26.3H743.75Z" style="fill:none"/><path d="M879.45,13.68H730.92V76.79L671.08,13.68H517.21V672.19c0,49.44,12.82,89.41,36.33,117.82C652.92,908.87,706.35,920.44,772.6,920.44c98.31,0,181.65-75.73,181.65-185.14V88.36ZM866.63,671.14c0,108.34-67.32,163.05-168.83,163.05-104.72,0-167.77-54.71-167.77-162V26.3H658.26V685.86c0,33.66,18.17,52.6,47,52.6s38.47-21,38.47-53.65V26.3H866.63Z"/><path d="M1257.73,560.68c3.21,24.2,6.41,55.75,6.41,81,0,75.74-16,98.88-45.94,98.88-37.4,0-48.09-22.09-48.09-60V165.16c0-43.13,16-57.86,47-57.86,32.06,0,47,16.83,47,92.57,0,28.4-3.2,58.91-6.41,81l95.11,7.36c3.2-24.19,7.48-64.17,7.48-104.14,0-141-65.19-171.47-156-171.47-100.45,0-163.5,55.76-163.5,169.37V669c0,114.66,63,165.16,165.63,165.16,89.76,0,154.94-31.56,154.94-175.68a734.8,734.8,0,0,0-7.47-105.19Z" style="fill:none"/><path d="M1364.59,540.7l-106.86,7.36V306.11l58.77,61,121.82,7.36c4.28-28.4,9.62-71.53,9.62-115.71,0-115.72-44.88-164.1-133.57-229.33C1285.52,8.42,1247.05,0,1204.31,0,1096.38,0,1028,62.06,1028,182V669c0,62.07,17.1,102,46,132.55,89.76,93.62,120.75,118.86,207.3,118.86,96.17,0,166.7-57.85,166.7-188.29,0-46.29-6.41-101-8.55-117.82ZM1206.44,834.19c-102.58,0-165.63-50.5-165.63-165.16V182c0-113.61,63-169.37,163.5-169.37,90.82,0,156,30.51,156,171.47,0,40-4.28,80-7.48,104.14l-95.11-7.36c3.21-22.09,6.41-52.6,6.41-81,0-75.74-15-92.57-47-92.57-31,0-47,14.73-47,57.86V680.6c0,37.87,10.69,60,48.09,60,29.92,0,45.94-23.14,45.94-98.88,0-25.25-3.2-56.8-6.41-81l96.18-7.36a734.8,734.8,0,0,1,7.47,105.19C1361.38,802.63,1296.2,834.19,1206.44,834.19Z"/><polygon points="1770.65 314.53 1880.71 26.3 1758.9 26.3 1663.8 289.28 1661.66 289.28 1661.66 26.3 1532.36 26.3 1532.36 823.67 1661.66 823.67 1661.66 550.16 1690.51 476.53 1761.04 823.67 1894.61 823.67 1770.65 314.53" style="fill:none"/><polygon points="1770.65 314.53 1880.71 26.3 1758.9 26.3 1663.8 289.28 1661.66 289.28 1661.66 26.3 1532.36 26.3 1532.36 823.67 1661.66 823.67 1661.66 550.16 1690.51 476.53 1761.04 823.67 1894.61 823.67 1770.65 314.53" style="fill:none"/><path d="M1861.48,390.27,1967.27,83.1l-68.39-69.42H1748.21l-20.3,57.85-53.43-57.85H1519.54V834.19l74.8,74.68h154.94V836.29l72.66,72.58h169.91ZM1761,823.67l-70.53-347.14-28.85,73.63V823.67h-129.3V26.3h129.3v263h2.14l95.1-263h121.82L1770.65,314.53l124,509.14Z"/><polygon points="1761.04 823.67 1690.51 476.53 1661.66 550.16 1661.66 823.67 1532.36 823.67 1532.36 26.3 1661.66 26.3 1661.66 289.28 1663.8 289.28 1758.9 26.3 1880.71 26.3 1770.65 314.53 1894.61 823.67 1761.04 823.67" style="fill:#fff"/><path d="M743.75,684.81c0,32.61-9.62,53.65-38.47,53.65s-47-18.94-47-52.6V26.3H530V672.19c0,107.29,63.05,162,167.77,162,101.51,0,168.83-54.71,168.83-163.05V26.3H743.75Z" style="fill:#fff"/><path d="M1206.44,834.19c-102.59,0-165.63-50.5-165.63-165.16V182c0-113.61,63-169.37,163.49-169.37,90.83,0,156,30.51,156,171.47,0,40-4.28,80-7.48,104.14l-95.1-7.36c3.2-22.09,6.41-52.6,6.41-81,0-75.74-15-92.57-47-92.57-31,0-47,14.73-47,57.86V680.6c0,37.87,10.69,60,48.09,60,29.92,0,46-23.14,46-98.88,0-25.25-3.21-56.8-6.41-81l96.17-7.36a734.48,734.48,0,0,1,7.48,105.19C1361.38,802.63,1296.2,834.19,1206.44,834.19Z" style="fill:#fff"/><path d="M365.41,125.23H253.21V821.61H123.91V125.23H12.78V26.35H365.41Z" style="fill:#fff"/></svg>